M48
; DRILL file {KiCad 9.0.2} date 2025-06-26T21:31:24-0700
; FORMAT={-:-/ absolute / metric / decimal}
; #@! TF.CreationDate,2025-06-26T21:31:24-07:00
; #@! TF.GenerationSoftware,Kicad,Pcbnew,9.0.2
; #@! TF.FileFunction,MixedPlating,1,4
FMAT,2
METRIC
; #@! TA.AperFunction,Plated,PTH,ViaDrill
T1C0.300
; #@! TA.AperFunction,Plated,PTH,ComponentDrill
T2C0.700
; #@! TA.AperFunction,Plated,PTH,ComponentDrill
T3C0.800
; #@! TA.AperFunction,Plated,PTH,ComponentDrill
T4C1.000
; #@! TA.AperFunction,Plated,PTH,ComponentDrill
T5C1.500
; #@! TA.AperFunction,Plated,PTH,ComponentDrill
T6C1.700
; #@! TA.AperFunction,Plated,PTH,ComponentDrill
T7C3.200
; #@! TA.AperFunction,NonPlated,NPTH,ComponentDrill
T8C1.200
%
G90
G05
T1
X93.98Y-74.93
X93.98Y-80.01
X93.98Y-85.09
X99.06Y-74.93
X99.06Y-80.01
X99.06Y-85.09
X101.016Y-103.149
X101.041Y-139.855
X101.092Y-115.367
X101.778Y-143.485
X101.803Y-67.31
X102.438Y-95.085
X102.438Y-131.752
X102.476Y-107.277
X103.099Y-101.739
X103.099Y-138.407
X103.137Y-113.931
X104.14Y-74.93
X104.14Y-80.01
X104.14Y-85.09
X104.178Y-125.161
X104.801Y-99.504
X104.801Y-136.172
X104.838Y-111.696
X105.27Y-126.66
X106.058Y-122.088
X107.023Y-120.386
X107.976Y-96.685
X107.976Y-133.352
X108.013Y-108.877
X108.369Y-126.66
X110.287Y-96.482
X110.287Y-133.149
X110.325Y-108.674
X111.15Y-84.125
X111.176Y-82.499
X111.176Y-85.776
X113.995Y-85.75
X114.021Y-82.474
X114.529Y-84.404
X115.113Y-83.261
X123.038Y-126.898
X123.038Y-131.978
X123.19Y-139.7
X123.19Y-144.78
X124.435Y-99.339
X124.435Y-104.445
X124.485Y-116.916
X124.485Y-121.844
X124.841Y-109.804
X125.628Y-116.916
X126.34Y-120.345
X126.365Y-109.804
X127.0Y-71.12
X127.0Y-76.2
X127.0Y-81.28
X127.356Y-117.754
X128.016Y-109.017
X128.118Y-126.898
X128.118Y-131.978
X128.27Y-139.7
X128.27Y-144.78
X131.191Y-106.172
X132.08Y-71.12
X132.08Y-76.2
X132.08Y-81.28
X133.35Y-139.7
X133.35Y-144.78
X134.087Y-106.096
X134.569Y-113.487
X134.569Y-118.567
X134.569Y-123.647
X135.585Y-91.338
X137.16Y-71.12
X137.16Y-76.2
X137.16Y-81.28
X138.43Y-139.7
X138.43Y-144.78
X139.649Y-113.487
X139.649Y-118.567
X139.649Y-123.647
X140.564Y-101.6
X140.665Y-91.338
X142.24Y-71.12
X142.24Y-76.2
X142.24Y-81.28
X143.332Y-124.13
X143.459Y-98.908
X143.51Y-139.7
X143.51Y-144.78
X146.71Y-105.893
X147.32Y-71.12
X147.32Y-76.2
X147.32Y-81.28
X148.59Y-139.7
X148.59Y-144.78
X149.631Y-106.324
X152.4Y-71.12
X152.4Y-76.2
X152.4Y-81.28
X152.832Y-103.454
X153.67Y-139.7
X153.67Y-144.78
X154.508Y-102.667
X155.346Y-124.333
X156.032Y-102.641
X157.404Y-109.398
X157.404Y-114.529
X157.48Y-71.12
X157.48Y-76.2
X157.48Y-81.28
X158.75Y-139.7
X158.75Y-144.78
X162.56Y-71.12
X162.56Y-76.2
X162.56Y-81.28
X169.951Y-84.379
X170.028Y-79.35
X171.247Y-119.939
X171.348Y-114.91
X171.958Y-97.587
X172.009Y-133.553
X172.974Y-128.93
X174.142Y-81.788
X175.006Y-76.606
X175.006Y-135.738
X175.26Y-99.72
X175.717Y-94.59
X177.622Y-67.31
X177.648Y-143.51
T2
X110.693Y-92.202
X127.406Y-130.505
X137.058Y-114.859
X157.277Y-99.263
T3
X127.127Y-94.59
X127.127Y-97.13
X127.127Y-99.67
X127.127Y-102.21
X134.747Y-94.59
X134.747Y-97.13
X134.747Y-99.67
X134.747Y-102.21
X147.091Y-111.658
X147.091Y-114.198
X147.091Y-116.738
X147.091Y-119.278
X154.711Y-111.658
X154.711Y-114.198
X154.711Y-116.738
X154.711Y-119.278
T4
X116.84Y-76.2
X116.84Y-78.74
X116.84Y-81.28
X116.84Y-83.82
X116.84Y-86.36
X116.84Y-88.9
X116.84Y-91.44
X116.84Y-93.98
X116.84Y-99.06
X116.84Y-101.6
X116.84Y-104.14
X116.84Y-106.68
X116.84Y-109.22
X116.84Y-111.76
X116.84Y-114.3
X116.84Y-116.84
X116.84Y-119.38
X116.84Y-121.92
X116.84Y-124.46
X116.84Y-127.0
X116.84Y-129.54
X116.84Y-132.08
X116.84Y-134.62
X119.38Y-76.2
X119.38Y-78.74
X119.38Y-81.28
X119.38Y-83.82
X119.38Y-86.36
X119.38Y-88.9
X119.38Y-91.44
X119.38Y-93.98
X119.38Y-99.06
X119.38Y-101.6
X119.38Y-104.14
X119.38Y-106.68
X119.38Y-109.22
X119.38Y-111.76
X119.38Y-114.3
X119.38Y-116.84
X119.38Y-119.38
X119.38Y-121.92
X119.38Y-124.46
X119.38Y-127.0
X119.38Y-129.54
X119.38Y-132.08
X119.38Y-134.62
X162.56Y-93.98
X162.56Y-96.52
X162.56Y-99.06
X162.56Y-101.6
X162.56Y-104.14
X162.56Y-106.68
X162.56Y-109.22
X162.56Y-111.76
X162.56Y-114.3
X162.56Y-116.84
X162.56Y-119.38
X162.56Y-121.92
X162.56Y-124.46
X162.56Y-127.0
X162.56Y-129.54
X162.56Y-132.08
X162.56Y-134.62
X165.1Y-93.98
X165.1Y-96.52
X165.1Y-99.06
X165.1Y-101.6
X165.1Y-104.14
X165.1Y-106.68
X165.1Y-109.22
X165.1Y-111.76
X165.1Y-114.3
X165.1Y-116.84
X165.1Y-119.38
X165.1Y-121.92
X165.1Y-124.46
X165.1Y-127.0
X165.1Y-129.54
X165.1Y-132.08
X165.1Y-134.62
T5
X95.631Y-98.133
X95.631Y-134.8
X95.669Y-110.325
X95.669Y-122.57
T6
X93.091Y-95.593
X93.091Y-100.673
X93.091Y-132.26
X93.091Y-137.34
X93.129Y-107.785
X93.129Y-112.865
X93.129Y-120.03
X93.129Y-125.11
X98.171Y-95.593
X98.171Y-100.673
X98.171Y-132.26
X98.171Y-137.34
X98.209Y-107.785
X98.209Y-112.865
X98.209Y-120.03
X98.209Y-125.11
T7
X93.98Y-67.31
X93.98Y-143.51
X185.42Y-67.31
X185.42Y-143.51
T8
X179.972Y-79.32
X179.972Y-96.93
X179.972Y-114.873
X179.972Y-132.842
X184.972Y-74.32
X184.972Y-84.32
X184.972Y-91.93
X184.972Y-101.93
X184.972Y-109.873
X184.972Y-119.873
X184.972Y-127.842
X184.972Y-137.842
X188.472Y-74.32
X188.472Y-84.32
X188.472Y-91.93
X188.472Y-101.93
X188.472Y-109.873
X188.472Y-119.873
X188.472Y-127.842
X188.472Y-137.842
T3
G00X180.322Y-74.32
M15
G01X179.622Y-74.32
M16
G05
G00X180.322Y-76.82
M15
G01X179.622Y-76.82
M16
G05
G00X180.322Y-81.82
M15
G01X179.622Y-81.82
M16
G05
G00X180.322Y-84.32
M15
G01X179.622Y-84.32
M16
G05
G00X180.322Y-91.93
M15
G01X179.622Y-91.93
M16
G05
G00X180.322Y-94.43
M15
G01X179.622Y-94.43
M16
G05
G00X180.322Y-99.43
M15
G01X179.622Y-99.43
M16
G05
G00X180.322Y-101.93
M15
G01X179.622Y-101.93
M16
G05
G00X180.322Y-109.873
M15
G01X179.622Y-109.873
M16
G05
G00X180.322Y-112.373
M15
G01X179.622Y-112.373
M16
G05
G00X180.322Y-117.373
M15
G01X179.622Y-117.373
M16
G05
G00X180.322Y-119.873
M15
G01X179.622Y-119.873
M16
G05
G00X180.322Y-127.842
M15
G01X179.622Y-127.842
M16
G05
G00X180.322Y-130.342
M15
G01X179.622Y-130.342
M16
G05
G00X180.322Y-135.342
M15
G01X179.622Y-135.342
M16
G05
G00X180.322Y-137.842
M15
G01X179.622Y-137.842
M16
G05
G00X184.972Y-79.67
M15
G01X184.972Y-78.97
M16
G05
G00X184.972Y-97.28
M15
G01X184.972Y-96.58
M16
G05
G00X184.972Y-115.223
M15
G01X184.972Y-114.523
M16
G05
G00X184.972Y-133.192
M15
G01X184.972Y-132.492
M16
G05
M30
