%TF.GenerationSoftware,KiCad,Pcbnew,9.0.2*%
%TF.CreationDate,2025-06-26T21:31:22-07:00*%
%TF.ProjectId,tdm_b1,74646d5f-6231-42e6-9b69-6361645f7063,rev?*%
%TF.SameCoordinates,Original*%
%TF.FileFunction,Legend,Top*%
%TF.FilePolarity,Positive*%
%FSLAX46Y46*%
G04 Gerber Fmt 4.6, Leading zero omitted, Abs format (unit mm)*
G04 Created by KiCad (PCBNEW 9.0.2) date 2025-06-26 21:31:22*
%MOMM*%
%LPD*%
G01*
G04 APERTURE LIST*
%ADD10C,0.254000*%
%ADD11C,0.100000*%
%ADD12C,0.177800*%
%ADD13C,0.150000*%
%ADD14C,0.120000*%
G04 APERTURE END LIST*
D10*
X130225800Y-78536800D02*
X129032000Y-79095600D01*
X130225800Y-77749400D02*
X130225800Y-79781400D01*
X130225800Y-77749400D02*
X129032000Y-78282800D01*
X129032000Y-77063600D02*
X129032000Y-79095600D01*
D11*
X97331884Y-140207419D02*
X97331884Y-139207419D01*
X97331884Y-139207419D02*
X97569979Y-139207419D01*
X97569979Y-139207419D02*
X97712836Y-139255038D01*
X97712836Y-139255038D02*
X97808074Y-139350276D01*
X97808074Y-139350276D02*
X97855693Y-139445514D01*
X97855693Y-139445514D02*
X97903312Y-139635990D01*
X97903312Y-139635990D02*
X97903312Y-139778847D01*
X97903312Y-139778847D02*
X97855693Y-139969323D01*
X97855693Y-139969323D02*
X97808074Y-140064561D01*
X97808074Y-140064561D02*
X97712836Y-140159800D01*
X97712836Y-140159800D02*
X97569979Y-140207419D01*
X97569979Y-140207419D02*
X97331884Y-140207419D01*
X98331884Y-140207419D02*
X98331884Y-139207419D01*
X98808074Y-140207419D02*
X98808074Y-139207419D01*
X98808074Y-139207419D02*
X99379502Y-140207419D01*
X99379502Y-140207419D02*
X99379502Y-139207419D01*
X96090417Y-103107609D02*
X95757084Y-103107609D01*
X95757084Y-103631419D02*
X95757084Y-102631419D01*
X95757084Y-102631419D02*
X96233274Y-102631419D01*
X96566608Y-103583800D02*
X96709465Y-103631419D01*
X96709465Y-103631419D02*
X96947560Y-103631419D01*
X96947560Y-103631419D02*
X97042798Y-103583800D01*
X97042798Y-103583800D02*
X97090417Y-103536180D01*
X97090417Y-103536180D02*
X97138036Y-103440942D01*
X97138036Y-103440942D02*
X97138036Y-103345704D01*
X97138036Y-103345704D02*
X97090417Y-103250466D01*
X97090417Y-103250466D02*
X97042798Y-103202847D01*
X97042798Y-103202847D02*
X96947560Y-103155228D01*
X96947560Y-103155228D02*
X96757084Y-103107609D01*
X96757084Y-103107609D02*
X96661846Y-103059990D01*
X96661846Y-103059990D02*
X96614227Y-103012371D01*
X96614227Y-103012371D02*
X96566608Y-102917133D01*
X96566608Y-102917133D02*
X96566608Y-102821895D01*
X96566608Y-102821895D02*
X96614227Y-102726657D01*
X96614227Y-102726657D02*
X96661846Y-102679038D01*
X96661846Y-102679038D02*
X96757084Y-102631419D01*
X96757084Y-102631419D02*
X96995179Y-102631419D01*
X96995179Y-102631419D02*
X97138036Y-102679038D01*
X98328513Y-103631419D02*
X98328513Y-102631419D01*
X98804703Y-103631419D02*
X98804703Y-102631419D01*
X98804703Y-102631419D02*
X99376131Y-103631419D01*
X99376131Y-103631419D02*
X99376131Y-102631419D01*
X96290484Y-128167819D02*
X96290484Y-127167819D01*
X96290484Y-127167819D02*
X96528579Y-127167819D01*
X96528579Y-127167819D02*
X96671436Y-127215438D01*
X96671436Y-127215438D02*
X96766674Y-127310676D01*
X96766674Y-127310676D02*
X96814293Y-127405914D01*
X96814293Y-127405914D02*
X96861912Y-127596390D01*
X96861912Y-127596390D02*
X96861912Y-127739247D01*
X96861912Y-127739247D02*
X96814293Y-127929723D01*
X96814293Y-127929723D02*
X96766674Y-128024961D01*
X96766674Y-128024961D02*
X96671436Y-128120200D01*
X96671436Y-128120200D02*
X96528579Y-128167819D01*
X96528579Y-128167819D02*
X96290484Y-128167819D01*
X97480960Y-127167819D02*
X97671436Y-127167819D01*
X97671436Y-127167819D02*
X97766674Y-127215438D01*
X97766674Y-127215438D02*
X97861912Y-127310676D01*
X97861912Y-127310676D02*
X97909531Y-127501152D01*
X97909531Y-127501152D02*
X97909531Y-127834485D01*
X97909531Y-127834485D02*
X97861912Y-128024961D01*
X97861912Y-128024961D02*
X97766674Y-128120200D01*
X97766674Y-128120200D02*
X97671436Y-128167819D01*
X97671436Y-128167819D02*
X97480960Y-128167819D01*
X97480960Y-128167819D02*
X97385722Y-128120200D01*
X97385722Y-128120200D02*
X97290484Y-128024961D01*
X97290484Y-128024961D02*
X97242865Y-127834485D01*
X97242865Y-127834485D02*
X97242865Y-127501152D01*
X97242865Y-127501152D02*
X97290484Y-127310676D01*
X97290484Y-127310676D02*
X97385722Y-127215438D01*
X97385722Y-127215438D02*
X97480960Y-127167819D01*
X98338103Y-127167819D02*
X98338103Y-127977342D01*
X98338103Y-127977342D02*
X98385722Y-128072580D01*
X98385722Y-128072580D02*
X98433341Y-128120200D01*
X98433341Y-128120200D02*
X98528579Y-128167819D01*
X98528579Y-128167819D02*
X98719055Y-128167819D01*
X98719055Y-128167819D02*
X98814293Y-128120200D01*
X98814293Y-128120200D02*
X98861912Y-128072580D01*
X98861912Y-128072580D02*
X98909531Y-127977342D01*
X98909531Y-127977342D02*
X98909531Y-127167819D01*
X99242865Y-127167819D02*
X99814293Y-127167819D01*
X99528579Y-128167819D02*
X99528579Y-127167819D01*
D12*
X131422877Y-78936614D02*
X131422877Y-77920614D01*
X131422877Y-77920614D02*
X132003449Y-78936614D01*
X132003449Y-78936614D02*
X132003449Y-77920614D01*
X132438877Y-78646329D02*
X132922687Y-78646329D01*
X132342115Y-78936614D02*
X132680782Y-77920614D01*
X132680782Y-77920614D02*
X133019449Y-78936614D01*
X133212972Y-77920614D02*
X133793544Y-77920614D01*
X133503258Y-78936614D02*
X133503258Y-77920614D01*
X134132210Y-77920614D02*
X134132210Y-78743091D01*
X134132210Y-78743091D02*
X134180591Y-78839853D01*
X134180591Y-78839853D02*
X134228972Y-78888234D01*
X134228972Y-78888234D02*
X134325734Y-78936614D01*
X134325734Y-78936614D02*
X134519258Y-78936614D01*
X134519258Y-78936614D02*
X134616020Y-78888234D01*
X134616020Y-78888234D02*
X134664401Y-78839853D01*
X134664401Y-78839853D02*
X134712782Y-78743091D01*
X134712782Y-78743091D02*
X134712782Y-77920614D01*
X135777163Y-78936614D02*
X135438496Y-78452805D01*
X135196591Y-78936614D02*
X135196591Y-77920614D01*
X135196591Y-77920614D02*
X135583639Y-77920614D01*
X135583639Y-77920614D02*
X135680401Y-77968995D01*
X135680401Y-77968995D02*
X135728782Y-78017376D01*
X135728782Y-78017376D02*
X135777163Y-78114138D01*
X135777163Y-78114138D02*
X135777163Y-78259281D01*
X135777163Y-78259281D02*
X135728782Y-78356043D01*
X135728782Y-78356043D02*
X135680401Y-78404424D01*
X135680401Y-78404424D02*
X135583639Y-78452805D01*
X135583639Y-78452805D02*
X135196591Y-78452805D01*
X136164210Y-78646329D02*
X136648020Y-78646329D01*
X136067448Y-78936614D02*
X136406115Y-77920614D01*
X136406115Y-77920614D02*
X136744782Y-78936614D01*
X137567258Y-78936614D02*
X137083448Y-78936614D01*
X137083448Y-78936614D02*
X137083448Y-77920614D01*
X138631638Y-78888234D02*
X138776781Y-78936614D01*
X138776781Y-78936614D02*
X139018686Y-78936614D01*
X139018686Y-78936614D02*
X139115448Y-78888234D01*
X139115448Y-78888234D02*
X139163829Y-78839853D01*
X139163829Y-78839853D02*
X139212210Y-78743091D01*
X139212210Y-78743091D02*
X139212210Y-78646329D01*
X139212210Y-78646329D02*
X139163829Y-78549567D01*
X139163829Y-78549567D02*
X139115448Y-78501186D01*
X139115448Y-78501186D02*
X139018686Y-78452805D01*
X139018686Y-78452805D02*
X138825162Y-78404424D01*
X138825162Y-78404424D02*
X138728400Y-78356043D01*
X138728400Y-78356043D02*
X138680019Y-78307662D01*
X138680019Y-78307662D02*
X138631638Y-78210900D01*
X138631638Y-78210900D02*
X138631638Y-78114138D01*
X138631638Y-78114138D02*
X138680019Y-78017376D01*
X138680019Y-78017376D02*
X138728400Y-77968995D01*
X138728400Y-77968995D02*
X138825162Y-77920614D01*
X138825162Y-77920614D02*
X139067067Y-77920614D01*
X139067067Y-77920614D02*
X139212210Y-77968995D01*
X139841162Y-78452805D02*
X139841162Y-78936614D01*
X139502495Y-77920614D02*
X139841162Y-78452805D01*
X139841162Y-78452805D02*
X140179829Y-77920614D01*
X140470114Y-78888234D02*
X140615257Y-78936614D01*
X140615257Y-78936614D02*
X140857162Y-78936614D01*
X140857162Y-78936614D02*
X140953924Y-78888234D01*
X140953924Y-78888234D02*
X141002305Y-78839853D01*
X141002305Y-78839853D02*
X141050686Y-78743091D01*
X141050686Y-78743091D02*
X141050686Y-78646329D01*
X141050686Y-78646329D02*
X141002305Y-78549567D01*
X141002305Y-78549567D02*
X140953924Y-78501186D01*
X140953924Y-78501186D02*
X140857162Y-78452805D01*
X140857162Y-78452805D02*
X140663638Y-78404424D01*
X140663638Y-78404424D02*
X140566876Y-78356043D01*
X140566876Y-78356043D02*
X140518495Y-78307662D01*
X140518495Y-78307662D02*
X140470114Y-78210900D01*
X140470114Y-78210900D02*
X140470114Y-78114138D01*
X140470114Y-78114138D02*
X140518495Y-78017376D01*
X140518495Y-78017376D02*
X140566876Y-77968995D01*
X140566876Y-77968995D02*
X140663638Y-77920614D01*
X140663638Y-77920614D02*
X140905543Y-77920614D01*
X140905543Y-77920614D02*
X141050686Y-77968995D01*
X141340971Y-77920614D02*
X141921543Y-77920614D01*
X141631257Y-78936614D02*
X141631257Y-77920614D01*
X142260209Y-78404424D02*
X142598876Y-78404424D01*
X142744019Y-78936614D02*
X142260209Y-78936614D01*
X142260209Y-78936614D02*
X142260209Y-77920614D01*
X142260209Y-77920614D02*
X142744019Y-77920614D01*
X143179447Y-78936614D02*
X143179447Y-77920614D01*
X143179447Y-77920614D02*
X143518114Y-78646329D01*
X143518114Y-78646329D02*
X143856781Y-77920614D01*
X143856781Y-77920614D02*
X143856781Y-78936614D01*
X144292209Y-78888234D02*
X144437352Y-78936614D01*
X144437352Y-78936614D02*
X144679257Y-78936614D01*
X144679257Y-78936614D02*
X144776019Y-78888234D01*
X144776019Y-78888234D02*
X144824400Y-78839853D01*
X144824400Y-78839853D02*
X144872781Y-78743091D01*
X144872781Y-78743091D02*
X144872781Y-78646329D01*
X144872781Y-78646329D02*
X144824400Y-78549567D01*
X144824400Y-78549567D02*
X144776019Y-78501186D01*
X144776019Y-78501186D02*
X144679257Y-78452805D01*
X144679257Y-78452805D02*
X144485733Y-78404424D01*
X144485733Y-78404424D02*
X144388971Y-78356043D01*
X144388971Y-78356043D02*
X144340590Y-78307662D01*
X144340590Y-78307662D02*
X144292209Y-78210900D01*
X144292209Y-78210900D02*
X144292209Y-78114138D01*
X144292209Y-78114138D02*
X144340590Y-78017376D01*
X144340590Y-78017376D02*
X144388971Y-77968995D01*
X144388971Y-77968995D02*
X144485733Y-77920614D01*
X144485733Y-77920614D02*
X144727638Y-77920614D01*
X144727638Y-77920614D02*
X144872781Y-77968995D01*
X145937161Y-77920614D02*
X146517733Y-77920614D01*
X146227447Y-78936614D02*
X146227447Y-77920614D01*
X146856399Y-78936614D02*
X146856399Y-77920614D01*
X146856399Y-77920614D02*
X147098304Y-77920614D01*
X147098304Y-77920614D02*
X147243447Y-77968995D01*
X147243447Y-77968995D02*
X147340209Y-78065757D01*
X147340209Y-78065757D02*
X147388590Y-78162519D01*
X147388590Y-78162519D02*
X147436971Y-78356043D01*
X147436971Y-78356043D02*
X147436971Y-78501186D01*
X147436971Y-78501186D02*
X147388590Y-78694710D01*
X147388590Y-78694710D02*
X147340209Y-78791472D01*
X147340209Y-78791472D02*
X147243447Y-78888234D01*
X147243447Y-78888234D02*
X147098304Y-78936614D01*
X147098304Y-78936614D02*
X146856399Y-78936614D01*
X147872399Y-78936614D02*
X147872399Y-77920614D01*
X147872399Y-77920614D02*
X148211066Y-78646329D01*
X148211066Y-78646329D02*
X148549733Y-77920614D01*
X148549733Y-77920614D02*
X148549733Y-78936614D01*
X149033542Y-78549567D02*
X149807638Y-78549567D01*
X150630114Y-78404424D02*
X150775257Y-78452805D01*
X150775257Y-78452805D02*
X150823638Y-78501186D01*
X150823638Y-78501186D02*
X150872019Y-78597948D01*
X150872019Y-78597948D02*
X150872019Y-78743091D01*
X150872019Y-78743091D02*
X150823638Y-78839853D01*
X150823638Y-78839853D02*
X150775257Y-78888234D01*
X150775257Y-78888234D02*
X150678495Y-78936614D01*
X150678495Y-78936614D02*
X150291447Y-78936614D01*
X150291447Y-78936614D02*
X150291447Y-77920614D01*
X150291447Y-77920614D02*
X150630114Y-77920614D01*
X150630114Y-77920614D02*
X150726876Y-77968995D01*
X150726876Y-77968995D02*
X150775257Y-78017376D01*
X150775257Y-78017376D02*
X150823638Y-78114138D01*
X150823638Y-78114138D02*
X150823638Y-78210900D01*
X150823638Y-78210900D02*
X150775257Y-78307662D01*
X150775257Y-78307662D02*
X150726876Y-78356043D01*
X150726876Y-78356043D02*
X150630114Y-78404424D01*
X150630114Y-78404424D02*
X150291447Y-78404424D01*
X151839638Y-78936614D02*
X151259066Y-78936614D01*
X151549352Y-78936614D02*
X151549352Y-77920614D01*
X151549352Y-77920614D02*
X151452590Y-78065757D01*
X151452590Y-78065757D02*
X151355828Y-78162519D01*
X151355828Y-78162519D02*
X151259066Y-78210900D01*
X153629733Y-78936614D02*
X153291066Y-78452805D01*
X153049161Y-78936614D02*
X153049161Y-77920614D01*
X153049161Y-77920614D02*
X153436209Y-77920614D01*
X153436209Y-77920614D02*
X153532971Y-77968995D01*
X153532971Y-77968995D02*
X153581352Y-78017376D01*
X153581352Y-78017376D02*
X153629733Y-78114138D01*
X153629733Y-78114138D02*
X153629733Y-78259281D01*
X153629733Y-78259281D02*
X153581352Y-78356043D01*
X153581352Y-78356043D02*
X153532971Y-78404424D01*
X153532971Y-78404424D02*
X153436209Y-78452805D01*
X153436209Y-78452805D02*
X153049161Y-78452805D01*
X154065161Y-78404424D02*
X154403828Y-78404424D01*
X154548971Y-78936614D02*
X154065161Y-78936614D01*
X154065161Y-78936614D02*
X154065161Y-77920614D01*
X154065161Y-77920614D02*
X154548971Y-77920614D01*
X154839256Y-77920614D02*
X155177923Y-78936614D01*
X155177923Y-78936614D02*
X155516590Y-77920614D01*
X156580970Y-78646329D02*
X157064780Y-78646329D01*
X156484208Y-78936614D02*
X156822875Y-77920614D01*
X156822875Y-77920614D02*
X157161542Y-78936614D01*
D11*
X94591865Y-115750400D02*
X94734722Y-115798019D01*
X94734722Y-115798019D02*
X94972817Y-115798019D01*
X94972817Y-115798019D02*
X95068055Y-115750400D01*
X95068055Y-115750400D02*
X95115674Y-115702780D01*
X95115674Y-115702780D02*
X95163293Y-115607542D01*
X95163293Y-115607542D02*
X95163293Y-115512304D01*
X95163293Y-115512304D02*
X95115674Y-115417066D01*
X95115674Y-115417066D02*
X95068055Y-115369447D01*
X95068055Y-115369447D02*
X94972817Y-115321828D01*
X94972817Y-115321828D02*
X94782341Y-115274209D01*
X94782341Y-115274209D02*
X94687103Y-115226590D01*
X94687103Y-115226590D02*
X94639484Y-115178971D01*
X94639484Y-115178971D02*
X94591865Y-115083733D01*
X94591865Y-115083733D02*
X94591865Y-114988495D01*
X94591865Y-114988495D02*
X94639484Y-114893257D01*
X94639484Y-114893257D02*
X94687103Y-114845638D01*
X94687103Y-114845638D02*
X94782341Y-114798019D01*
X94782341Y-114798019D02*
X95020436Y-114798019D01*
X95020436Y-114798019D02*
X95163293Y-114845638D01*
X96163293Y-115702780D02*
X96115674Y-115750400D01*
X96115674Y-115750400D02*
X95972817Y-115798019D01*
X95972817Y-115798019D02*
X95877579Y-115798019D01*
X95877579Y-115798019D02*
X95734722Y-115750400D01*
X95734722Y-115750400D02*
X95639484Y-115655161D01*
X95639484Y-115655161D02*
X95591865Y-115559923D01*
X95591865Y-115559923D02*
X95544246Y-115369447D01*
X95544246Y-115369447D02*
X95544246Y-115226590D01*
X95544246Y-115226590D02*
X95591865Y-115036114D01*
X95591865Y-115036114D02*
X95639484Y-114940876D01*
X95639484Y-114940876D02*
X95734722Y-114845638D01*
X95734722Y-114845638D02*
X95877579Y-114798019D01*
X95877579Y-114798019D02*
X95972817Y-114798019D01*
X95972817Y-114798019D02*
X96115674Y-114845638D01*
X96115674Y-114845638D02*
X96163293Y-114893257D01*
X96591865Y-115798019D02*
X96591865Y-114798019D01*
X97163293Y-115798019D02*
X96734722Y-115226590D01*
X97163293Y-114798019D02*
X96591865Y-115369447D01*
X98353770Y-115798019D02*
X98353770Y-114798019D01*
X98829960Y-115798019D02*
X98829960Y-114798019D01*
X98829960Y-114798019D02*
X99401388Y-115798019D01*
X99401388Y-115798019D02*
X99401388Y-114798019D01*
D13*
X140606542Y-111935419D02*
X140273209Y-111459228D01*
X140035114Y-111935419D02*
X140035114Y-110935419D01*
X140035114Y-110935419D02*
X140416066Y-110935419D01*
X140416066Y-110935419D02*
X140511304Y-110983038D01*
X140511304Y-110983038D02*
X140558923Y-111030657D01*
X140558923Y-111030657D02*
X140606542Y-111125895D01*
X140606542Y-111125895D02*
X140606542Y-111268752D01*
X140606542Y-111268752D02*
X140558923Y-111363990D01*
X140558923Y-111363990D02*
X140511304Y-111411609D01*
X140511304Y-111411609D02*
X140416066Y-111459228D01*
X140416066Y-111459228D02*
X140035114Y-111459228D01*
X140939876Y-110935419D02*
X141558923Y-110935419D01*
X141558923Y-110935419D02*
X141225590Y-111316371D01*
X141225590Y-111316371D02*
X141368447Y-111316371D01*
X141368447Y-111316371D02*
X141463685Y-111363990D01*
X141463685Y-111363990D02*
X141511304Y-111411609D01*
X141511304Y-111411609D02*
X141558923Y-111506847D01*
X141558923Y-111506847D02*
X141558923Y-111744942D01*
X141558923Y-111744942D02*
X141511304Y-111840180D01*
X141511304Y-111840180D02*
X141463685Y-111887800D01*
X141463685Y-111887800D02*
X141368447Y-111935419D01*
X141368447Y-111935419D02*
X141082733Y-111935419D01*
X141082733Y-111935419D02*
X140987495Y-111887800D01*
X140987495Y-111887800D02*
X140939876Y-111840180D01*
X142035114Y-111935419D02*
X142225590Y-111935419D01*
X142225590Y-111935419D02*
X142320828Y-111887800D01*
X142320828Y-111887800D02*
X142368447Y-111840180D01*
X142368447Y-111840180D02*
X142463685Y-111697323D01*
X142463685Y-111697323D02*
X142511304Y-111506847D01*
X142511304Y-111506847D02*
X142511304Y-111125895D01*
X142511304Y-111125895D02*
X142463685Y-111030657D01*
X142463685Y-111030657D02*
X142416066Y-110983038D01*
X142416066Y-110983038D02*
X142320828Y-110935419D01*
X142320828Y-110935419D02*
X142130352Y-110935419D01*
X142130352Y-110935419D02*
X142035114Y-110983038D01*
X142035114Y-110983038D02*
X141987495Y-111030657D01*
X141987495Y-111030657D02*
X141939876Y-111125895D01*
X141939876Y-111125895D02*
X141939876Y-111363990D01*
X141939876Y-111363990D02*
X141987495Y-111459228D01*
X141987495Y-111459228D02*
X142035114Y-111506847D01*
X142035114Y-111506847D02*
X142130352Y-111554466D01*
X142130352Y-111554466D02*
X142320828Y-111554466D01*
X142320828Y-111554466D02*
X142416066Y-111506847D01*
X142416066Y-111506847D02*
X142463685Y-111459228D01*
X142463685Y-111459228D02*
X142511304Y-111363990D01*
X128377195Y-104613619D02*
X128377195Y-105423142D01*
X128377195Y-105423142D02*
X128424814Y-105518380D01*
X128424814Y-105518380D02*
X128472433Y-105566000D01*
X128472433Y-105566000D02*
X128567671Y-105613619D01*
X128567671Y-105613619D02*
X128758147Y-105613619D01*
X128758147Y-105613619D02*
X128853385Y-105566000D01*
X128853385Y-105566000D02*
X128901004Y-105518380D01*
X128901004Y-105518380D02*
X128948623Y-105423142D01*
X128948623Y-105423142D02*
X128948623Y-104613619D01*
X129472433Y-105613619D02*
X129662909Y-105613619D01*
X129662909Y-105613619D02*
X129758147Y-105566000D01*
X129758147Y-105566000D02*
X129805766Y-105518380D01*
X129805766Y-105518380D02*
X129901004Y-105375523D01*
X129901004Y-105375523D02*
X129948623Y-105185047D01*
X129948623Y-105185047D02*
X129948623Y-104804095D01*
X129948623Y-104804095D02*
X129901004Y-104708857D01*
X129901004Y-104708857D02*
X129853385Y-104661238D01*
X129853385Y-104661238D02*
X129758147Y-104613619D01*
X129758147Y-104613619D02*
X129567671Y-104613619D01*
X129567671Y-104613619D02*
X129472433Y-104661238D01*
X129472433Y-104661238D02*
X129424814Y-104708857D01*
X129424814Y-104708857D02*
X129377195Y-104804095D01*
X129377195Y-104804095D02*
X129377195Y-105042190D01*
X129377195Y-105042190D02*
X129424814Y-105137428D01*
X129424814Y-105137428D02*
X129472433Y-105185047D01*
X129472433Y-105185047D02*
X129567671Y-105232666D01*
X129567671Y-105232666D02*
X129758147Y-105232666D01*
X129758147Y-105232666D02*
X129853385Y-105185047D01*
X129853385Y-105185047D02*
X129901004Y-105137428D01*
X129901004Y-105137428D02*
X129948623Y-105042190D01*
X91925876Y-92444219D02*
X91925876Y-93158504D01*
X91925876Y-93158504D02*
X91878257Y-93301361D01*
X91878257Y-93301361D02*
X91783019Y-93396600D01*
X91783019Y-93396600D02*
X91640162Y-93444219D01*
X91640162Y-93444219D02*
X91544924Y-93444219D01*
X92925876Y-93444219D02*
X92354448Y-93444219D01*
X92640162Y-93444219D02*
X92640162Y-92444219D01*
X92640162Y-92444219D02*
X92544924Y-92587076D01*
X92544924Y-92587076D02*
X92449686Y-92682314D01*
X92449686Y-92682314D02*
X92354448Y-92729933D01*
X93878257Y-93444219D02*
X93306829Y-93444219D01*
X93592543Y-93444219D02*
X93592543Y-92444219D01*
X93592543Y-92444219D02*
X93497305Y-92587076D01*
X93497305Y-92587076D02*
X93402067Y-92682314D01*
X93402067Y-92682314D02*
X93306829Y-92729933D01*
X100379305Y-116786819D02*
X100379305Y-115786819D01*
X100379305Y-115786819D02*
X100617400Y-115786819D01*
X100617400Y-115786819D02*
X100760257Y-115834438D01*
X100760257Y-115834438D02*
X100855495Y-115929676D01*
X100855495Y-115929676D02*
X100903114Y-116024914D01*
X100903114Y-116024914D02*
X100950733Y-116215390D01*
X100950733Y-116215390D02*
X100950733Y-116358247D01*
X100950733Y-116358247D02*
X100903114Y-116548723D01*
X100903114Y-116548723D02*
X100855495Y-116643961D01*
X100855495Y-116643961D02*
X100760257Y-116739200D01*
X100760257Y-116739200D02*
X100617400Y-116786819D01*
X100617400Y-116786819D02*
X100379305Y-116786819D01*
X101903114Y-116786819D02*
X101331686Y-116786819D01*
X101617400Y-116786819D02*
X101617400Y-115786819D01*
X101617400Y-115786819D02*
X101522162Y-115929676D01*
X101522162Y-115929676D02*
X101426924Y-116024914D01*
X101426924Y-116024914D02*
X101331686Y-116072533D01*
X100353905Y-104823419D02*
X100353905Y-103823419D01*
X100353905Y-103823419D02*
X100592000Y-103823419D01*
X100592000Y-103823419D02*
X100734857Y-103871038D01*
X100734857Y-103871038D02*
X100830095Y-103966276D01*
X100830095Y-103966276D02*
X100877714Y-104061514D01*
X100877714Y-104061514D02*
X100925333Y-104251990D01*
X100925333Y-104251990D02*
X100925333Y-104394847D01*
X100925333Y-104394847D02*
X100877714Y-104585323D01*
X100877714Y-104585323D02*
X100830095Y-104680561D01*
X100830095Y-104680561D02*
X100734857Y-104775800D01*
X100734857Y-104775800D02*
X100592000Y-104823419D01*
X100592000Y-104823419D02*
X100353905Y-104823419D01*
X101306286Y-103918657D02*
X101353905Y-103871038D01*
X101353905Y-103871038D02*
X101449143Y-103823419D01*
X101449143Y-103823419D02*
X101687238Y-103823419D01*
X101687238Y-103823419D02*
X101782476Y-103871038D01*
X101782476Y-103871038D02*
X101830095Y-103918657D01*
X101830095Y-103918657D02*
X101877714Y-104013895D01*
X101877714Y-104013895D02*
X101877714Y-104109133D01*
X101877714Y-104109133D02*
X101830095Y-104251990D01*
X101830095Y-104251990D02*
X101258667Y-104823419D01*
X101258667Y-104823419D02*
X101877714Y-104823419D01*
X154525742Y-109274780D02*
X154478123Y-109322400D01*
X154478123Y-109322400D02*
X154335266Y-109370019D01*
X154335266Y-109370019D02*
X154240028Y-109370019D01*
X154240028Y-109370019D02*
X154097171Y-109322400D01*
X154097171Y-109322400D02*
X154001933Y-109227161D01*
X154001933Y-109227161D02*
X153954314Y-109131923D01*
X153954314Y-109131923D02*
X153906695Y-108941447D01*
X153906695Y-108941447D02*
X153906695Y-108798590D01*
X153906695Y-108798590D02*
X153954314Y-108608114D01*
X153954314Y-108608114D02*
X154001933Y-108512876D01*
X154001933Y-108512876D02*
X154097171Y-108417638D01*
X154097171Y-108417638D02*
X154240028Y-108370019D01*
X154240028Y-108370019D02*
X154335266Y-108370019D01*
X154335266Y-108370019D02*
X154478123Y-108417638D01*
X154478123Y-108417638D02*
X154525742Y-108465257D01*
X154906695Y-108465257D02*
X154954314Y-108417638D01*
X154954314Y-108417638D02*
X155049552Y-108370019D01*
X155049552Y-108370019D02*
X155287647Y-108370019D01*
X155287647Y-108370019D02*
X155382885Y-108417638D01*
X155382885Y-108417638D02*
X155430504Y-108465257D01*
X155430504Y-108465257D02*
X155478123Y-108560495D01*
X155478123Y-108560495D02*
X155478123Y-108655733D01*
X155478123Y-108655733D02*
X155430504Y-108798590D01*
X155430504Y-108798590D02*
X154859076Y-109370019D01*
X154859076Y-109370019D02*
X155478123Y-109370019D01*
X156049552Y-108798590D02*
X155954314Y-108750971D01*
X155954314Y-108750971D02*
X155906695Y-108703352D01*
X155906695Y-108703352D02*
X155859076Y-108608114D01*
X155859076Y-108608114D02*
X155859076Y-108560495D01*
X155859076Y-108560495D02*
X155906695Y-108465257D01*
X155906695Y-108465257D02*
X155954314Y-108417638D01*
X155954314Y-108417638D02*
X156049552Y-108370019D01*
X156049552Y-108370019D02*
X156240028Y-108370019D01*
X156240028Y-108370019D02*
X156335266Y-108417638D01*
X156335266Y-108417638D02*
X156382885Y-108465257D01*
X156382885Y-108465257D02*
X156430504Y-108560495D01*
X156430504Y-108560495D02*
X156430504Y-108608114D01*
X156430504Y-108608114D02*
X156382885Y-108703352D01*
X156382885Y-108703352D02*
X156335266Y-108750971D01*
X156335266Y-108750971D02*
X156240028Y-108798590D01*
X156240028Y-108798590D02*
X156049552Y-108798590D01*
X156049552Y-108798590D02*
X155954314Y-108846209D01*
X155954314Y-108846209D02*
X155906695Y-108893828D01*
X155906695Y-108893828D02*
X155859076Y-108989066D01*
X155859076Y-108989066D02*
X155859076Y-109179542D01*
X155859076Y-109179542D02*
X155906695Y-109274780D01*
X155906695Y-109274780D02*
X155954314Y-109322400D01*
X155954314Y-109322400D02*
X156049552Y-109370019D01*
X156049552Y-109370019D02*
X156240028Y-109370019D01*
X156240028Y-109370019D02*
X156335266Y-109322400D01*
X156335266Y-109322400D02*
X156382885Y-109274780D01*
X156382885Y-109274780D02*
X156430504Y-109179542D01*
X156430504Y-109179542D02*
X156430504Y-108989066D01*
X156430504Y-108989066D02*
X156382885Y-108893828D01*
X156382885Y-108893828D02*
X156335266Y-108846209D01*
X156335266Y-108846209D02*
X156240028Y-108798590D01*
X108551742Y-84535180D02*
X108504123Y-84582800D01*
X108504123Y-84582800D02*
X108361266Y-84630419D01*
X108361266Y-84630419D02*
X108266028Y-84630419D01*
X108266028Y-84630419D02*
X108123171Y-84582800D01*
X108123171Y-84582800D02*
X108027933Y-84487561D01*
X108027933Y-84487561D02*
X107980314Y-84392323D01*
X107980314Y-84392323D02*
X107932695Y-84201847D01*
X107932695Y-84201847D02*
X107932695Y-84058990D01*
X107932695Y-84058990D02*
X107980314Y-83868514D01*
X107980314Y-83868514D02*
X108027933Y-83773276D01*
X108027933Y-83773276D02*
X108123171Y-83678038D01*
X108123171Y-83678038D02*
X108266028Y-83630419D01*
X108266028Y-83630419D02*
X108361266Y-83630419D01*
X108361266Y-83630419D02*
X108504123Y-83678038D01*
X108504123Y-83678038D02*
X108551742Y-83725657D01*
X108932695Y-83725657D02*
X108980314Y-83678038D01*
X108980314Y-83678038D02*
X109075552Y-83630419D01*
X109075552Y-83630419D02*
X109313647Y-83630419D01*
X109313647Y-83630419D02*
X109408885Y-83678038D01*
X109408885Y-83678038D02*
X109456504Y-83725657D01*
X109456504Y-83725657D02*
X109504123Y-83820895D01*
X109504123Y-83820895D02*
X109504123Y-83916133D01*
X109504123Y-83916133D02*
X109456504Y-84058990D01*
X109456504Y-84058990D02*
X108885076Y-84630419D01*
X108885076Y-84630419D02*
X109504123Y-84630419D01*
X109980314Y-84630419D02*
X110170790Y-84630419D01*
X110170790Y-84630419D02*
X110266028Y-84582800D01*
X110266028Y-84582800D02*
X110313647Y-84535180D01*
X110313647Y-84535180D02*
X110408885Y-84392323D01*
X110408885Y-84392323D02*
X110456504Y-84201847D01*
X110456504Y-84201847D02*
X110456504Y-83820895D01*
X110456504Y-83820895D02*
X110408885Y-83725657D01*
X110408885Y-83725657D02*
X110361266Y-83678038D01*
X110361266Y-83678038D02*
X110266028Y-83630419D01*
X110266028Y-83630419D02*
X110075552Y-83630419D01*
X110075552Y-83630419D02*
X109980314Y-83678038D01*
X109980314Y-83678038D02*
X109932695Y-83725657D01*
X109932695Y-83725657D02*
X109885076Y-83820895D01*
X109885076Y-83820895D02*
X109885076Y-84058990D01*
X109885076Y-84058990D02*
X109932695Y-84154228D01*
X109932695Y-84154228D02*
X109980314Y-84201847D01*
X109980314Y-84201847D02*
X110075552Y-84249466D01*
X110075552Y-84249466D02*
X110266028Y-84249466D01*
X110266028Y-84249466D02*
X110361266Y-84201847D01*
X110361266Y-84201847D02*
X110408885Y-84154228D01*
X110408885Y-84154228D02*
X110456504Y-84058990D01*
X123918742Y-105794980D02*
X123871123Y-105842600D01*
X123871123Y-105842600D02*
X123728266Y-105890219D01*
X123728266Y-105890219D02*
X123633028Y-105890219D01*
X123633028Y-105890219D02*
X123490171Y-105842600D01*
X123490171Y-105842600D02*
X123394933Y-105747361D01*
X123394933Y-105747361D02*
X123347314Y-105652123D01*
X123347314Y-105652123D02*
X123299695Y-105461647D01*
X123299695Y-105461647D02*
X123299695Y-105318790D01*
X123299695Y-105318790D02*
X123347314Y-105128314D01*
X123347314Y-105128314D02*
X123394933Y-105033076D01*
X123394933Y-105033076D02*
X123490171Y-104937838D01*
X123490171Y-104937838D02*
X123633028Y-104890219D01*
X123633028Y-104890219D02*
X123728266Y-104890219D01*
X123728266Y-104890219D02*
X123871123Y-104937838D01*
X123871123Y-104937838D02*
X123918742Y-104985457D01*
X124252076Y-104890219D02*
X124871123Y-104890219D01*
X124871123Y-104890219D02*
X124537790Y-105271171D01*
X124537790Y-105271171D02*
X124680647Y-105271171D01*
X124680647Y-105271171D02*
X124775885Y-105318790D01*
X124775885Y-105318790D02*
X124823504Y-105366409D01*
X124823504Y-105366409D02*
X124871123Y-105461647D01*
X124871123Y-105461647D02*
X124871123Y-105699742D01*
X124871123Y-105699742D02*
X124823504Y-105794980D01*
X124823504Y-105794980D02*
X124775885Y-105842600D01*
X124775885Y-105842600D02*
X124680647Y-105890219D01*
X124680647Y-105890219D02*
X124394933Y-105890219D01*
X124394933Y-105890219D02*
X124299695Y-105842600D01*
X124299695Y-105842600D02*
X124252076Y-105794980D01*
X125204457Y-104890219D02*
X125823504Y-104890219D01*
X125823504Y-104890219D02*
X125490171Y-105271171D01*
X125490171Y-105271171D02*
X125633028Y-105271171D01*
X125633028Y-105271171D02*
X125728266Y-105318790D01*
X125728266Y-105318790D02*
X125775885Y-105366409D01*
X125775885Y-105366409D02*
X125823504Y-105461647D01*
X125823504Y-105461647D02*
X125823504Y-105699742D01*
X125823504Y-105699742D02*
X125775885Y-105794980D01*
X125775885Y-105794980D02*
X125728266Y-105842600D01*
X125728266Y-105842600D02*
X125633028Y-105890219D01*
X125633028Y-105890219D02*
X125347314Y-105890219D01*
X125347314Y-105890219D02*
X125252076Y-105842600D01*
X125252076Y-105842600D02*
X125204457Y-105794980D01*
X170807142Y-78345219D02*
X170473809Y-77869028D01*
X170235714Y-78345219D02*
X170235714Y-77345219D01*
X170235714Y-77345219D02*
X170616666Y-77345219D01*
X170616666Y-77345219D02*
X170711904Y-77392838D01*
X170711904Y-77392838D02*
X170759523Y-77440457D01*
X170759523Y-77440457D02*
X170807142Y-77535695D01*
X170807142Y-77535695D02*
X170807142Y-77678552D01*
X170807142Y-77678552D02*
X170759523Y-77773790D01*
X170759523Y-77773790D02*
X170711904Y-77821409D01*
X170711904Y-77821409D02*
X170616666Y-77869028D01*
X170616666Y-77869028D02*
X170235714Y-77869028D01*
X171664285Y-77678552D02*
X171664285Y-78345219D01*
X171426190Y-77297600D02*
X171188095Y-78011885D01*
X171188095Y-78011885D02*
X171807142Y-78011885D01*
X172235714Y-78345219D02*
X172426190Y-78345219D01*
X172426190Y-78345219D02*
X172521428Y-78297600D01*
X172521428Y-78297600D02*
X172569047Y-78249980D01*
X172569047Y-78249980D02*
X172664285Y-78107123D01*
X172664285Y-78107123D02*
X172711904Y-77916647D01*
X172711904Y-77916647D02*
X172711904Y-77535695D01*
X172711904Y-77535695D02*
X172664285Y-77440457D01*
X172664285Y-77440457D02*
X172616666Y-77392838D01*
X172616666Y-77392838D02*
X172521428Y-77345219D01*
X172521428Y-77345219D02*
X172330952Y-77345219D01*
X172330952Y-77345219D02*
X172235714Y-77392838D01*
X172235714Y-77392838D02*
X172188095Y-77440457D01*
X172188095Y-77440457D02*
X172140476Y-77535695D01*
X172140476Y-77535695D02*
X172140476Y-77773790D01*
X172140476Y-77773790D02*
X172188095Y-77869028D01*
X172188095Y-77869028D02*
X172235714Y-77916647D01*
X172235714Y-77916647D02*
X172330952Y-77964266D01*
X172330952Y-77964266D02*
X172521428Y-77964266D01*
X172521428Y-77964266D02*
X172616666Y-77916647D01*
X172616666Y-77916647D02*
X172664285Y-77869028D01*
X172664285Y-77869028D02*
X172711904Y-77773790D01*
X132090042Y-105523180D02*
X132042423Y-105570800D01*
X132042423Y-105570800D02*
X131899566Y-105618419D01*
X131899566Y-105618419D02*
X131804328Y-105618419D01*
X131804328Y-105618419D02*
X131661471Y-105570800D01*
X131661471Y-105570800D02*
X131566233Y-105475561D01*
X131566233Y-105475561D02*
X131518614Y-105380323D01*
X131518614Y-105380323D02*
X131470995Y-105189847D01*
X131470995Y-105189847D02*
X131470995Y-105046990D01*
X131470995Y-105046990D02*
X131518614Y-104856514D01*
X131518614Y-104856514D02*
X131566233Y-104761276D01*
X131566233Y-104761276D02*
X131661471Y-104666038D01*
X131661471Y-104666038D02*
X131804328Y-104618419D01*
X131804328Y-104618419D02*
X131899566Y-104618419D01*
X131899566Y-104618419D02*
X132042423Y-104666038D01*
X132042423Y-104666038D02*
X132090042Y-104713657D01*
X132423376Y-104618419D02*
X133042423Y-104618419D01*
X133042423Y-104618419D02*
X132709090Y-104999371D01*
X132709090Y-104999371D02*
X132851947Y-104999371D01*
X132851947Y-104999371D02*
X132947185Y-105046990D01*
X132947185Y-105046990D02*
X132994804Y-105094609D01*
X132994804Y-105094609D02*
X133042423Y-105189847D01*
X133042423Y-105189847D02*
X133042423Y-105427942D01*
X133042423Y-105427942D02*
X132994804Y-105523180D01*
X132994804Y-105523180D02*
X132947185Y-105570800D01*
X132947185Y-105570800D02*
X132851947Y-105618419D01*
X132851947Y-105618419D02*
X132566233Y-105618419D01*
X132566233Y-105618419D02*
X132470995Y-105570800D01*
X132470995Y-105570800D02*
X132423376Y-105523180D01*
X133947185Y-104618419D02*
X133470995Y-104618419D01*
X133470995Y-104618419D02*
X133423376Y-105094609D01*
X133423376Y-105094609D02*
X133470995Y-105046990D01*
X133470995Y-105046990D02*
X133566233Y-104999371D01*
X133566233Y-104999371D02*
X133804328Y-104999371D01*
X133804328Y-104999371D02*
X133899566Y-105046990D01*
X133899566Y-105046990D02*
X133947185Y-105094609D01*
X133947185Y-105094609D02*
X133994804Y-105189847D01*
X133994804Y-105189847D02*
X133994804Y-105427942D01*
X133994804Y-105427942D02*
X133947185Y-105523180D01*
X133947185Y-105523180D02*
X133899566Y-105570800D01*
X133899566Y-105570800D02*
X133804328Y-105618419D01*
X133804328Y-105618419D02*
X133566233Y-105618419D01*
X133566233Y-105618419D02*
X133470995Y-105570800D01*
X133470995Y-105570800D02*
X133423376Y-105523180D01*
X101394419Y-133103857D02*
X100918228Y-133437190D01*
X101394419Y-133675285D02*
X100394419Y-133675285D01*
X100394419Y-133675285D02*
X100394419Y-133294333D01*
X100394419Y-133294333D02*
X100442038Y-133199095D01*
X100442038Y-133199095D02*
X100489657Y-133151476D01*
X100489657Y-133151476D02*
X100584895Y-133103857D01*
X100584895Y-133103857D02*
X100727752Y-133103857D01*
X100727752Y-133103857D02*
X100822990Y-133151476D01*
X100822990Y-133151476D02*
X100870609Y-133199095D01*
X100870609Y-133199095D02*
X100918228Y-133294333D01*
X100918228Y-133294333D02*
X100918228Y-133675285D01*
X100489657Y-132722904D02*
X100442038Y-132675285D01*
X100442038Y-132675285D02*
X100394419Y-132580047D01*
X100394419Y-132580047D02*
X100394419Y-132341952D01*
X100394419Y-132341952D02*
X100442038Y-132246714D01*
X100442038Y-132246714D02*
X100489657Y-132199095D01*
X100489657Y-132199095D02*
X100584895Y-132151476D01*
X100584895Y-132151476D02*
X100680133Y-132151476D01*
X100680133Y-132151476D02*
X100822990Y-132199095D01*
X100822990Y-132199095D02*
X101394419Y-132770523D01*
X101394419Y-132770523D02*
X101394419Y-132151476D01*
X100822990Y-131580047D02*
X100775371Y-131675285D01*
X100775371Y-131675285D02*
X100727752Y-131722904D01*
X100727752Y-131722904D02*
X100632514Y-131770523D01*
X100632514Y-131770523D02*
X100584895Y-131770523D01*
X100584895Y-131770523D02*
X100489657Y-131722904D01*
X100489657Y-131722904D02*
X100442038Y-131675285D01*
X100442038Y-131675285D02*
X100394419Y-131580047D01*
X100394419Y-131580047D02*
X100394419Y-131389571D01*
X100394419Y-131389571D02*
X100442038Y-131294333D01*
X100442038Y-131294333D02*
X100489657Y-131246714D01*
X100489657Y-131246714D02*
X100584895Y-131199095D01*
X100584895Y-131199095D02*
X100632514Y-131199095D01*
X100632514Y-131199095D02*
X100727752Y-131246714D01*
X100727752Y-131246714D02*
X100775371Y-131294333D01*
X100775371Y-131294333D02*
X100822990Y-131389571D01*
X100822990Y-131389571D02*
X100822990Y-131580047D01*
X100822990Y-131580047D02*
X100870609Y-131675285D01*
X100870609Y-131675285D02*
X100918228Y-131722904D01*
X100918228Y-131722904D02*
X101013466Y-131770523D01*
X101013466Y-131770523D02*
X101203942Y-131770523D01*
X101203942Y-131770523D02*
X101299180Y-131722904D01*
X101299180Y-131722904D02*
X101346800Y-131675285D01*
X101346800Y-131675285D02*
X101394419Y-131580047D01*
X101394419Y-131580047D02*
X101394419Y-131389571D01*
X101394419Y-131389571D02*
X101346800Y-131294333D01*
X101346800Y-131294333D02*
X101299180Y-131246714D01*
X101299180Y-131246714D02*
X101203942Y-131199095D01*
X101203942Y-131199095D02*
X101013466Y-131199095D01*
X101013466Y-131199095D02*
X100918228Y-131246714D01*
X100918228Y-131246714D02*
X100870609Y-131294333D01*
X100870609Y-131294333D02*
X100822990Y-131389571D01*
D11*
X178214380Y-79287066D02*
X177500095Y-79287066D01*
X177500095Y-79287066D02*
X177357238Y-79239447D01*
X177357238Y-79239447D02*
X177262000Y-79144209D01*
X177262000Y-79144209D02*
X177214380Y-79001352D01*
X177214380Y-79001352D02*
X177214380Y-78906114D01*
X177881047Y-80191828D02*
X177214380Y-80191828D01*
X178262000Y-79953733D02*
X177547714Y-79715638D01*
X177547714Y-79715638D02*
X177547714Y-80334685D01*
X182899380Y-73781427D02*
X182899380Y-74352855D01*
X181899380Y-74067141D02*
X182899380Y-74067141D01*
X186147000Y-79076665D02*
X186099380Y-79219522D01*
X186099380Y-79219522D02*
X186099380Y-79457617D01*
X186099380Y-79457617D02*
X186147000Y-79552855D01*
X186147000Y-79552855D02*
X186194619Y-79600474D01*
X186194619Y-79600474D02*
X186289857Y-79648093D01*
X186289857Y-79648093D02*
X186385095Y-79648093D01*
X186385095Y-79648093D02*
X186480333Y-79600474D01*
X186480333Y-79600474D02*
X186527952Y-79552855D01*
X186527952Y-79552855D02*
X186575571Y-79457617D01*
X186575571Y-79457617D02*
X186623190Y-79267141D01*
X186623190Y-79267141D02*
X186670809Y-79171903D01*
X186670809Y-79171903D02*
X186718428Y-79124284D01*
X186718428Y-79124284D02*
X186813666Y-79076665D01*
X186813666Y-79076665D02*
X186908904Y-79076665D01*
X186908904Y-79076665D02*
X187004142Y-79124284D01*
X187004142Y-79124284D02*
X187051761Y-79171903D01*
X187051761Y-79171903D02*
X187099380Y-79267141D01*
X187099380Y-79267141D02*
X187099380Y-79505236D01*
X187099380Y-79505236D02*
X187051761Y-79648093D01*
X181799380Y-84695712D02*
X182275571Y-84362379D01*
X181799380Y-84124284D02*
X182799380Y-84124284D01*
X182799380Y-84124284D02*
X182799380Y-84505236D01*
X182799380Y-84505236D02*
X182751761Y-84600474D01*
X182751761Y-84600474D02*
X182704142Y-84648093D01*
X182704142Y-84648093D02*
X182608904Y-84695712D01*
X182608904Y-84695712D02*
X182466047Y-84695712D01*
X182466047Y-84695712D02*
X182370809Y-84648093D01*
X182370809Y-84648093D02*
X182323190Y-84600474D01*
X182323190Y-84600474D02*
X182275571Y-84505236D01*
X182275571Y-84505236D02*
X182275571Y-84124284D01*
D13*
X172153342Y-113898219D02*
X171820009Y-113422028D01*
X171581914Y-113898219D02*
X171581914Y-112898219D01*
X171581914Y-112898219D02*
X171962866Y-112898219D01*
X171962866Y-112898219D02*
X172058104Y-112945838D01*
X172058104Y-112945838D02*
X172105723Y-112993457D01*
X172105723Y-112993457D02*
X172153342Y-113088695D01*
X172153342Y-113088695D02*
X172153342Y-113231552D01*
X172153342Y-113231552D02*
X172105723Y-113326790D01*
X172105723Y-113326790D02*
X172058104Y-113374409D01*
X172058104Y-113374409D02*
X171962866Y-113422028D01*
X171962866Y-113422028D02*
X171581914Y-113422028D01*
X173010485Y-113231552D02*
X173010485Y-113898219D01*
X172772390Y-112850600D02*
X172534295Y-113564885D01*
X172534295Y-113564885D02*
X173153342Y-113564885D01*
X173677152Y-113326790D02*
X173581914Y-113279171D01*
X173581914Y-113279171D02*
X173534295Y-113231552D01*
X173534295Y-113231552D02*
X173486676Y-113136314D01*
X173486676Y-113136314D02*
X173486676Y-113088695D01*
X173486676Y-113088695D02*
X173534295Y-112993457D01*
X173534295Y-112993457D02*
X173581914Y-112945838D01*
X173581914Y-112945838D02*
X173677152Y-112898219D01*
X173677152Y-112898219D02*
X173867628Y-112898219D01*
X173867628Y-112898219D02*
X173962866Y-112945838D01*
X173962866Y-112945838D02*
X174010485Y-112993457D01*
X174010485Y-112993457D02*
X174058104Y-113088695D01*
X174058104Y-113088695D02*
X174058104Y-113136314D01*
X174058104Y-113136314D02*
X174010485Y-113231552D01*
X174010485Y-113231552D02*
X173962866Y-113279171D01*
X173962866Y-113279171D02*
X173867628Y-113326790D01*
X173867628Y-113326790D02*
X173677152Y-113326790D01*
X173677152Y-113326790D02*
X173581914Y-113374409D01*
X173581914Y-113374409D02*
X173534295Y-113422028D01*
X173534295Y-113422028D02*
X173486676Y-113517266D01*
X173486676Y-113517266D02*
X173486676Y-113707742D01*
X173486676Y-113707742D02*
X173534295Y-113802980D01*
X173534295Y-113802980D02*
X173581914Y-113850600D01*
X173581914Y-113850600D02*
X173677152Y-113898219D01*
X173677152Y-113898219D02*
X173867628Y-113898219D01*
X173867628Y-113898219D02*
X173962866Y-113850600D01*
X173962866Y-113850600D02*
X174010485Y-113802980D01*
X174010485Y-113802980D02*
X174058104Y-113707742D01*
X174058104Y-113707742D02*
X174058104Y-113517266D01*
X174058104Y-113517266D02*
X174010485Y-113422028D01*
X174010485Y-113422028D02*
X173962866Y-113374409D01*
X173962866Y-113374409D02*
X173867628Y-113326790D01*
X117776666Y-96134819D02*
X117776666Y-96849104D01*
X117776666Y-96849104D02*
X117729047Y-96991961D01*
X117729047Y-96991961D02*
X117633809Y-97087200D01*
X117633809Y-97087200D02*
X117490952Y-97134819D01*
X117490952Y-97134819D02*
X117395714Y-97134819D01*
X118300476Y-97134819D02*
X118490952Y-97134819D01*
X118490952Y-97134819D02*
X118586190Y-97087200D01*
X118586190Y-97087200D02*
X118633809Y-97039580D01*
X118633809Y-97039580D02*
X118729047Y-96896723D01*
X118729047Y-96896723D02*
X118776666Y-96706247D01*
X118776666Y-96706247D02*
X118776666Y-96325295D01*
X118776666Y-96325295D02*
X118729047Y-96230057D01*
X118729047Y-96230057D02*
X118681428Y-96182438D01*
X118681428Y-96182438D02*
X118586190Y-96134819D01*
X118586190Y-96134819D02*
X118395714Y-96134819D01*
X118395714Y-96134819D02*
X118300476Y-96182438D01*
X118300476Y-96182438D02*
X118252857Y-96230057D01*
X118252857Y-96230057D02*
X118205238Y-96325295D01*
X118205238Y-96325295D02*
X118205238Y-96563390D01*
X118205238Y-96563390D02*
X118252857Y-96658628D01*
X118252857Y-96658628D02*
X118300476Y-96706247D01*
X118300476Y-96706247D02*
X118395714Y-96753866D01*
X118395714Y-96753866D02*
X118586190Y-96753866D01*
X118586190Y-96753866D02*
X118681428Y-96706247D01*
X118681428Y-96706247D02*
X118729047Y-96658628D01*
X118729047Y-96658628D02*
X118776666Y-96563390D01*
X108869942Y-101140419D02*
X108536609Y-100664228D01*
X108298514Y-101140419D02*
X108298514Y-100140419D01*
X108298514Y-100140419D02*
X108679466Y-100140419D01*
X108679466Y-100140419D02*
X108774704Y-100188038D01*
X108774704Y-100188038D02*
X108822323Y-100235657D01*
X108822323Y-100235657D02*
X108869942Y-100330895D01*
X108869942Y-100330895D02*
X108869942Y-100473752D01*
X108869942Y-100473752D02*
X108822323Y-100568990D01*
X108822323Y-100568990D02*
X108774704Y-100616609D01*
X108774704Y-100616609D02*
X108679466Y-100664228D01*
X108679466Y-100664228D02*
X108298514Y-100664228D01*
X109250895Y-100235657D02*
X109298514Y-100188038D01*
X109298514Y-100188038D02*
X109393752Y-100140419D01*
X109393752Y-100140419D02*
X109631847Y-100140419D01*
X109631847Y-100140419D02*
X109727085Y-100188038D01*
X109727085Y-100188038D02*
X109774704Y-100235657D01*
X109774704Y-100235657D02*
X109822323Y-100330895D01*
X109822323Y-100330895D02*
X109822323Y-100426133D01*
X109822323Y-100426133D02*
X109774704Y-100568990D01*
X109774704Y-100568990D02*
X109203276Y-101140419D01*
X109203276Y-101140419D02*
X109822323Y-101140419D01*
X110155657Y-100140419D02*
X110822323Y-100140419D01*
X110822323Y-100140419D02*
X110393752Y-101140419D01*
X150545895Y-101715219D02*
X150545895Y-102524742D01*
X150545895Y-102524742D02*
X150593514Y-102619980D01*
X150593514Y-102619980D02*
X150641133Y-102667600D01*
X150641133Y-102667600D02*
X150736371Y-102715219D01*
X150736371Y-102715219D02*
X150926847Y-102715219D01*
X150926847Y-102715219D02*
X151022085Y-102667600D01*
X151022085Y-102667600D02*
X151069704Y-102619980D01*
X151069704Y-102619980D02*
X151117323Y-102524742D01*
X151117323Y-102524742D02*
X151117323Y-101715219D01*
X151498276Y-101715219D02*
X152164942Y-101715219D01*
X152164942Y-101715219D02*
X151736371Y-102715219D01*
X102506542Y-106175980D02*
X102458923Y-106223600D01*
X102458923Y-106223600D02*
X102316066Y-106271219D01*
X102316066Y-106271219D02*
X102220828Y-106271219D01*
X102220828Y-106271219D02*
X102077971Y-106223600D01*
X102077971Y-106223600D02*
X101982733Y-106128361D01*
X101982733Y-106128361D02*
X101935114Y-106033123D01*
X101935114Y-106033123D02*
X101887495Y-105842647D01*
X101887495Y-105842647D02*
X101887495Y-105699790D01*
X101887495Y-105699790D02*
X101935114Y-105509314D01*
X101935114Y-105509314D02*
X101982733Y-105414076D01*
X101982733Y-105414076D02*
X102077971Y-105318838D01*
X102077971Y-105318838D02*
X102220828Y-105271219D01*
X102220828Y-105271219D02*
X102316066Y-105271219D01*
X102316066Y-105271219D02*
X102458923Y-105318838D01*
X102458923Y-105318838D02*
X102506542Y-105366457D01*
X103458923Y-106271219D02*
X102887495Y-106271219D01*
X103173209Y-106271219D02*
X103173209Y-105271219D01*
X103173209Y-105271219D02*
X103077971Y-105414076D01*
X103077971Y-105414076D02*
X102982733Y-105509314D01*
X102982733Y-105509314D02*
X102887495Y-105556933D01*
X103792257Y-105271219D02*
X104458923Y-105271219D01*
X104458923Y-105271219D02*
X104030352Y-106271219D01*
X100163333Y-142534819D02*
X99830000Y-142058628D01*
X99591905Y-142534819D02*
X99591905Y-141534819D01*
X99591905Y-141534819D02*
X99972857Y-141534819D01*
X99972857Y-141534819D02*
X100068095Y-141582438D01*
X100068095Y-141582438D02*
X100115714Y-141630057D01*
X100115714Y-141630057D02*
X100163333Y-141725295D01*
X100163333Y-141725295D02*
X100163333Y-141868152D01*
X100163333Y-141868152D02*
X100115714Y-141963390D01*
X100115714Y-141963390D02*
X100068095Y-142011009D01*
X100068095Y-142011009D02*
X99972857Y-142058628D01*
X99972857Y-142058628D02*
X99591905Y-142058628D01*
X100496667Y-141534819D02*
X101115714Y-141534819D01*
X101115714Y-141534819D02*
X100782381Y-141915771D01*
X100782381Y-141915771D02*
X100925238Y-141915771D01*
X100925238Y-141915771D02*
X101020476Y-141963390D01*
X101020476Y-141963390D02*
X101068095Y-142011009D01*
X101068095Y-142011009D02*
X101115714Y-142106247D01*
X101115714Y-142106247D02*
X101115714Y-142344342D01*
X101115714Y-142344342D02*
X101068095Y-142439580D01*
X101068095Y-142439580D02*
X101020476Y-142487200D01*
X101020476Y-142487200D02*
X100925238Y-142534819D01*
X100925238Y-142534819D02*
X100639524Y-142534819D01*
X100639524Y-142534819D02*
X100544286Y-142487200D01*
X100544286Y-142487200D02*
X100496667Y-142439580D01*
X132122942Y-110589219D02*
X131789609Y-110113028D01*
X131551514Y-110589219D02*
X131551514Y-109589219D01*
X131551514Y-109589219D02*
X131932466Y-109589219D01*
X131932466Y-109589219D02*
X132027704Y-109636838D01*
X132027704Y-109636838D02*
X132075323Y-109684457D01*
X132075323Y-109684457D02*
X132122942Y-109779695D01*
X132122942Y-109779695D02*
X132122942Y-109922552D01*
X132122942Y-109922552D02*
X132075323Y-110017790D01*
X132075323Y-110017790D02*
X132027704Y-110065409D01*
X132027704Y-110065409D02*
X131932466Y-110113028D01*
X131932466Y-110113028D02*
X131551514Y-110113028D01*
X133027704Y-109589219D02*
X132551514Y-109589219D01*
X132551514Y-109589219D02*
X132503895Y-110065409D01*
X132503895Y-110065409D02*
X132551514Y-110017790D01*
X132551514Y-110017790D02*
X132646752Y-109970171D01*
X132646752Y-109970171D02*
X132884847Y-109970171D01*
X132884847Y-109970171D02*
X132980085Y-110017790D01*
X132980085Y-110017790D02*
X133027704Y-110065409D01*
X133027704Y-110065409D02*
X133075323Y-110160647D01*
X133075323Y-110160647D02*
X133075323Y-110398742D01*
X133075323Y-110398742D02*
X133027704Y-110493980D01*
X133027704Y-110493980D02*
X132980085Y-110541600D01*
X132980085Y-110541600D02*
X132884847Y-110589219D01*
X132884847Y-110589219D02*
X132646752Y-110589219D01*
X132646752Y-110589219D02*
X132551514Y-110541600D01*
X132551514Y-110541600D02*
X132503895Y-110493980D01*
X134027704Y-110589219D02*
X133456276Y-110589219D01*
X133741990Y-110589219D02*
X133741990Y-109589219D01*
X133741990Y-109589219D02*
X133646752Y-109732076D01*
X133646752Y-109732076D02*
X133551514Y-109827314D01*
X133551514Y-109827314D02*
X133456276Y-109874933D01*
X123080542Y-115650180D02*
X123032923Y-115697800D01*
X123032923Y-115697800D02*
X122890066Y-115745419D01*
X122890066Y-115745419D02*
X122794828Y-115745419D01*
X122794828Y-115745419D02*
X122651971Y-115697800D01*
X122651971Y-115697800D02*
X122556733Y-115602561D01*
X122556733Y-115602561D02*
X122509114Y-115507323D01*
X122509114Y-115507323D02*
X122461495Y-115316847D01*
X122461495Y-115316847D02*
X122461495Y-115173990D01*
X122461495Y-115173990D02*
X122509114Y-114983514D01*
X122509114Y-114983514D02*
X122556733Y-114888276D01*
X122556733Y-114888276D02*
X122651971Y-114793038D01*
X122651971Y-114793038D02*
X122794828Y-114745419D01*
X122794828Y-114745419D02*
X122890066Y-114745419D01*
X122890066Y-114745419D02*
X123032923Y-114793038D01*
X123032923Y-114793038D02*
X123080542Y-114840657D01*
X123461495Y-114840657D02*
X123509114Y-114793038D01*
X123509114Y-114793038D02*
X123604352Y-114745419D01*
X123604352Y-114745419D02*
X123842447Y-114745419D01*
X123842447Y-114745419D02*
X123937685Y-114793038D01*
X123937685Y-114793038D02*
X123985304Y-114840657D01*
X123985304Y-114840657D02*
X124032923Y-114935895D01*
X124032923Y-114935895D02*
X124032923Y-115031133D01*
X124032923Y-115031133D02*
X123985304Y-115173990D01*
X123985304Y-115173990D02*
X123413876Y-115745419D01*
X123413876Y-115745419D02*
X124032923Y-115745419D01*
X124937685Y-114745419D02*
X124461495Y-114745419D01*
X124461495Y-114745419D02*
X124413876Y-115221609D01*
X124413876Y-115221609D02*
X124461495Y-115173990D01*
X124461495Y-115173990D02*
X124556733Y-115126371D01*
X124556733Y-115126371D02*
X124794828Y-115126371D01*
X124794828Y-115126371D02*
X124890066Y-115173990D01*
X124890066Y-115173990D02*
X124937685Y-115221609D01*
X124937685Y-115221609D02*
X124985304Y-115316847D01*
X124985304Y-115316847D02*
X124985304Y-115554942D01*
X124985304Y-115554942D02*
X124937685Y-115650180D01*
X124937685Y-115650180D02*
X124890066Y-115697800D01*
X124890066Y-115697800D02*
X124794828Y-115745419D01*
X124794828Y-115745419D02*
X124556733Y-115745419D01*
X124556733Y-115745419D02*
X124461495Y-115697800D01*
X124461495Y-115697800D02*
X124413876Y-115650180D01*
X117776666Y-73274819D02*
X117776666Y-73989104D01*
X117776666Y-73989104D02*
X117729047Y-74131961D01*
X117729047Y-74131961D02*
X117633809Y-74227200D01*
X117633809Y-74227200D02*
X117490952Y-74274819D01*
X117490952Y-74274819D02*
X117395714Y-74274819D01*
X118395714Y-73703390D02*
X118300476Y-73655771D01*
X118300476Y-73655771D02*
X118252857Y-73608152D01*
X118252857Y-73608152D02*
X118205238Y-73512914D01*
X118205238Y-73512914D02*
X118205238Y-73465295D01*
X118205238Y-73465295D02*
X118252857Y-73370057D01*
X118252857Y-73370057D02*
X118300476Y-73322438D01*
X118300476Y-73322438D02*
X118395714Y-73274819D01*
X118395714Y-73274819D02*
X118586190Y-73274819D01*
X118586190Y-73274819D02*
X118681428Y-73322438D01*
X118681428Y-73322438D02*
X118729047Y-73370057D01*
X118729047Y-73370057D02*
X118776666Y-73465295D01*
X118776666Y-73465295D02*
X118776666Y-73512914D01*
X118776666Y-73512914D02*
X118729047Y-73608152D01*
X118729047Y-73608152D02*
X118681428Y-73655771D01*
X118681428Y-73655771D02*
X118586190Y-73703390D01*
X118586190Y-73703390D02*
X118395714Y-73703390D01*
X118395714Y-73703390D02*
X118300476Y-73751009D01*
X118300476Y-73751009D02*
X118252857Y-73798628D01*
X118252857Y-73798628D02*
X118205238Y-73893866D01*
X118205238Y-73893866D02*
X118205238Y-74084342D01*
X118205238Y-74084342D02*
X118252857Y-74179580D01*
X118252857Y-74179580D02*
X118300476Y-74227200D01*
X118300476Y-74227200D02*
X118395714Y-74274819D01*
X118395714Y-74274819D02*
X118586190Y-74274819D01*
X118586190Y-74274819D02*
X118681428Y-74227200D01*
X118681428Y-74227200D02*
X118729047Y-74179580D01*
X118729047Y-74179580D02*
X118776666Y-74084342D01*
X118776666Y-74084342D02*
X118776666Y-73893866D01*
X118776666Y-73893866D02*
X118729047Y-73798628D01*
X118729047Y-73798628D02*
X118681428Y-73751009D01*
X118681428Y-73751009D02*
X118586190Y-73703390D01*
X104083695Y-120460419D02*
X104083695Y-121269942D01*
X104083695Y-121269942D02*
X104131314Y-121365180D01*
X104131314Y-121365180D02*
X104178933Y-121412800D01*
X104178933Y-121412800D02*
X104274171Y-121460419D01*
X104274171Y-121460419D02*
X104464647Y-121460419D01*
X104464647Y-121460419D02*
X104559885Y-121412800D01*
X104559885Y-121412800D02*
X104607504Y-121365180D01*
X104607504Y-121365180D02*
X104655123Y-121269942D01*
X104655123Y-121269942D02*
X104655123Y-120460419D01*
X105607504Y-120460419D02*
X105131314Y-120460419D01*
X105131314Y-120460419D02*
X105083695Y-120936609D01*
X105083695Y-120936609D02*
X105131314Y-120888990D01*
X105131314Y-120888990D02*
X105226552Y-120841371D01*
X105226552Y-120841371D02*
X105464647Y-120841371D01*
X105464647Y-120841371D02*
X105559885Y-120888990D01*
X105559885Y-120888990D02*
X105607504Y-120936609D01*
X105607504Y-120936609D02*
X105655123Y-121031847D01*
X105655123Y-121031847D02*
X105655123Y-121269942D01*
X105655123Y-121269942D02*
X105607504Y-121365180D01*
X105607504Y-121365180D02*
X105559885Y-121412800D01*
X105559885Y-121412800D02*
X105464647Y-121460419D01*
X105464647Y-121460419D02*
X105226552Y-121460419D01*
X105226552Y-121460419D02*
X105131314Y-121412800D01*
X105131314Y-121412800D02*
X105083695Y-121365180D01*
X125939295Y-121400219D02*
X125939295Y-122209742D01*
X125939295Y-122209742D02*
X125986914Y-122304980D01*
X125986914Y-122304980D02*
X126034533Y-122352600D01*
X126034533Y-122352600D02*
X126129771Y-122400219D01*
X126129771Y-122400219D02*
X126320247Y-122400219D01*
X126320247Y-122400219D02*
X126415485Y-122352600D01*
X126415485Y-122352600D02*
X126463104Y-122304980D01*
X126463104Y-122304980D02*
X126510723Y-122209742D01*
X126510723Y-122209742D02*
X126510723Y-121400219D01*
X127415485Y-121400219D02*
X127225009Y-121400219D01*
X127225009Y-121400219D02*
X127129771Y-121447838D01*
X127129771Y-121447838D02*
X127082152Y-121495457D01*
X127082152Y-121495457D02*
X126986914Y-121638314D01*
X126986914Y-121638314D02*
X126939295Y-121828790D01*
X126939295Y-121828790D02*
X126939295Y-122209742D01*
X126939295Y-122209742D02*
X126986914Y-122304980D01*
X126986914Y-122304980D02*
X127034533Y-122352600D01*
X127034533Y-122352600D02*
X127129771Y-122400219D01*
X127129771Y-122400219D02*
X127320247Y-122400219D01*
X127320247Y-122400219D02*
X127415485Y-122352600D01*
X127415485Y-122352600D02*
X127463104Y-122304980D01*
X127463104Y-122304980D02*
X127510723Y-122209742D01*
X127510723Y-122209742D02*
X127510723Y-121971647D01*
X127510723Y-121971647D02*
X127463104Y-121876409D01*
X127463104Y-121876409D02*
X127415485Y-121828790D01*
X127415485Y-121828790D02*
X127320247Y-121781171D01*
X127320247Y-121781171D02*
X127129771Y-121781171D01*
X127129771Y-121781171D02*
X127034533Y-121828790D01*
X127034533Y-121828790D02*
X126986914Y-121876409D01*
X126986914Y-121876409D02*
X126939295Y-121971647D01*
D11*
X178214380Y-114840066D02*
X177500095Y-114840066D01*
X177500095Y-114840066D02*
X177357238Y-114792447D01*
X177357238Y-114792447D02*
X177262000Y-114697209D01*
X177262000Y-114697209D02*
X177214380Y-114554352D01*
X177214380Y-114554352D02*
X177214380Y-114459114D01*
X178119142Y-115268638D02*
X178166761Y-115316257D01*
X178166761Y-115316257D02*
X178214380Y-115411495D01*
X178214380Y-115411495D02*
X178214380Y-115649590D01*
X178214380Y-115649590D02*
X178166761Y-115744828D01*
X178166761Y-115744828D02*
X178119142Y-115792447D01*
X178119142Y-115792447D02*
X178023904Y-115840066D01*
X178023904Y-115840066D02*
X177928666Y-115840066D01*
X177928666Y-115840066D02*
X177785809Y-115792447D01*
X177785809Y-115792447D02*
X177214380Y-115221019D01*
X177214380Y-115221019D02*
X177214380Y-115840066D01*
X186147000Y-114629665D02*
X186099380Y-114772522D01*
X186099380Y-114772522D02*
X186099380Y-115010617D01*
X186099380Y-115010617D02*
X186147000Y-115105855D01*
X186147000Y-115105855D02*
X186194619Y-115153474D01*
X186194619Y-115153474D02*
X186289857Y-115201093D01*
X186289857Y-115201093D02*
X186385095Y-115201093D01*
X186385095Y-115201093D02*
X186480333Y-115153474D01*
X186480333Y-115153474D02*
X186527952Y-115105855D01*
X186527952Y-115105855D02*
X186575571Y-115010617D01*
X186575571Y-115010617D02*
X186623190Y-114820141D01*
X186623190Y-114820141D02*
X186670809Y-114724903D01*
X186670809Y-114724903D02*
X186718428Y-114677284D01*
X186718428Y-114677284D02*
X186813666Y-114629665D01*
X186813666Y-114629665D02*
X186908904Y-114629665D01*
X186908904Y-114629665D02*
X187004142Y-114677284D01*
X187004142Y-114677284D02*
X187051761Y-114724903D01*
X187051761Y-114724903D02*
X187099380Y-114820141D01*
X187099380Y-114820141D02*
X187099380Y-115058236D01*
X187099380Y-115058236D02*
X187051761Y-115201093D01*
X182899380Y-109334427D02*
X182899380Y-109905855D01*
X181899380Y-109620141D02*
X182899380Y-109620141D01*
X181799380Y-120248712D02*
X182275571Y-119915379D01*
X181799380Y-119677284D02*
X182799380Y-119677284D01*
X182799380Y-119677284D02*
X182799380Y-120058236D01*
X182799380Y-120058236D02*
X182751761Y-120153474D01*
X182751761Y-120153474D02*
X182704142Y-120201093D01*
X182704142Y-120201093D02*
X182608904Y-120248712D01*
X182608904Y-120248712D02*
X182466047Y-120248712D01*
X182466047Y-120248712D02*
X182370809Y-120201093D01*
X182370809Y-120201093D02*
X182323190Y-120153474D01*
X182323190Y-120153474D02*
X182275571Y-120058236D01*
X182275571Y-120058236D02*
X182275571Y-119677284D01*
D13*
X122928142Y-95933419D02*
X122594809Y-95457228D01*
X122356714Y-95933419D02*
X122356714Y-94933419D01*
X122356714Y-94933419D02*
X122737666Y-94933419D01*
X122737666Y-94933419D02*
X122832904Y-94981038D01*
X122832904Y-94981038D02*
X122880523Y-95028657D01*
X122880523Y-95028657D02*
X122928142Y-95123895D01*
X122928142Y-95123895D02*
X122928142Y-95266752D01*
X122928142Y-95266752D02*
X122880523Y-95361990D01*
X122880523Y-95361990D02*
X122832904Y-95409609D01*
X122832904Y-95409609D02*
X122737666Y-95457228D01*
X122737666Y-95457228D02*
X122356714Y-95457228D01*
X123785285Y-95266752D02*
X123785285Y-95933419D01*
X123547190Y-94885800D02*
X123309095Y-95600085D01*
X123309095Y-95600085D02*
X123928142Y-95600085D01*
X124785285Y-94933419D02*
X124309095Y-94933419D01*
X124309095Y-94933419D02*
X124261476Y-95409609D01*
X124261476Y-95409609D02*
X124309095Y-95361990D01*
X124309095Y-95361990D02*
X124404333Y-95314371D01*
X124404333Y-95314371D02*
X124642428Y-95314371D01*
X124642428Y-95314371D02*
X124737666Y-95361990D01*
X124737666Y-95361990D02*
X124785285Y-95409609D01*
X124785285Y-95409609D02*
X124832904Y-95504847D01*
X124832904Y-95504847D02*
X124832904Y-95742942D01*
X124832904Y-95742942D02*
X124785285Y-95838180D01*
X124785285Y-95838180D02*
X124737666Y-95885800D01*
X124737666Y-95885800D02*
X124642428Y-95933419D01*
X124642428Y-95933419D02*
X124404333Y-95933419D01*
X124404333Y-95933419D02*
X124309095Y-95885800D01*
X124309095Y-95885800D02*
X124261476Y-95838180D01*
X126708342Y-115802580D02*
X126660723Y-115850200D01*
X126660723Y-115850200D02*
X126517866Y-115897819D01*
X126517866Y-115897819D02*
X126422628Y-115897819D01*
X126422628Y-115897819D02*
X126279771Y-115850200D01*
X126279771Y-115850200D02*
X126184533Y-115754961D01*
X126184533Y-115754961D02*
X126136914Y-115659723D01*
X126136914Y-115659723D02*
X126089295Y-115469247D01*
X126089295Y-115469247D02*
X126089295Y-115326390D01*
X126089295Y-115326390D02*
X126136914Y-115135914D01*
X126136914Y-115135914D02*
X126184533Y-115040676D01*
X126184533Y-115040676D02*
X126279771Y-114945438D01*
X126279771Y-114945438D02*
X126422628Y-114897819D01*
X126422628Y-114897819D02*
X126517866Y-114897819D01*
X126517866Y-114897819D02*
X126660723Y-114945438D01*
X126660723Y-114945438D02*
X126708342Y-114993057D01*
X127089295Y-114993057D02*
X127136914Y-114945438D01*
X127136914Y-114945438D02*
X127232152Y-114897819D01*
X127232152Y-114897819D02*
X127470247Y-114897819D01*
X127470247Y-114897819D02*
X127565485Y-114945438D01*
X127565485Y-114945438D02*
X127613104Y-114993057D01*
X127613104Y-114993057D02*
X127660723Y-115088295D01*
X127660723Y-115088295D02*
X127660723Y-115183533D01*
X127660723Y-115183533D02*
X127613104Y-115326390D01*
X127613104Y-115326390D02*
X127041676Y-115897819D01*
X127041676Y-115897819D02*
X127660723Y-115897819D01*
X128517866Y-114897819D02*
X128327390Y-114897819D01*
X128327390Y-114897819D02*
X128232152Y-114945438D01*
X128232152Y-114945438D02*
X128184533Y-114993057D01*
X128184533Y-114993057D02*
X128089295Y-115135914D01*
X128089295Y-115135914D02*
X128041676Y-115326390D01*
X128041676Y-115326390D02*
X128041676Y-115707342D01*
X128041676Y-115707342D02*
X128089295Y-115802580D01*
X128089295Y-115802580D02*
X128136914Y-115850200D01*
X128136914Y-115850200D02*
X128232152Y-115897819D01*
X128232152Y-115897819D02*
X128422628Y-115897819D01*
X128422628Y-115897819D02*
X128517866Y-115850200D01*
X128517866Y-115850200D02*
X128565485Y-115802580D01*
X128565485Y-115802580D02*
X128613104Y-115707342D01*
X128613104Y-115707342D02*
X128613104Y-115469247D01*
X128613104Y-115469247D02*
X128565485Y-115374009D01*
X128565485Y-115374009D02*
X128517866Y-115326390D01*
X128517866Y-115326390D02*
X128422628Y-115278771D01*
X128422628Y-115278771D02*
X128232152Y-115278771D01*
X128232152Y-115278771D02*
X128136914Y-115326390D01*
X128136914Y-115326390D02*
X128089295Y-115374009D01*
X128089295Y-115374009D02*
X128041676Y-115469247D01*
X103979742Y-103045419D02*
X103646409Y-102569228D01*
X103408314Y-103045419D02*
X103408314Y-102045419D01*
X103408314Y-102045419D02*
X103789266Y-102045419D01*
X103789266Y-102045419D02*
X103884504Y-102093038D01*
X103884504Y-102093038D02*
X103932123Y-102140657D01*
X103932123Y-102140657D02*
X103979742Y-102235895D01*
X103979742Y-102235895D02*
X103979742Y-102378752D01*
X103979742Y-102378752D02*
X103932123Y-102473990D01*
X103932123Y-102473990D02*
X103884504Y-102521609D01*
X103884504Y-102521609D02*
X103789266Y-102569228D01*
X103789266Y-102569228D02*
X103408314Y-102569228D01*
X104360695Y-102140657D02*
X104408314Y-102093038D01*
X104408314Y-102093038D02*
X104503552Y-102045419D01*
X104503552Y-102045419D02*
X104741647Y-102045419D01*
X104741647Y-102045419D02*
X104836885Y-102093038D01*
X104836885Y-102093038D02*
X104884504Y-102140657D01*
X104884504Y-102140657D02*
X104932123Y-102235895D01*
X104932123Y-102235895D02*
X104932123Y-102331133D01*
X104932123Y-102331133D02*
X104884504Y-102473990D01*
X104884504Y-102473990D02*
X104313076Y-103045419D01*
X104313076Y-103045419D02*
X104932123Y-103045419D01*
X105789266Y-102045419D02*
X105598790Y-102045419D01*
X105598790Y-102045419D02*
X105503552Y-102093038D01*
X105503552Y-102093038D02*
X105455933Y-102140657D01*
X105455933Y-102140657D02*
X105360695Y-102283514D01*
X105360695Y-102283514D02*
X105313076Y-102473990D01*
X105313076Y-102473990D02*
X105313076Y-102854942D01*
X105313076Y-102854942D02*
X105360695Y-102950180D01*
X105360695Y-102950180D02*
X105408314Y-102997800D01*
X105408314Y-102997800D02*
X105503552Y-103045419D01*
X105503552Y-103045419D02*
X105694028Y-103045419D01*
X105694028Y-103045419D02*
X105789266Y-102997800D01*
X105789266Y-102997800D02*
X105836885Y-102950180D01*
X105836885Y-102950180D02*
X105884504Y-102854942D01*
X105884504Y-102854942D02*
X105884504Y-102616847D01*
X105884504Y-102616847D02*
X105836885Y-102521609D01*
X105836885Y-102521609D02*
X105789266Y-102473990D01*
X105789266Y-102473990D02*
X105694028Y-102426371D01*
X105694028Y-102426371D02*
X105503552Y-102426371D01*
X105503552Y-102426371D02*
X105408314Y-102473990D01*
X105408314Y-102473990D02*
X105360695Y-102521609D01*
X105360695Y-102521609D02*
X105313076Y-102616847D01*
X157726142Y-118590219D02*
X157392809Y-118114028D01*
X157154714Y-118590219D02*
X157154714Y-117590219D01*
X157154714Y-117590219D02*
X157535666Y-117590219D01*
X157535666Y-117590219D02*
X157630904Y-117637838D01*
X157630904Y-117637838D02*
X157678523Y-117685457D01*
X157678523Y-117685457D02*
X157726142Y-117780695D01*
X157726142Y-117780695D02*
X157726142Y-117923552D01*
X157726142Y-117923552D02*
X157678523Y-118018790D01*
X157678523Y-118018790D02*
X157630904Y-118066409D01*
X157630904Y-118066409D02*
X157535666Y-118114028D01*
X157535666Y-118114028D02*
X157154714Y-118114028D01*
X158583285Y-117923552D02*
X158583285Y-118590219D01*
X158345190Y-117542600D02*
X158107095Y-118256885D01*
X158107095Y-118256885D02*
X158726142Y-118256885D01*
X159297571Y-117590219D02*
X159392809Y-117590219D01*
X159392809Y-117590219D02*
X159488047Y-117637838D01*
X159488047Y-117637838D02*
X159535666Y-117685457D01*
X159535666Y-117685457D02*
X159583285Y-117780695D01*
X159583285Y-117780695D02*
X159630904Y-117971171D01*
X159630904Y-117971171D02*
X159630904Y-118209266D01*
X159630904Y-118209266D02*
X159583285Y-118399742D01*
X159583285Y-118399742D02*
X159535666Y-118494980D01*
X159535666Y-118494980D02*
X159488047Y-118542600D01*
X159488047Y-118542600D02*
X159392809Y-118590219D01*
X159392809Y-118590219D02*
X159297571Y-118590219D01*
X159297571Y-118590219D02*
X159202333Y-118542600D01*
X159202333Y-118542600D02*
X159154714Y-118494980D01*
X159154714Y-118494980D02*
X159107095Y-118399742D01*
X159107095Y-118399742D02*
X159059476Y-118209266D01*
X159059476Y-118209266D02*
X159059476Y-117971171D01*
X159059476Y-117971171D02*
X159107095Y-117780695D01*
X159107095Y-117780695D02*
X159154714Y-117685457D01*
X159154714Y-117685457D02*
X159202333Y-117637838D01*
X159202333Y-117637838D02*
X159297571Y-117590219D01*
X178903333Y-69194819D02*
X178570000Y-68718628D01*
X178331905Y-69194819D02*
X178331905Y-68194819D01*
X178331905Y-68194819D02*
X178712857Y-68194819D01*
X178712857Y-68194819D02*
X178808095Y-68242438D01*
X178808095Y-68242438D02*
X178855714Y-68290057D01*
X178855714Y-68290057D02*
X178903333Y-68385295D01*
X178903333Y-68385295D02*
X178903333Y-68528152D01*
X178903333Y-68528152D02*
X178855714Y-68623390D01*
X178855714Y-68623390D02*
X178808095Y-68671009D01*
X178808095Y-68671009D02*
X178712857Y-68718628D01*
X178712857Y-68718628D02*
X178331905Y-68718628D01*
X179808095Y-68194819D02*
X179331905Y-68194819D01*
X179331905Y-68194819D02*
X179284286Y-68671009D01*
X179284286Y-68671009D02*
X179331905Y-68623390D01*
X179331905Y-68623390D02*
X179427143Y-68575771D01*
X179427143Y-68575771D02*
X179665238Y-68575771D01*
X179665238Y-68575771D02*
X179760476Y-68623390D01*
X179760476Y-68623390D02*
X179808095Y-68671009D01*
X179808095Y-68671009D02*
X179855714Y-68766247D01*
X179855714Y-68766247D02*
X179855714Y-69004342D01*
X179855714Y-69004342D02*
X179808095Y-69099580D01*
X179808095Y-69099580D02*
X179760476Y-69147200D01*
X179760476Y-69147200D02*
X179665238Y-69194819D01*
X179665238Y-69194819D02*
X179427143Y-69194819D01*
X179427143Y-69194819D02*
X179331905Y-69147200D01*
X179331905Y-69147200D02*
X179284286Y-69099580D01*
X100702542Y-121612819D02*
X100369209Y-121136628D01*
X100131114Y-121612819D02*
X100131114Y-120612819D01*
X100131114Y-120612819D02*
X100512066Y-120612819D01*
X100512066Y-120612819D02*
X100607304Y-120660438D01*
X100607304Y-120660438D02*
X100654923Y-120708057D01*
X100654923Y-120708057D02*
X100702542Y-120803295D01*
X100702542Y-120803295D02*
X100702542Y-120946152D01*
X100702542Y-120946152D02*
X100654923Y-121041390D01*
X100654923Y-121041390D02*
X100607304Y-121089009D01*
X100607304Y-121089009D02*
X100512066Y-121136628D01*
X100512066Y-121136628D02*
X100131114Y-121136628D01*
X101035876Y-120612819D02*
X101654923Y-120612819D01*
X101654923Y-120612819D02*
X101321590Y-120993771D01*
X101321590Y-120993771D02*
X101464447Y-120993771D01*
X101464447Y-120993771D02*
X101559685Y-121041390D01*
X101559685Y-121041390D02*
X101607304Y-121089009D01*
X101607304Y-121089009D02*
X101654923Y-121184247D01*
X101654923Y-121184247D02*
X101654923Y-121422342D01*
X101654923Y-121422342D02*
X101607304Y-121517580D01*
X101607304Y-121517580D02*
X101559685Y-121565200D01*
X101559685Y-121565200D02*
X101464447Y-121612819D01*
X101464447Y-121612819D02*
X101178733Y-121612819D01*
X101178733Y-121612819D02*
X101083495Y-121565200D01*
X101083495Y-121565200D02*
X101035876Y-121517580D01*
X101988257Y-120612819D02*
X102607304Y-120612819D01*
X102607304Y-120612819D02*
X102273971Y-120993771D01*
X102273971Y-120993771D02*
X102416828Y-120993771D01*
X102416828Y-120993771D02*
X102512066Y-121041390D01*
X102512066Y-121041390D02*
X102559685Y-121089009D01*
X102559685Y-121089009D02*
X102607304Y-121184247D01*
X102607304Y-121184247D02*
X102607304Y-121422342D01*
X102607304Y-121422342D02*
X102559685Y-121517580D01*
X102559685Y-121517580D02*
X102512066Y-121565200D01*
X102512066Y-121565200D02*
X102416828Y-121612819D01*
X102416828Y-121612819D02*
X102131114Y-121612819D01*
X102131114Y-121612819D02*
X102035876Y-121565200D01*
X102035876Y-121565200D02*
X101988257Y-121517580D01*
X104690942Y-138656219D02*
X104357609Y-138180028D01*
X104119514Y-138656219D02*
X104119514Y-137656219D01*
X104119514Y-137656219D02*
X104500466Y-137656219D01*
X104500466Y-137656219D02*
X104595704Y-137703838D01*
X104595704Y-137703838D02*
X104643323Y-137751457D01*
X104643323Y-137751457D02*
X104690942Y-137846695D01*
X104690942Y-137846695D02*
X104690942Y-137989552D01*
X104690942Y-137989552D02*
X104643323Y-138084790D01*
X104643323Y-138084790D02*
X104595704Y-138132409D01*
X104595704Y-138132409D02*
X104500466Y-138180028D01*
X104500466Y-138180028D02*
X104119514Y-138180028D01*
X105071895Y-137751457D02*
X105119514Y-137703838D01*
X105119514Y-137703838D02*
X105214752Y-137656219D01*
X105214752Y-137656219D02*
X105452847Y-137656219D01*
X105452847Y-137656219D02*
X105548085Y-137703838D01*
X105548085Y-137703838D02*
X105595704Y-137751457D01*
X105595704Y-137751457D02*
X105643323Y-137846695D01*
X105643323Y-137846695D02*
X105643323Y-137941933D01*
X105643323Y-137941933D02*
X105595704Y-138084790D01*
X105595704Y-138084790D02*
X105024276Y-138656219D01*
X105024276Y-138656219D02*
X105643323Y-138656219D01*
X106119514Y-138656219D02*
X106309990Y-138656219D01*
X106309990Y-138656219D02*
X106405228Y-138608600D01*
X106405228Y-138608600D02*
X106452847Y-138560980D01*
X106452847Y-138560980D02*
X106548085Y-138418123D01*
X106548085Y-138418123D02*
X106595704Y-138227647D01*
X106595704Y-138227647D02*
X106595704Y-137846695D01*
X106595704Y-137846695D02*
X106548085Y-137751457D01*
X106548085Y-137751457D02*
X106500466Y-137703838D01*
X106500466Y-137703838D02*
X106405228Y-137656219D01*
X106405228Y-137656219D02*
X106214752Y-137656219D01*
X106214752Y-137656219D02*
X106119514Y-137703838D01*
X106119514Y-137703838D02*
X106071895Y-137751457D01*
X106071895Y-137751457D02*
X106024276Y-137846695D01*
X106024276Y-137846695D02*
X106024276Y-138084790D01*
X106024276Y-138084790D02*
X106071895Y-138180028D01*
X106071895Y-138180028D02*
X106119514Y-138227647D01*
X106119514Y-138227647D02*
X106214752Y-138275266D01*
X106214752Y-138275266D02*
X106405228Y-138275266D01*
X106405228Y-138275266D02*
X106500466Y-138227647D01*
X106500466Y-138227647D02*
X106548085Y-138180028D01*
X106548085Y-138180028D02*
X106595704Y-138084790D01*
X108602542Y-82807980D02*
X108554923Y-82855600D01*
X108554923Y-82855600D02*
X108412066Y-82903219D01*
X108412066Y-82903219D02*
X108316828Y-82903219D01*
X108316828Y-82903219D02*
X108173971Y-82855600D01*
X108173971Y-82855600D02*
X108078733Y-82760361D01*
X108078733Y-82760361D02*
X108031114Y-82665123D01*
X108031114Y-82665123D02*
X107983495Y-82474647D01*
X107983495Y-82474647D02*
X107983495Y-82331790D01*
X107983495Y-82331790D02*
X108031114Y-82141314D01*
X108031114Y-82141314D02*
X108078733Y-82046076D01*
X108078733Y-82046076D02*
X108173971Y-81950838D01*
X108173971Y-81950838D02*
X108316828Y-81903219D01*
X108316828Y-81903219D02*
X108412066Y-81903219D01*
X108412066Y-81903219D02*
X108554923Y-81950838D01*
X108554923Y-81950838D02*
X108602542Y-81998457D01*
X108935876Y-81903219D02*
X109554923Y-81903219D01*
X109554923Y-81903219D02*
X109221590Y-82284171D01*
X109221590Y-82284171D02*
X109364447Y-82284171D01*
X109364447Y-82284171D02*
X109459685Y-82331790D01*
X109459685Y-82331790D02*
X109507304Y-82379409D01*
X109507304Y-82379409D02*
X109554923Y-82474647D01*
X109554923Y-82474647D02*
X109554923Y-82712742D01*
X109554923Y-82712742D02*
X109507304Y-82807980D01*
X109507304Y-82807980D02*
X109459685Y-82855600D01*
X109459685Y-82855600D02*
X109364447Y-82903219D01*
X109364447Y-82903219D02*
X109078733Y-82903219D01*
X109078733Y-82903219D02*
X108983495Y-82855600D01*
X108983495Y-82855600D02*
X108935876Y-82807980D01*
X110173971Y-81903219D02*
X110269209Y-81903219D01*
X110269209Y-81903219D02*
X110364447Y-81950838D01*
X110364447Y-81950838D02*
X110412066Y-81998457D01*
X110412066Y-81998457D02*
X110459685Y-82093695D01*
X110459685Y-82093695D02*
X110507304Y-82284171D01*
X110507304Y-82284171D02*
X110507304Y-82522266D01*
X110507304Y-82522266D02*
X110459685Y-82712742D01*
X110459685Y-82712742D02*
X110412066Y-82807980D01*
X110412066Y-82807980D02*
X110364447Y-82855600D01*
X110364447Y-82855600D02*
X110269209Y-82903219D01*
X110269209Y-82903219D02*
X110173971Y-82903219D01*
X110173971Y-82903219D02*
X110078733Y-82855600D01*
X110078733Y-82855600D02*
X110031114Y-82807980D01*
X110031114Y-82807980D02*
X109983495Y-82712742D01*
X109983495Y-82712742D02*
X109935876Y-82522266D01*
X109935876Y-82522266D02*
X109935876Y-82284171D01*
X109935876Y-82284171D02*
X109983495Y-82093695D01*
X109983495Y-82093695D02*
X110031114Y-81998457D01*
X110031114Y-81998457D02*
X110078733Y-81950838D01*
X110078733Y-81950838D02*
X110173971Y-81903219D01*
X108551742Y-86211580D02*
X108504123Y-86259200D01*
X108504123Y-86259200D02*
X108361266Y-86306819D01*
X108361266Y-86306819D02*
X108266028Y-86306819D01*
X108266028Y-86306819D02*
X108123171Y-86259200D01*
X108123171Y-86259200D02*
X108027933Y-86163961D01*
X108027933Y-86163961D02*
X107980314Y-86068723D01*
X107980314Y-86068723D02*
X107932695Y-85878247D01*
X107932695Y-85878247D02*
X107932695Y-85735390D01*
X107932695Y-85735390D02*
X107980314Y-85544914D01*
X107980314Y-85544914D02*
X108027933Y-85449676D01*
X108027933Y-85449676D02*
X108123171Y-85354438D01*
X108123171Y-85354438D02*
X108266028Y-85306819D01*
X108266028Y-85306819D02*
X108361266Y-85306819D01*
X108361266Y-85306819D02*
X108504123Y-85354438D01*
X108504123Y-85354438D02*
X108551742Y-85402057D01*
X108932695Y-85402057D02*
X108980314Y-85354438D01*
X108980314Y-85354438D02*
X109075552Y-85306819D01*
X109075552Y-85306819D02*
X109313647Y-85306819D01*
X109313647Y-85306819D02*
X109408885Y-85354438D01*
X109408885Y-85354438D02*
X109456504Y-85402057D01*
X109456504Y-85402057D02*
X109504123Y-85497295D01*
X109504123Y-85497295D02*
X109504123Y-85592533D01*
X109504123Y-85592533D02*
X109456504Y-85735390D01*
X109456504Y-85735390D02*
X108885076Y-86306819D01*
X108885076Y-86306819D02*
X109504123Y-86306819D01*
X109837457Y-85306819D02*
X110504123Y-85306819D01*
X110504123Y-85306819D02*
X110075552Y-86306819D01*
X109431295Y-90008819D02*
X110002723Y-90008819D01*
X109717009Y-91008819D02*
X109717009Y-90008819D01*
X110336057Y-91008819D02*
X110336057Y-90008819D01*
X110336057Y-90008819D02*
X110717009Y-90008819D01*
X110717009Y-90008819D02*
X110812247Y-90056438D01*
X110812247Y-90056438D02*
X110859866Y-90104057D01*
X110859866Y-90104057D02*
X110907485Y-90199295D01*
X110907485Y-90199295D02*
X110907485Y-90342152D01*
X110907485Y-90342152D02*
X110859866Y-90437390D01*
X110859866Y-90437390D02*
X110812247Y-90485009D01*
X110812247Y-90485009D02*
X110717009Y-90532628D01*
X110717009Y-90532628D02*
X110336057Y-90532628D01*
X111288438Y-90104057D02*
X111336057Y-90056438D01*
X111336057Y-90056438D02*
X111431295Y-90008819D01*
X111431295Y-90008819D02*
X111669390Y-90008819D01*
X111669390Y-90008819D02*
X111764628Y-90056438D01*
X111764628Y-90056438D02*
X111812247Y-90104057D01*
X111812247Y-90104057D02*
X111859866Y-90199295D01*
X111859866Y-90199295D02*
X111859866Y-90294533D01*
X111859866Y-90294533D02*
X111812247Y-90437390D01*
X111812247Y-90437390D02*
X111240819Y-91008819D01*
X111240819Y-91008819D02*
X111859866Y-91008819D01*
X153306542Y-101984980D02*
X153258923Y-102032600D01*
X153258923Y-102032600D02*
X153116066Y-102080219D01*
X153116066Y-102080219D02*
X153020828Y-102080219D01*
X153020828Y-102080219D02*
X152877971Y-102032600D01*
X152877971Y-102032600D02*
X152782733Y-101937361D01*
X152782733Y-101937361D02*
X152735114Y-101842123D01*
X152735114Y-101842123D02*
X152687495Y-101651647D01*
X152687495Y-101651647D02*
X152687495Y-101508790D01*
X152687495Y-101508790D02*
X152735114Y-101318314D01*
X152735114Y-101318314D02*
X152782733Y-101223076D01*
X152782733Y-101223076D02*
X152877971Y-101127838D01*
X152877971Y-101127838D02*
X153020828Y-101080219D01*
X153020828Y-101080219D02*
X153116066Y-101080219D01*
X153116066Y-101080219D02*
X153258923Y-101127838D01*
X153258923Y-101127838D02*
X153306542Y-101175457D01*
X153639876Y-101080219D02*
X154258923Y-101080219D01*
X154258923Y-101080219D02*
X153925590Y-101461171D01*
X153925590Y-101461171D02*
X154068447Y-101461171D01*
X154068447Y-101461171D02*
X154163685Y-101508790D01*
X154163685Y-101508790D02*
X154211304Y-101556409D01*
X154211304Y-101556409D02*
X154258923Y-101651647D01*
X154258923Y-101651647D02*
X154258923Y-101889742D01*
X154258923Y-101889742D02*
X154211304Y-101984980D01*
X154211304Y-101984980D02*
X154163685Y-102032600D01*
X154163685Y-102032600D02*
X154068447Y-102080219D01*
X154068447Y-102080219D02*
X153782733Y-102080219D01*
X153782733Y-102080219D02*
X153687495Y-102032600D01*
X153687495Y-102032600D02*
X153639876Y-101984980D01*
X155211304Y-102080219D02*
X154639876Y-102080219D01*
X154925590Y-102080219D02*
X154925590Y-101080219D01*
X154925590Y-101080219D02*
X154830352Y-101223076D01*
X154830352Y-101223076D02*
X154735114Y-101318314D01*
X154735114Y-101318314D02*
X154639876Y-101365933D01*
X108907742Y-113332419D02*
X108574409Y-112856228D01*
X108336314Y-113332419D02*
X108336314Y-112332419D01*
X108336314Y-112332419D02*
X108717266Y-112332419D01*
X108717266Y-112332419D02*
X108812504Y-112380038D01*
X108812504Y-112380038D02*
X108860123Y-112427657D01*
X108860123Y-112427657D02*
X108907742Y-112522895D01*
X108907742Y-112522895D02*
X108907742Y-112665752D01*
X108907742Y-112665752D02*
X108860123Y-112760990D01*
X108860123Y-112760990D02*
X108812504Y-112808609D01*
X108812504Y-112808609D02*
X108717266Y-112856228D01*
X108717266Y-112856228D02*
X108336314Y-112856228D01*
X109288695Y-112427657D02*
X109336314Y-112380038D01*
X109336314Y-112380038D02*
X109431552Y-112332419D01*
X109431552Y-112332419D02*
X109669647Y-112332419D01*
X109669647Y-112332419D02*
X109764885Y-112380038D01*
X109764885Y-112380038D02*
X109812504Y-112427657D01*
X109812504Y-112427657D02*
X109860123Y-112522895D01*
X109860123Y-112522895D02*
X109860123Y-112618133D01*
X109860123Y-112618133D02*
X109812504Y-112760990D01*
X109812504Y-112760990D02*
X109241076Y-113332419D01*
X109241076Y-113332419D02*
X109860123Y-113332419D01*
X110717266Y-112665752D02*
X110717266Y-113332419D01*
X110479171Y-112284800D02*
X110241076Y-112999085D01*
X110241076Y-112999085D02*
X110860123Y-112999085D01*
X172026342Y-121772819D02*
X171693009Y-121296628D01*
X171454914Y-121772819D02*
X171454914Y-120772819D01*
X171454914Y-120772819D02*
X171835866Y-120772819D01*
X171835866Y-120772819D02*
X171931104Y-120820438D01*
X171931104Y-120820438D02*
X171978723Y-120868057D01*
X171978723Y-120868057D02*
X172026342Y-120963295D01*
X172026342Y-120963295D02*
X172026342Y-121106152D01*
X172026342Y-121106152D02*
X171978723Y-121201390D01*
X171978723Y-121201390D02*
X171931104Y-121249009D01*
X171931104Y-121249009D02*
X171835866Y-121296628D01*
X171835866Y-121296628D02*
X171454914Y-121296628D01*
X172359676Y-120772819D02*
X172978723Y-120772819D01*
X172978723Y-120772819D02*
X172645390Y-121153771D01*
X172645390Y-121153771D02*
X172788247Y-121153771D01*
X172788247Y-121153771D02*
X172883485Y-121201390D01*
X172883485Y-121201390D02*
X172931104Y-121249009D01*
X172931104Y-121249009D02*
X172978723Y-121344247D01*
X172978723Y-121344247D02*
X172978723Y-121582342D01*
X172978723Y-121582342D02*
X172931104Y-121677580D01*
X172931104Y-121677580D02*
X172883485Y-121725200D01*
X172883485Y-121725200D02*
X172788247Y-121772819D01*
X172788247Y-121772819D02*
X172502533Y-121772819D01*
X172502533Y-121772819D02*
X172407295Y-121725200D01*
X172407295Y-121725200D02*
X172359676Y-121677580D01*
X173550152Y-121201390D02*
X173454914Y-121153771D01*
X173454914Y-121153771D02*
X173407295Y-121106152D01*
X173407295Y-121106152D02*
X173359676Y-121010914D01*
X173359676Y-121010914D02*
X173359676Y-120963295D01*
X173359676Y-120963295D02*
X173407295Y-120868057D01*
X173407295Y-120868057D02*
X173454914Y-120820438D01*
X173454914Y-120820438D02*
X173550152Y-120772819D01*
X173550152Y-120772819D02*
X173740628Y-120772819D01*
X173740628Y-120772819D02*
X173835866Y-120820438D01*
X173835866Y-120820438D02*
X173883485Y-120868057D01*
X173883485Y-120868057D02*
X173931104Y-120963295D01*
X173931104Y-120963295D02*
X173931104Y-121010914D01*
X173931104Y-121010914D02*
X173883485Y-121106152D01*
X173883485Y-121106152D02*
X173835866Y-121153771D01*
X173835866Y-121153771D02*
X173740628Y-121201390D01*
X173740628Y-121201390D02*
X173550152Y-121201390D01*
X173550152Y-121201390D02*
X173454914Y-121249009D01*
X173454914Y-121249009D02*
X173407295Y-121296628D01*
X173407295Y-121296628D02*
X173359676Y-121391866D01*
X173359676Y-121391866D02*
X173359676Y-121582342D01*
X173359676Y-121582342D02*
X173407295Y-121677580D01*
X173407295Y-121677580D02*
X173454914Y-121725200D01*
X173454914Y-121725200D02*
X173550152Y-121772819D01*
X173550152Y-121772819D02*
X173740628Y-121772819D01*
X173740628Y-121772819D02*
X173835866Y-121725200D01*
X173835866Y-121725200D02*
X173883485Y-121677580D01*
X173883485Y-121677580D02*
X173931104Y-121582342D01*
X173931104Y-121582342D02*
X173931104Y-121391866D01*
X173931104Y-121391866D02*
X173883485Y-121296628D01*
X173883485Y-121296628D02*
X173835866Y-121249009D01*
X173835866Y-121249009D02*
X173740628Y-121201390D01*
X109262942Y-121161980D02*
X109215323Y-121209600D01*
X109215323Y-121209600D02*
X109072466Y-121257219D01*
X109072466Y-121257219D02*
X108977228Y-121257219D01*
X108977228Y-121257219D02*
X108834371Y-121209600D01*
X108834371Y-121209600D02*
X108739133Y-121114361D01*
X108739133Y-121114361D02*
X108691514Y-121019123D01*
X108691514Y-121019123D02*
X108643895Y-120828647D01*
X108643895Y-120828647D02*
X108643895Y-120685790D01*
X108643895Y-120685790D02*
X108691514Y-120495314D01*
X108691514Y-120495314D02*
X108739133Y-120400076D01*
X108739133Y-120400076D02*
X108834371Y-120304838D01*
X108834371Y-120304838D02*
X108977228Y-120257219D01*
X108977228Y-120257219D02*
X109072466Y-120257219D01*
X109072466Y-120257219D02*
X109215323Y-120304838D01*
X109215323Y-120304838D02*
X109262942Y-120352457D01*
X109643895Y-120352457D02*
X109691514Y-120304838D01*
X109691514Y-120304838D02*
X109786752Y-120257219D01*
X109786752Y-120257219D02*
X110024847Y-120257219D01*
X110024847Y-120257219D02*
X110120085Y-120304838D01*
X110120085Y-120304838D02*
X110167704Y-120352457D01*
X110167704Y-120352457D02*
X110215323Y-120447695D01*
X110215323Y-120447695D02*
X110215323Y-120542933D01*
X110215323Y-120542933D02*
X110167704Y-120685790D01*
X110167704Y-120685790D02*
X109596276Y-121257219D01*
X109596276Y-121257219D02*
X110215323Y-121257219D01*
X110548657Y-120257219D02*
X111167704Y-120257219D01*
X111167704Y-120257219D02*
X110834371Y-120638171D01*
X110834371Y-120638171D02*
X110977228Y-120638171D01*
X110977228Y-120638171D02*
X111072466Y-120685790D01*
X111072466Y-120685790D02*
X111120085Y-120733409D01*
X111120085Y-120733409D02*
X111167704Y-120828647D01*
X111167704Y-120828647D02*
X111167704Y-121066742D01*
X111167704Y-121066742D02*
X111120085Y-121161980D01*
X111120085Y-121161980D02*
X111072466Y-121209600D01*
X111072466Y-121209600D02*
X110977228Y-121257219D01*
X110977228Y-121257219D02*
X110691514Y-121257219D01*
X110691514Y-121257219D02*
X110596276Y-121209600D01*
X110596276Y-121209600D02*
X110548657Y-121161980D01*
X101572219Y-108796057D02*
X101096028Y-109129390D01*
X101572219Y-109367485D02*
X100572219Y-109367485D01*
X100572219Y-109367485D02*
X100572219Y-108986533D01*
X100572219Y-108986533D02*
X100619838Y-108891295D01*
X100619838Y-108891295D02*
X100667457Y-108843676D01*
X100667457Y-108843676D02*
X100762695Y-108796057D01*
X100762695Y-108796057D02*
X100905552Y-108796057D01*
X100905552Y-108796057D02*
X101000790Y-108843676D01*
X101000790Y-108843676D02*
X101048409Y-108891295D01*
X101048409Y-108891295D02*
X101096028Y-108986533D01*
X101096028Y-108986533D02*
X101096028Y-109367485D01*
X100667457Y-108415104D02*
X100619838Y-108367485D01*
X100619838Y-108367485D02*
X100572219Y-108272247D01*
X100572219Y-108272247D02*
X100572219Y-108034152D01*
X100572219Y-108034152D02*
X100619838Y-107938914D01*
X100619838Y-107938914D02*
X100667457Y-107891295D01*
X100667457Y-107891295D02*
X100762695Y-107843676D01*
X100762695Y-107843676D02*
X100857933Y-107843676D01*
X100857933Y-107843676D02*
X101000790Y-107891295D01*
X101000790Y-107891295D02*
X101572219Y-108462723D01*
X101572219Y-108462723D02*
X101572219Y-107843676D01*
X100667457Y-107462723D02*
X100619838Y-107415104D01*
X100619838Y-107415104D02*
X100572219Y-107319866D01*
X100572219Y-107319866D02*
X100572219Y-107081771D01*
X100572219Y-107081771D02*
X100619838Y-106986533D01*
X100619838Y-106986533D02*
X100667457Y-106938914D01*
X100667457Y-106938914D02*
X100762695Y-106891295D01*
X100762695Y-106891295D02*
X100857933Y-106891295D01*
X100857933Y-106891295D02*
X101000790Y-106938914D01*
X101000790Y-106938914D02*
X101572219Y-107510342D01*
X101572219Y-107510342D02*
X101572219Y-106891295D01*
X104614742Y-114272219D02*
X104281409Y-113796028D01*
X104043314Y-114272219D02*
X104043314Y-113272219D01*
X104043314Y-113272219D02*
X104424266Y-113272219D01*
X104424266Y-113272219D02*
X104519504Y-113319838D01*
X104519504Y-113319838D02*
X104567123Y-113367457D01*
X104567123Y-113367457D02*
X104614742Y-113462695D01*
X104614742Y-113462695D02*
X104614742Y-113605552D01*
X104614742Y-113605552D02*
X104567123Y-113700790D01*
X104567123Y-113700790D02*
X104519504Y-113748409D01*
X104519504Y-113748409D02*
X104424266Y-113796028D01*
X104424266Y-113796028D02*
X104043314Y-113796028D01*
X104995695Y-113367457D02*
X105043314Y-113319838D01*
X105043314Y-113319838D02*
X105138552Y-113272219D01*
X105138552Y-113272219D02*
X105376647Y-113272219D01*
X105376647Y-113272219D02*
X105471885Y-113319838D01*
X105471885Y-113319838D02*
X105519504Y-113367457D01*
X105519504Y-113367457D02*
X105567123Y-113462695D01*
X105567123Y-113462695D02*
X105567123Y-113557933D01*
X105567123Y-113557933D02*
X105519504Y-113700790D01*
X105519504Y-113700790D02*
X104948076Y-114272219D01*
X104948076Y-114272219D02*
X105567123Y-114272219D01*
X105900457Y-113272219D02*
X106519504Y-113272219D01*
X106519504Y-113272219D02*
X106186171Y-113653171D01*
X106186171Y-113653171D02*
X106329028Y-113653171D01*
X106329028Y-113653171D02*
X106424266Y-113700790D01*
X106424266Y-113700790D02*
X106471885Y-113748409D01*
X106471885Y-113748409D02*
X106519504Y-113843647D01*
X106519504Y-113843647D02*
X106519504Y-114081742D01*
X106519504Y-114081742D02*
X106471885Y-114176980D01*
X106471885Y-114176980D02*
X106424266Y-114224600D01*
X106424266Y-114224600D02*
X106329028Y-114272219D01*
X106329028Y-114272219D02*
X106043314Y-114272219D01*
X106043314Y-114272219D02*
X105948076Y-114224600D01*
X105948076Y-114224600D02*
X105900457Y-114176980D01*
X108856742Y-132726780D02*
X108809123Y-132774400D01*
X108809123Y-132774400D02*
X108666266Y-132822019D01*
X108666266Y-132822019D02*
X108571028Y-132822019D01*
X108571028Y-132822019D02*
X108428171Y-132774400D01*
X108428171Y-132774400D02*
X108332933Y-132679161D01*
X108332933Y-132679161D02*
X108285314Y-132583923D01*
X108285314Y-132583923D02*
X108237695Y-132393447D01*
X108237695Y-132393447D02*
X108237695Y-132250590D01*
X108237695Y-132250590D02*
X108285314Y-132060114D01*
X108285314Y-132060114D02*
X108332933Y-131964876D01*
X108332933Y-131964876D02*
X108428171Y-131869638D01*
X108428171Y-131869638D02*
X108571028Y-131822019D01*
X108571028Y-131822019D02*
X108666266Y-131822019D01*
X108666266Y-131822019D02*
X108809123Y-131869638D01*
X108809123Y-131869638D02*
X108856742Y-131917257D01*
X109237695Y-131917257D02*
X109285314Y-131869638D01*
X109285314Y-131869638D02*
X109380552Y-131822019D01*
X109380552Y-131822019D02*
X109618647Y-131822019D01*
X109618647Y-131822019D02*
X109713885Y-131869638D01*
X109713885Y-131869638D02*
X109761504Y-131917257D01*
X109761504Y-131917257D02*
X109809123Y-132012495D01*
X109809123Y-132012495D02*
X109809123Y-132107733D01*
X109809123Y-132107733D02*
X109761504Y-132250590D01*
X109761504Y-132250590D02*
X109190076Y-132822019D01*
X109190076Y-132822019D02*
X109809123Y-132822019D01*
X110190076Y-131917257D02*
X110237695Y-131869638D01*
X110237695Y-131869638D02*
X110332933Y-131822019D01*
X110332933Y-131822019D02*
X110571028Y-131822019D01*
X110571028Y-131822019D02*
X110666266Y-131869638D01*
X110666266Y-131869638D02*
X110713885Y-131917257D01*
X110713885Y-131917257D02*
X110761504Y-132012495D01*
X110761504Y-132012495D02*
X110761504Y-132107733D01*
X110761504Y-132107733D02*
X110713885Y-132250590D01*
X110713885Y-132250590D02*
X110142457Y-132822019D01*
X110142457Y-132822019D02*
X110761504Y-132822019D01*
X172153342Y-95955019D02*
X171820009Y-95478828D01*
X171581914Y-95955019D02*
X171581914Y-94955019D01*
X171581914Y-94955019D02*
X171962866Y-94955019D01*
X171962866Y-94955019D02*
X172058104Y-95002638D01*
X172058104Y-95002638D02*
X172105723Y-95050257D01*
X172105723Y-95050257D02*
X172153342Y-95145495D01*
X172153342Y-95145495D02*
X172153342Y-95288352D01*
X172153342Y-95288352D02*
X172105723Y-95383590D01*
X172105723Y-95383590D02*
X172058104Y-95431209D01*
X172058104Y-95431209D02*
X171962866Y-95478828D01*
X171962866Y-95478828D02*
X171581914Y-95478828D01*
X173058104Y-94955019D02*
X172581914Y-94955019D01*
X172581914Y-94955019D02*
X172534295Y-95431209D01*
X172534295Y-95431209D02*
X172581914Y-95383590D01*
X172581914Y-95383590D02*
X172677152Y-95335971D01*
X172677152Y-95335971D02*
X172915247Y-95335971D01*
X172915247Y-95335971D02*
X173010485Y-95383590D01*
X173010485Y-95383590D02*
X173058104Y-95431209D01*
X173058104Y-95431209D02*
X173105723Y-95526447D01*
X173105723Y-95526447D02*
X173105723Y-95764542D01*
X173105723Y-95764542D02*
X173058104Y-95859780D01*
X173058104Y-95859780D02*
X173010485Y-95907400D01*
X173010485Y-95907400D02*
X172915247Y-95955019D01*
X172915247Y-95955019D02*
X172677152Y-95955019D01*
X172677152Y-95955019D02*
X172581914Y-95907400D01*
X172581914Y-95907400D02*
X172534295Y-95859780D01*
X173724771Y-94955019D02*
X173820009Y-94955019D01*
X173820009Y-94955019D02*
X173915247Y-95002638D01*
X173915247Y-95002638D02*
X173962866Y-95050257D01*
X173962866Y-95050257D02*
X174010485Y-95145495D01*
X174010485Y-95145495D02*
X174058104Y-95335971D01*
X174058104Y-95335971D02*
X174058104Y-95574066D01*
X174058104Y-95574066D02*
X174010485Y-95764542D01*
X174010485Y-95764542D02*
X173962866Y-95859780D01*
X173962866Y-95859780D02*
X173915247Y-95907400D01*
X173915247Y-95907400D02*
X173820009Y-95955019D01*
X173820009Y-95955019D02*
X173724771Y-95955019D01*
X173724771Y-95955019D02*
X173629533Y-95907400D01*
X173629533Y-95907400D02*
X173581914Y-95859780D01*
X173581914Y-95859780D02*
X173534295Y-95764542D01*
X173534295Y-95764542D02*
X173486676Y-95574066D01*
X173486676Y-95574066D02*
X173486676Y-95335971D01*
X173486676Y-95335971D02*
X173534295Y-95145495D01*
X173534295Y-95145495D02*
X173581914Y-95050257D01*
X173581914Y-95050257D02*
X173629533Y-95002638D01*
X173629533Y-95002638D02*
X173724771Y-94955019D01*
X102360705Y-140408819D02*
X102360705Y-139408819D01*
X102360705Y-139408819D02*
X102598800Y-139408819D01*
X102598800Y-139408819D02*
X102741657Y-139456438D01*
X102741657Y-139456438D02*
X102836895Y-139551676D01*
X102836895Y-139551676D02*
X102884514Y-139646914D01*
X102884514Y-139646914D02*
X102932133Y-139837390D01*
X102932133Y-139837390D02*
X102932133Y-139980247D01*
X102932133Y-139980247D02*
X102884514Y-140170723D01*
X102884514Y-140170723D02*
X102836895Y-140265961D01*
X102836895Y-140265961D02*
X102741657Y-140361200D01*
X102741657Y-140361200D02*
X102598800Y-140408819D01*
X102598800Y-140408819D02*
X102360705Y-140408819D01*
X103265467Y-139408819D02*
X103884514Y-139408819D01*
X103884514Y-139408819D02*
X103551181Y-139789771D01*
X103551181Y-139789771D02*
X103694038Y-139789771D01*
X103694038Y-139789771D02*
X103789276Y-139837390D01*
X103789276Y-139837390D02*
X103836895Y-139885009D01*
X103836895Y-139885009D02*
X103884514Y-139980247D01*
X103884514Y-139980247D02*
X103884514Y-140218342D01*
X103884514Y-140218342D02*
X103836895Y-140313580D01*
X103836895Y-140313580D02*
X103789276Y-140361200D01*
X103789276Y-140361200D02*
X103694038Y-140408819D01*
X103694038Y-140408819D02*
X103408324Y-140408819D01*
X103408324Y-140408819D02*
X103313086Y-140361200D01*
X103313086Y-140361200D02*
X103265467Y-140313580D01*
X129570742Y-119407819D02*
X129237409Y-118931628D01*
X128999314Y-119407819D02*
X128999314Y-118407819D01*
X128999314Y-118407819D02*
X129380266Y-118407819D01*
X129380266Y-118407819D02*
X129475504Y-118455438D01*
X129475504Y-118455438D02*
X129523123Y-118503057D01*
X129523123Y-118503057D02*
X129570742Y-118598295D01*
X129570742Y-118598295D02*
X129570742Y-118741152D01*
X129570742Y-118741152D02*
X129523123Y-118836390D01*
X129523123Y-118836390D02*
X129475504Y-118884009D01*
X129475504Y-118884009D02*
X129380266Y-118931628D01*
X129380266Y-118931628D02*
X128999314Y-118931628D01*
X129904076Y-118407819D02*
X130523123Y-118407819D01*
X130523123Y-118407819D02*
X130189790Y-118788771D01*
X130189790Y-118788771D02*
X130332647Y-118788771D01*
X130332647Y-118788771D02*
X130427885Y-118836390D01*
X130427885Y-118836390D02*
X130475504Y-118884009D01*
X130475504Y-118884009D02*
X130523123Y-118979247D01*
X130523123Y-118979247D02*
X130523123Y-119217342D01*
X130523123Y-119217342D02*
X130475504Y-119312580D01*
X130475504Y-119312580D02*
X130427885Y-119360200D01*
X130427885Y-119360200D02*
X130332647Y-119407819D01*
X130332647Y-119407819D02*
X130046933Y-119407819D01*
X130046933Y-119407819D02*
X129951695Y-119360200D01*
X129951695Y-119360200D02*
X129904076Y-119312580D01*
X131380266Y-118407819D02*
X131189790Y-118407819D01*
X131189790Y-118407819D02*
X131094552Y-118455438D01*
X131094552Y-118455438D02*
X131046933Y-118503057D01*
X131046933Y-118503057D02*
X130951695Y-118645914D01*
X130951695Y-118645914D02*
X130904076Y-118836390D01*
X130904076Y-118836390D02*
X130904076Y-119217342D01*
X130904076Y-119217342D02*
X130951695Y-119312580D01*
X130951695Y-119312580D02*
X130999314Y-119360200D01*
X130999314Y-119360200D02*
X131094552Y-119407819D01*
X131094552Y-119407819D02*
X131285028Y-119407819D01*
X131285028Y-119407819D02*
X131380266Y-119360200D01*
X131380266Y-119360200D02*
X131427885Y-119312580D01*
X131427885Y-119312580D02*
X131475504Y-119217342D01*
X131475504Y-119217342D02*
X131475504Y-118979247D01*
X131475504Y-118979247D02*
X131427885Y-118884009D01*
X131427885Y-118884009D02*
X131380266Y-118836390D01*
X131380266Y-118836390D02*
X131285028Y-118788771D01*
X131285028Y-118788771D02*
X131094552Y-118788771D01*
X131094552Y-118788771D02*
X130999314Y-118836390D01*
X130999314Y-118836390D02*
X130951695Y-118884009D01*
X130951695Y-118884009D02*
X130904076Y-118979247D01*
X105181695Y-95124219D02*
X105181695Y-95933742D01*
X105181695Y-95933742D02*
X105229314Y-96028980D01*
X105229314Y-96028980D02*
X105276933Y-96076600D01*
X105276933Y-96076600D02*
X105372171Y-96124219D01*
X105372171Y-96124219D02*
X105562647Y-96124219D01*
X105562647Y-96124219D02*
X105657885Y-96076600D01*
X105657885Y-96076600D02*
X105705504Y-96028980D01*
X105705504Y-96028980D02*
X105753123Y-95933742D01*
X105753123Y-95933742D02*
X105753123Y-95124219D01*
X106134076Y-95124219D02*
X106753123Y-95124219D01*
X106753123Y-95124219D02*
X106419790Y-95505171D01*
X106419790Y-95505171D02*
X106562647Y-95505171D01*
X106562647Y-95505171D02*
X106657885Y-95552790D01*
X106657885Y-95552790D02*
X106705504Y-95600409D01*
X106705504Y-95600409D02*
X106753123Y-95695647D01*
X106753123Y-95695647D02*
X106753123Y-95933742D01*
X106753123Y-95933742D02*
X106705504Y-96028980D01*
X106705504Y-96028980D02*
X106657885Y-96076600D01*
X106657885Y-96076600D02*
X106562647Y-96124219D01*
X106562647Y-96124219D02*
X106276933Y-96124219D01*
X106276933Y-96124219D02*
X106181695Y-96076600D01*
X106181695Y-96076600D02*
X106134076Y-96028980D01*
D11*
X178214380Y-132808666D02*
X177500095Y-132808666D01*
X177500095Y-132808666D02*
X177357238Y-132761047D01*
X177357238Y-132761047D02*
X177262000Y-132665809D01*
X177262000Y-132665809D02*
X177214380Y-132522952D01*
X177214380Y-132522952D02*
X177214380Y-132427714D01*
X178214380Y-133189619D02*
X178214380Y-133808666D01*
X178214380Y-133808666D02*
X177833428Y-133475333D01*
X177833428Y-133475333D02*
X177833428Y-133618190D01*
X177833428Y-133618190D02*
X177785809Y-133713428D01*
X177785809Y-133713428D02*
X177738190Y-133761047D01*
X177738190Y-133761047D02*
X177642952Y-133808666D01*
X177642952Y-133808666D02*
X177404857Y-133808666D01*
X177404857Y-133808666D02*
X177309619Y-133761047D01*
X177309619Y-133761047D02*
X177262000Y-133713428D01*
X177262000Y-133713428D02*
X177214380Y-133618190D01*
X177214380Y-133618190D02*
X177214380Y-133332476D01*
X177214380Y-133332476D02*
X177262000Y-133237238D01*
X177262000Y-133237238D02*
X177309619Y-133189619D01*
X182899380Y-127303027D02*
X182899380Y-127874455D01*
X181899380Y-127588741D02*
X182899380Y-127588741D01*
X181799380Y-138217312D02*
X182275571Y-137883979D01*
X181799380Y-137645884D02*
X182799380Y-137645884D01*
X182799380Y-137645884D02*
X182799380Y-138026836D01*
X182799380Y-138026836D02*
X182751761Y-138122074D01*
X182751761Y-138122074D02*
X182704142Y-138169693D01*
X182704142Y-138169693D02*
X182608904Y-138217312D01*
X182608904Y-138217312D02*
X182466047Y-138217312D01*
X182466047Y-138217312D02*
X182370809Y-138169693D01*
X182370809Y-138169693D02*
X182323190Y-138122074D01*
X182323190Y-138122074D02*
X182275571Y-138026836D01*
X182275571Y-138026836D02*
X182275571Y-137645884D01*
X186147000Y-132598265D02*
X186099380Y-132741122D01*
X186099380Y-132741122D02*
X186099380Y-132979217D01*
X186099380Y-132979217D02*
X186147000Y-133074455D01*
X186147000Y-133074455D02*
X186194619Y-133122074D01*
X186194619Y-133122074D02*
X186289857Y-133169693D01*
X186289857Y-133169693D02*
X186385095Y-133169693D01*
X186385095Y-133169693D02*
X186480333Y-133122074D01*
X186480333Y-133122074D02*
X186527952Y-133074455D01*
X186527952Y-133074455D02*
X186575571Y-132979217D01*
X186575571Y-132979217D02*
X186623190Y-132788741D01*
X186623190Y-132788741D02*
X186670809Y-132693503D01*
X186670809Y-132693503D02*
X186718428Y-132645884D01*
X186718428Y-132645884D02*
X186813666Y-132598265D01*
X186813666Y-132598265D02*
X186908904Y-132598265D01*
X186908904Y-132598265D02*
X187004142Y-132645884D01*
X187004142Y-132645884D02*
X187051761Y-132693503D01*
X187051761Y-132693503D02*
X187099380Y-132788741D01*
X187099380Y-132788741D02*
X187099380Y-133026836D01*
X187099380Y-133026836D02*
X187051761Y-133169693D01*
D13*
X156014895Y-97070019D02*
X156586323Y-97070019D01*
X156300609Y-98070019D02*
X156300609Y-97070019D01*
X156919657Y-98070019D02*
X156919657Y-97070019D01*
X156919657Y-97070019D02*
X157300609Y-97070019D01*
X157300609Y-97070019D02*
X157395847Y-97117638D01*
X157395847Y-97117638D02*
X157443466Y-97165257D01*
X157443466Y-97165257D02*
X157491085Y-97260495D01*
X157491085Y-97260495D02*
X157491085Y-97403352D01*
X157491085Y-97403352D02*
X157443466Y-97498590D01*
X157443466Y-97498590D02*
X157395847Y-97546209D01*
X157395847Y-97546209D02*
X157300609Y-97593828D01*
X157300609Y-97593828D02*
X156919657Y-97593828D01*
X157824419Y-97070019D02*
X158443466Y-97070019D01*
X158443466Y-97070019D02*
X158110133Y-97450971D01*
X158110133Y-97450971D02*
X158252990Y-97450971D01*
X158252990Y-97450971D02*
X158348228Y-97498590D01*
X158348228Y-97498590D02*
X158395847Y-97546209D01*
X158395847Y-97546209D02*
X158443466Y-97641447D01*
X158443466Y-97641447D02*
X158443466Y-97879542D01*
X158443466Y-97879542D02*
X158395847Y-97974780D01*
X158395847Y-97974780D02*
X158348228Y-98022400D01*
X158348228Y-98022400D02*
X158252990Y-98070019D01*
X158252990Y-98070019D02*
X157967276Y-98070019D01*
X157967276Y-98070019D02*
X157872038Y-98022400D01*
X157872038Y-98022400D02*
X157824419Y-97974780D01*
X102277942Y-130610780D02*
X102230323Y-130658400D01*
X102230323Y-130658400D02*
X102087466Y-130706019D01*
X102087466Y-130706019D02*
X101992228Y-130706019D01*
X101992228Y-130706019D02*
X101849371Y-130658400D01*
X101849371Y-130658400D02*
X101754133Y-130563161D01*
X101754133Y-130563161D02*
X101706514Y-130467923D01*
X101706514Y-130467923D02*
X101658895Y-130277447D01*
X101658895Y-130277447D02*
X101658895Y-130134590D01*
X101658895Y-130134590D02*
X101706514Y-129944114D01*
X101706514Y-129944114D02*
X101754133Y-129848876D01*
X101754133Y-129848876D02*
X101849371Y-129753638D01*
X101849371Y-129753638D02*
X101992228Y-129706019D01*
X101992228Y-129706019D02*
X102087466Y-129706019D01*
X102087466Y-129706019D02*
X102230323Y-129753638D01*
X102230323Y-129753638D02*
X102277942Y-129801257D01*
X102658895Y-129801257D02*
X102706514Y-129753638D01*
X102706514Y-129753638D02*
X102801752Y-129706019D01*
X102801752Y-129706019D02*
X103039847Y-129706019D01*
X103039847Y-129706019D02*
X103135085Y-129753638D01*
X103135085Y-129753638D02*
X103182704Y-129801257D01*
X103182704Y-129801257D02*
X103230323Y-129896495D01*
X103230323Y-129896495D02*
X103230323Y-129991733D01*
X103230323Y-129991733D02*
X103182704Y-130134590D01*
X103182704Y-130134590D02*
X102611276Y-130706019D01*
X102611276Y-130706019D02*
X103230323Y-130706019D01*
X104182704Y-130706019D02*
X103611276Y-130706019D01*
X103896990Y-130706019D02*
X103896990Y-129706019D01*
X103896990Y-129706019D02*
X103801752Y-129848876D01*
X103801752Y-129848876D02*
X103706514Y-129944114D01*
X103706514Y-129944114D02*
X103611276Y-129991733D01*
X135796495Y-112665619D02*
X136367923Y-112665619D01*
X136082209Y-113665619D02*
X136082209Y-112665619D01*
X136701257Y-113665619D02*
X136701257Y-112665619D01*
X136701257Y-112665619D02*
X137082209Y-112665619D01*
X137082209Y-112665619D02*
X137177447Y-112713238D01*
X137177447Y-112713238D02*
X137225066Y-112760857D01*
X137225066Y-112760857D02*
X137272685Y-112856095D01*
X137272685Y-112856095D02*
X137272685Y-112998952D01*
X137272685Y-112998952D02*
X137225066Y-113094190D01*
X137225066Y-113094190D02*
X137177447Y-113141809D01*
X137177447Y-113141809D02*
X137082209Y-113189428D01*
X137082209Y-113189428D02*
X136701257Y-113189428D01*
X138129828Y-112998952D02*
X138129828Y-113665619D01*
X137891733Y-112618000D02*
X137653638Y-113332285D01*
X137653638Y-113332285D02*
X138272685Y-113332285D01*
X172153342Y-131892219D02*
X171820009Y-131416028D01*
X171581914Y-131892219D02*
X171581914Y-130892219D01*
X171581914Y-130892219D02*
X171962866Y-130892219D01*
X171962866Y-130892219D02*
X172058104Y-130939838D01*
X172058104Y-130939838D02*
X172105723Y-130987457D01*
X172105723Y-130987457D02*
X172153342Y-131082695D01*
X172153342Y-131082695D02*
X172153342Y-131225552D01*
X172153342Y-131225552D02*
X172105723Y-131320790D01*
X172105723Y-131320790D02*
X172058104Y-131368409D01*
X172058104Y-131368409D02*
X171962866Y-131416028D01*
X171962866Y-131416028D02*
X171581914Y-131416028D01*
X173010485Y-131225552D02*
X173010485Y-131892219D01*
X172772390Y-130844600D02*
X172534295Y-131558885D01*
X172534295Y-131558885D02*
X173153342Y-131558885D01*
X173439057Y-130892219D02*
X174105723Y-130892219D01*
X174105723Y-130892219D02*
X173677152Y-131892219D01*
X147483042Y-107671980D02*
X147435423Y-107719600D01*
X147435423Y-107719600D02*
X147292566Y-107767219D01*
X147292566Y-107767219D02*
X147197328Y-107767219D01*
X147197328Y-107767219D02*
X147054471Y-107719600D01*
X147054471Y-107719600D02*
X146959233Y-107624361D01*
X146959233Y-107624361D02*
X146911614Y-107529123D01*
X146911614Y-107529123D02*
X146863995Y-107338647D01*
X146863995Y-107338647D02*
X146863995Y-107195790D01*
X146863995Y-107195790D02*
X146911614Y-107005314D01*
X146911614Y-107005314D02*
X146959233Y-106910076D01*
X146959233Y-106910076D02*
X147054471Y-106814838D01*
X147054471Y-106814838D02*
X147197328Y-106767219D01*
X147197328Y-106767219D02*
X147292566Y-106767219D01*
X147292566Y-106767219D02*
X147435423Y-106814838D01*
X147435423Y-106814838D02*
X147483042Y-106862457D01*
X147816376Y-106767219D02*
X148435423Y-106767219D01*
X148435423Y-106767219D02*
X148102090Y-107148171D01*
X148102090Y-107148171D02*
X148244947Y-107148171D01*
X148244947Y-107148171D02*
X148340185Y-107195790D01*
X148340185Y-107195790D02*
X148387804Y-107243409D01*
X148387804Y-107243409D02*
X148435423Y-107338647D01*
X148435423Y-107338647D02*
X148435423Y-107576742D01*
X148435423Y-107576742D02*
X148387804Y-107671980D01*
X148387804Y-107671980D02*
X148340185Y-107719600D01*
X148340185Y-107719600D02*
X148244947Y-107767219D01*
X148244947Y-107767219D02*
X147959233Y-107767219D01*
X147959233Y-107767219D02*
X147863995Y-107719600D01*
X147863995Y-107719600D02*
X147816376Y-107671980D01*
X148816376Y-106862457D02*
X148863995Y-106814838D01*
X148863995Y-106814838D02*
X148959233Y-106767219D01*
X148959233Y-106767219D02*
X149197328Y-106767219D01*
X149197328Y-106767219D02*
X149292566Y-106814838D01*
X149292566Y-106814838D02*
X149340185Y-106862457D01*
X149340185Y-106862457D02*
X149387804Y-106957695D01*
X149387804Y-106957695D02*
X149387804Y-107052933D01*
X149387804Y-107052933D02*
X149340185Y-107195790D01*
X149340185Y-107195790D02*
X148768757Y-107767219D01*
X148768757Y-107767219D02*
X149387804Y-107767219D01*
X178903333Y-145394819D02*
X178570000Y-144918628D01*
X178331905Y-145394819D02*
X178331905Y-144394819D01*
X178331905Y-144394819D02*
X178712857Y-144394819D01*
X178712857Y-144394819D02*
X178808095Y-144442438D01*
X178808095Y-144442438D02*
X178855714Y-144490057D01*
X178855714Y-144490057D02*
X178903333Y-144585295D01*
X178903333Y-144585295D02*
X178903333Y-144728152D01*
X178903333Y-144728152D02*
X178855714Y-144823390D01*
X178855714Y-144823390D02*
X178808095Y-144871009D01*
X178808095Y-144871009D02*
X178712857Y-144918628D01*
X178712857Y-144918628D02*
X178331905Y-144918628D01*
X179760476Y-144728152D02*
X179760476Y-145394819D01*
X179522381Y-144347200D02*
X179284286Y-145061485D01*
X179284286Y-145061485D02*
X179903333Y-145061485D01*
X100163333Y-66334819D02*
X99830000Y-65858628D01*
X99591905Y-66334819D02*
X99591905Y-65334819D01*
X99591905Y-65334819D02*
X99972857Y-65334819D01*
X99972857Y-65334819D02*
X100068095Y-65382438D01*
X100068095Y-65382438D02*
X100115714Y-65430057D01*
X100115714Y-65430057D02*
X100163333Y-65525295D01*
X100163333Y-65525295D02*
X100163333Y-65668152D01*
X100163333Y-65668152D02*
X100115714Y-65763390D01*
X100115714Y-65763390D02*
X100068095Y-65811009D01*
X100068095Y-65811009D02*
X99972857Y-65858628D01*
X99972857Y-65858628D02*
X99591905Y-65858628D01*
X101020476Y-65334819D02*
X100830000Y-65334819D01*
X100830000Y-65334819D02*
X100734762Y-65382438D01*
X100734762Y-65382438D02*
X100687143Y-65430057D01*
X100687143Y-65430057D02*
X100591905Y-65572914D01*
X100591905Y-65572914D02*
X100544286Y-65763390D01*
X100544286Y-65763390D02*
X100544286Y-66144342D01*
X100544286Y-66144342D02*
X100591905Y-66239580D01*
X100591905Y-66239580D02*
X100639524Y-66287200D01*
X100639524Y-66287200D02*
X100734762Y-66334819D01*
X100734762Y-66334819D02*
X100925238Y-66334819D01*
X100925238Y-66334819D02*
X101020476Y-66287200D01*
X101020476Y-66287200D02*
X101068095Y-66239580D01*
X101068095Y-66239580D02*
X101115714Y-66144342D01*
X101115714Y-66144342D02*
X101115714Y-65906247D01*
X101115714Y-65906247D02*
X101068095Y-65811009D01*
X101068095Y-65811009D02*
X101020476Y-65763390D01*
X101020476Y-65763390D02*
X100925238Y-65715771D01*
X100925238Y-65715771D02*
X100734762Y-65715771D01*
X100734762Y-65715771D02*
X100639524Y-65763390D01*
X100639524Y-65763390D02*
X100591905Y-65811009D01*
X100591905Y-65811009D02*
X100544286Y-65906247D01*
X105219495Y-107316219D02*
X105219495Y-108125742D01*
X105219495Y-108125742D02*
X105267114Y-108220980D01*
X105267114Y-108220980D02*
X105314733Y-108268600D01*
X105314733Y-108268600D02*
X105409971Y-108316219D01*
X105409971Y-108316219D02*
X105600447Y-108316219D01*
X105600447Y-108316219D02*
X105695685Y-108268600D01*
X105695685Y-108268600D02*
X105743304Y-108220980D01*
X105743304Y-108220980D02*
X105790923Y-108125742D01*
X105790923Y-108125742D02*
X105790923Y-107316219D01*
X106219495Y-107411457D02*
X106267114Y-107363838D01*
X106267114Y-107363838D02*
X106362352Y-107316219D01*
X106362352Y-107316219D02*
X106600447Y-107316219D01*
X106600447Y-107316219D02*
X106695685Y-107363838D01*
X106695685Y-107363838D02*
X106743304Y-107411457D01*
X106743304Y-107411457D02*
X106790923Y-107506695D01*
X106790923Y-107506695D02*
X106790923Y-107601933D01*
X106790923Y-107601933D02*
X106743304Y-107744790D01*
X106743304Y-107744790D02*
X106171876Y-108316219D01*
X106171876Y-108316219D02*
X106790923Y-108316219D01*
X139876305Y-98473419D02*
X139876305Y-97473419D01*
X139876305Y-97473419D02*
X140114400Y-97473419D01*
X140114400Y-97473419D02*
X140257257Y-97521038D01*
X140257257Y-97521038D02*
X140352495Y-97616276D01*
X140352495Y-97616276D02*
X140400114Y-97711514D01*
X140400114Y-97711514D02*
X140447733Y-97901990D01*
X140447733Y-97901990D02*
X140447733Y-98044847D01*
X140447733Y-98044847D02*
X140400114Y-98235323D01*
X140400114Y-98235323D02*
X140352495Y-98330561D01*
X140352495Y-98330561D02*
X140257257Y-98425800D01*
X140257257Y-98425800D02*
X140114400Y-98473419D01*
X140114400Y-98473419D02*
X139876305Y-98473419D01*
X141352495Y-97473419D02*
X140876305Y-97473419D01*
X140876305Y-97473419D02*
X140828686Y-97949609D01*
X140828686Y-97949609D02*
X140876305Y-97901990D01*
X140876305Y-97901990D02*
X140971543Y-97854371D01*
X140971543Y-97854371D02*
X141209638Y-97854371D01*
X141209638Y-97854371D02*
X141304876Y-97901990D01*
X141304876Y-97901990D02*
X141352495Y-97949609D01*
X141352495Y-97949609D02*
X141400114Y-98044847D01*
X141400114Y-98044847D02*
X141400114Y-98282942D01*
X141400114Y-98282942D02*
X141352495Y-98378180D01*
X141352495Y-98378180D02*
X141304876Y-98425800D01*
X141304876Y-98425800D02*
X141209638Y-98473419D01*
X141209638Y-98473419D02*
X140971543Y-98473419D01*
X140971543Y-98473419D02*
X140876305Y-98425800D01*
X140876305Y-98425800D02*
X140828686Y-98378180D01*
X109897942Y-125499019D02*
X109564609Y-125022828D01*
X109326514Y-125499019D02*
X109326514Y-124499019D01*
X109326514Y-124499019D02*
X109707466Y-124499019D01*
X109707466Y-124499019D02*
X109802704Y-124546638D01*
X109802704Y-124546638D02*
X109850323Y-124594257D01*
X109850323Y-124594257D02*
X109897942Y-124689495D01*
X109897942Y-124689495D02*
X109897942Y-124832352D01*
X109897942Y-124832352D02*
X109850323Y-124927590D01*
X109850323Y-124927590D02*
X109802704Y-124975209D01*
X109802704Y-124975209D02*
X109707466Y-125022828D01*
X109707466Y-125022828D02*
X109326514Y-125022828D01*
X110231276Y-124499019D02*
X110850323Y-124499019D01*
X110850323Y-124499019D02*
X110516990Y-124879971D01*
X110516990Y-124879971D02*
X110659847Y-124879971D01*
X110659847Y-124879971D02*
X110755085Y-124927590D01*
X110755085Y-124927590D02*
X110802704Y-124975209D01*
X110802704Y-124975209D02*
X110850323Y-125070447D01*
X110850323Y-125070447D02*
X110850323Y-125308542D01*
X110850323Y-125308542D02*
X110802704Y-125403780D01*
X110802704Y-125403780D02*
X110755085Y-125451400D01*
X110755085Y-125451400D02*
X110659847Y-125499019D01*
X110659847Y-125499019D02*
X110374133Y-125499019D01*
X110374133Y-125499019D02*
X110278895Y-125451400D01*
X110278895Y-125451400D02*
X110231276Y-125403780D01*
X111802704Y-125499019D02*
X111231276Y-125499019D01*
X111516990Y-125499019D02*
X111516990Y-124499019D01*
X111516990Y-124499019D02*
X111421752Y-124641876D01*
X111421752Y-124641876D02*
X111326514Y-124737114D01*
X111326514Y-124737114D02*
X111231276Y-124784733D01*
X122694942Y-123644819D02*
X122361609Y-123168628D01*
X122123514Y-123644819D02*
X122123514Y-122644819D01*
X122123514Y-122644819D02*
X122504466Y-122644819D01*
X122504466Y-122644819D02*
X122599704Y-122692438D01*
X122599704Y-122692438D02*
X122647323Y-122740057D01*
X122647323Y-122740057D02*
X122694942Y-122835295D01*
X122694942Y-122835295D02*
X122694942Y-122978152D01*
X122694942Y-122978152D02*
X122647323Y-123073390D01*
X122647323Y-123073390D02*
X122599704Y-123121009D01*
X122599704Y-123121009D02*
X122504466Y-123168628D01*
X122504466Y-123168628D02*
X122123514Y-123168628D01*
X123028276Y-122644819D02*
X123647323Y-122644819D01*
X123647323Y-122644819D02*
X123313990Y-123025771D01*
X123313990Y-123025771D02*
X123456847Y-123025771D01*
X123456847Y-123025771D02*
X123552085Y-123073390D01*
X123552085Y-123073390D02*
X123599704Y-123121009D01*
X123599704Y-123121009D02*
X123647323Y-123216247D01*
X123647323Y-123216247D02*
X123647323Y-123454342D01*
X123647323Y-123454342D02*
X123599704Y-123549580D01*
X123599704Y-123549580D02*
X123552085Y-123597200D01*
X123552085Y-123597200D02*
X123456847Y-123644819D01*
X123456847Y-123644819D02*
X123171133Y-123644819D01*
X123171133Y-123644819D02*
X123075895Y-123597200D01*
X123075895Y-123597200D02*
X123028276Y-123549580D01*
X124552085Y-122644819D02*
X124075895Y-122644819D01*
X124075895Y-122644819D02*
X124028276Y-123121009D01*
X124028276Y-123121009D02*
X124075895Y-123073390D01*
X124075895Y-123073390D02*
X124171133Y-123025771D01*
X124171133Y-123025771D02*
X124409228Y-123025771D01*
X124409228Y-123025771D02*
X124504466Y-123073390D01*
X124504466Y-123073390D02*
X124552085Y-123121009D01*
X124552085Y-123121009D02*
X124599704Y-123216247D01*
X124599704Y-123216247D02*
X124599704Y-123454342D01*
X124599704Y-123454342D02*
X124552085Y-123549580D01*
X124552085Y-123549580D02*
X124504466Y-123597200D01*
X124504466Y-123597200D02*
X124409228Y-123644819D01*
X124409228Y-123644819D02*
X124171133Y-123644819D01*
X124171133Y-123644819D02*
X124075895Y-123597200D01*
X124075895Y-123597200D02*
X124028276Y-123549580D01*
X108856742Y-96059180D02*
X108809123Y-96106800D01*
X108809123Y-96106800D02*
X108666266Y-96154419D01*
X108666266Y-96154419D02*
X108571028Y-96154419D01*
X108571028Y-96154419D02*
X108428171Y-96106800D01*
X108428171Y-96106800D02*
X108332933Y-96011561D01*
X108332933Y-96011561D02*
X108285314Y-95916323D01*
X108285314Y-95916323D02*
X108237695Y-95725847D01*
X108237695Y-95725847D02*
X108237695Y-95582990D01*
X108237695Y-95582990D02*
X108285314Y-95392514D01*
X108285314Y-95392514D02*
X108332933Y-95297276D01*
X108332933Y-95297276D02*
X108428171Y-95202038D01*
X108428171Y-95202038D02*
X108571028Y-95154419D01*
X108571028Y-95154419D02*
X108666266Y-95154419D01*
X108666266Y-95154419D02*
X108809123Y-95202038D01*
X108809123Y-95202038D02*
X108856742Y-95249657D01*
X109237695Y-95249657D02*
X109285314Y-95202038D01*
X109285314Y-95202038D02*
X109380552Y-95154419D01*
X109380552Y-95154419D02*
X109618647Y-95154419D01*
X109618647Y-95154419D02*
X109713885Y-95202038D01*
X109713885Y-95202038D02*
X109761504Y-95249657D01*
X109761504Y-95249657D02*
X109809123Y-95344895D01*
X109809123Y-95344895D02*
X109809123Y-95440133D01*
X109809123Y-95440133D02*
X109761504Y-95582990D01*
X109761504Y-95582990D02*
X109190076Y-96154419D01*
X109190076Y-96154419D02*
X109809123Y-96154419D01*
X110428171Y-95154419D02*
X110523409Y-95154419D01*
X110523409Y-95154419D02*
X110618647Y-95202038D01*
X110618647Y-95202038D02*
X110666266Y-95249657D01*
X110666266Y-95249657D02*
X110713885Y-95344895D01*
X110713885Y-95344895D02*
X110761504Y-95535371D01*
X110761504Y-95535371D02*
X110761504Y-95773466D01*
X110761504Y-95773466D02*
X110713885Y-95963942D01*
X110713885Y-95963942D02*
X110666266Y-96059180D01*
X110666266Y-96059180D02*
X110618647Y-96106800D01*
X110618647Y-96106800D02*
X110523409Y-96154419D01*
X110523409Y-96154419D02*
X110428171Y-96154419D01*
X110428171Y-96154419D02*
X110332933Y-96106800D01*
X110332933Y-96106800D02*
X110285314Y-96059180D01*
X110285314Y-96059180D02*
X110237695Y-95963942D01*
X110237695Y-95963942D02*
X110190076Y-95773466D01*
X110190076Y-95773466D02*
X110190076Y-95535371D01*
X110190076Y-95535371D02*
X110237695Y-95344895D01*
X110237695Y-95344895D02*
X110285314Y-95249657D01*
X110285314Y-95249657D02*
X110332933Y-95202038D01*
X110332933Y-95202038D02*
X110428171Y-95154419D01*
X105181695Y-131791819D02*
X105181695Y-132601342D01*
X105181695Y-132601342D02*
X105229314Y-132696580D01*
X105229314Y-132696580D02*
X105276933Y-132744200D01*
X105276933Y-132744200D02*
X105372171Y-132791819D01*
X105372171Y-132791819D02*
X105562647Y-132791819D01*
X105562647Y-132791819D02*
X105657885Y-132744200D01*
X105657885Y-132744200D02*
X105705504Y-132696580D01*
X105705504Y-132696580D02*
X105753123Y-132601342D01*
X105753123Y-132601342D02*
X105753123Y-131791819D01*
X106657885Y-132125152D02*
X106657885Y-132791819D01*
X106419790Y-131744200D02*
X106181695Y-132458485D01*
X106181695Y-132458485D02*
X106800742Y-132458485D01*
X134281942Y-123340019D02*
X133948609Y-122863828D01*
X133710514Y-123340019D02*
X133710514Y-122340019D01*
X133710514Y-122340019D02*
X134091466Y-122340019D01*
X134091466Y-122340019D02*
X134186704Y-122387638D01*
X134186704Y-122387638D02*
X134234323Y-122435257D01*
X134234323Y-122435257D02*
X134281942Y-122530495D01*
X134281942Y-122530495D02*
X134281942Y-122673352D01*
X134281942Y-122673352D02*
X134234323Y-122768590D01*
X134234323Y-122768590D02*
X134186704Y-122816209D01*
X134186704Y-122816209D02*
X134091466Y-122863828D01*
X134091466Y-122863828D02*
X133710514Y-122863828D01*
X134615276Y-122340019D02*
X135234323Y-122340019D01*
X135234323Y-122340019D02*
X134900990Y-122720971D01*
X134900990Y-122720971D02*
X135043847Y-122720971D01*
X135043847Y-122720971D02*
X135139085Y-122768590D01*
X135139085Y-122768590D02*
X135186704Y-122816209D01*
X135186704Y-122816209D02*
X135234323Y-122911447D01*
X135234323Y-122911447D02*
X135234323Y-123149542D01*
X135234323Y-123149542D02*
X135186704Y-123244780D01*
X135186704Y-123244780D02*
X135139085Y-123292400D01*
X135139085Y-123292400D02*
X135043847Y-123340019D01*
X135043847Y-123340019D02*
X134758133Y-123340019D01*
X134758133Y-123340019D02*
X134662895Y-123292400D01*
X134662895Y-123292400D02*
X134615276Y-123244780D01*
X136091466Y-122673352D02*
X136091466Y-123340019D01*
X135853371Y-122292400D02*
X135615276Y-123006685D01*
X135615276Y-123006685D02*
X136234323Y-123006685D01*
X102531942Y-93755380D02*
X102484323Y-93803000D01*
X102484323Y-93803000D02*
X102341466Y-93850619D01*
X102341466Y-93850619D02*
X102246228Y-93850619D01*
X102246228Y-93850619D02*
X102103371Y-93803000D01*
X102103371Y-93803000D02*
X102008133Y-93707761D01*
X102008133Y-93707761D02*
X101960514Y-93612523D01*
X101960514Y-93612523D02*
X101912895Y-93422047D01*
X101912895Y-93422047D02*
X101912895Y-93279190D01*
X101912895Y-93279190D02*
X101960514Y-93088714D01*
X101960514Y-93088714D02*
X102008133Y-92993476D01*
X102008133Y-92993476D02*
X102103371Y-92898238D01*
X102103371Y-92898238D02*
X102246228Y-92850619D01*
X102246228Y-92850619D02*
X102341466Y-92850619D01*
X102341466Y-92850619D02*
X102484323Y-92898238D01*
X102484323Y-92898238D02*
X102531942Y-92945857D01*
X103484323Y-93850619D02*
X102912895Y-93850619D01*
X103198609Y-93850619D02*
X103198609Y-92850619D01*
X103198609Y-92850619D02*
X103103371Y-92993476D01*
X103103371Y-92993476D02*
X103008133Y-93088714D01*
X103008133Y-93088714D02*
X102912895Y-93136333D01*
X103960514Y-93850619D02*
X104150990Y-93850619D01*
X104150990Y-93850619D02*
X104246228Y-93803000D01*
X104246228Y-93803000D02*
X104293847Y-93755380D01*
X104293847Y-93755380D02*
X104389085Y-93612523D01*
X104389085Y-93612523D02*
X104436704Y-93422047D01*
X104436704Y-93422047D02*
X104436704Y-93041095D01*
X104436704Y-93041095D02*
X104389085Y-92945857D01*
X104389085Y-92945857D02*
X104341466Y-92898238D01*
X104341466Y-92898238D02*
X104246228Y-92850619D01*
X104246228Y-92850619D02*
X104055752Y-92850619D01*
X104055752Y-92850619D02*
X103960514Y-92898238D01*
X103960514Y-92898238D02*
X103912895Y-92945857D01*
X103912895Y-92945857D02*
X103865276Y-93041095D01*
X103865276Y-93041095D02*
X103865276Y-93279190D01*
X103865276Y-93279190D02*
X103912895Y-93374428D01*
X103912895Y-93374428D02*
X103960514Y-93422047D01*
X103960514Y-93422047D02*
X104055752Y-93469666D01*
X104055752Y-93469666D02*
X104246228Y-93469666D01*
X104246228Y-93469666D02*
X104341466Y-93422047D01*
X104341466Y-93422047D02*
X104389085Y-93374428D01*
X104389085Y-93374428D02*
X104436704Y-93279190D01*
D11*
X178214380Y-96896866D02*
X177500095Y-96896866D01*
X177500095Y-96896866D02*
X177357238Y-96849247D01*
X177357238Y-96849247D02*
X177262000Y-96754009D01*
X177262000Y-96754009D02*
X177214380Y-96611152D01*
X177214380Y-96611152D02*
X177214380Y-96515914D01*
X178214380Y-97849247D02*
X178214380Y-97373057D01*
X178214380Y-97373057D02*
X177738190Y-97325438D01*
X177738190Y-97325438D02*
X177785809Y-97373057D01*
X177785809Y-97373057D02*
X177833428Y-97468295D01*
X177833428Y-97468295D02*
X177833428Y-97706390D01*
X177833428Y-97706390D02*
X177785809Y-97801628D01*
X177785809Y-97801628D02*
X177738190Y-97849247D01*
X177738190Y-97849247D02*
X177642952Y-97896866D01*
X177642952Y-97896866D02*
X177404857Y-97896866D01*
X177404857Y-97896866D02*
X177309619Y-97849247D01*
X177309619Y-97849247D02*
X177262000Y-97801628D01*
X177262000Y-97801628D02*
X177214380Y-97706390D01*
X177214380Y-97706390D02*
X177214380Y-97468295D01*
X177214380Y-97468295D02*
X177262000Y-97373057D01*
X177262000Y-97373057D02*
X177309619Y-97325438D01*
X181799380Y-102305512D02*
X182275571Y-101972179D01*
X181799380Y-101734084D02*
X182799380Y-101734084D01*
X182799380Y-101734084D02*
X182799380Y-102115036D01*
X182799380Y-102115036D02*
X182751761Y-102210274D01*
X182751761Y-102210274D02*
X182704142Y-102257893D01*
X182704142Y-102257893D02*
X182608904Y-102305512D01*
X182608904Y-102305512D02*
X182466047Y-102305512D01*
X182466047Y-102305512D02*
X182370809Y-102257893D01*
X182370809Y-102257893D02*
X182323190Y-102210274D01*
X182323190Y-102210274D02*
X182275571Y-102115036D01*
X182275571Y-102115036D02*
X182275571Y-101734084D01*
X186147000Y-96686465D02*
X186099380Y-96829322D01*
X186099380Y-96829322D02*
X186099380Y-97067417D01*
X186099380Y-97067417D02*
X186147000Y-97162655D01*
X186147000Y-97162655D02*
X186194619Y-97210274D01*
X186194619Y-97210274D02*
X186289857Y-97257893D01*
X186289857Y-97257893D02*
X186385095Y-97257893D01*
X186385095Y-97257893D02*
X186480333Y-97210274D01*
X186480333Y-97210274D02*
X186527952Y-97162655D01*
X186527952Y-97162655D02*
X186575571Y-97067417D01*
X186575571Y-97067417D02*
X186623190Y-96876941D01*
X186623190Y-96876941D02*
X186670809Y-96781703D01*
X186670809Y-96781703D02*
X186718428Y-96734084D01*
X186718428Y-96734084D02*
X186813666Y-96686465D01*
X186813666Y-96686465D02*
X186908904Y-96686465D01*
X186908904Y-96686465D02*
X187004142Y-96734084D01*
X187004142Y-96734084D02*
X187051761Y-96781703D01*
X187051761Y-96781703D02*
X187099380Y-96876941D01*
X187099380Y-96876941D02*
X187099380Y-97115036D01*
X187099380Y-97115036D02*
X187051761Y-97257893D01*
X182899380Y-91391227D02*
X182899380Y-91962655D01*
X181899380Y-91676941D02*
X182899380Y-91676941D01*
D13*
X140047742Y-103172419D02*
X139714409Y-102696228D01*
X139476314Y-103172419D02*
X139476314Y-102172419D01*
X139476314Y-102172419D02*
X139857266Y-102172419D01*
X139857266Y-102172419D02*
X139952504Y-102220038D01*
X139952504Y-102220038D02*
X140000123Y-102267657D01*
X140000123Y-102267657D02*
X140047742Y-102362895D01*
X140047742Y-102362895D02*
X140047742Y-102505752D01*
X140047742Y-102505752D02*
X140000123Y-102600990D01*
X140000123Y-102600990D02*
X139952504Y-102648609D01*
X139952504Y-102648609D02*
X139857266Y-102696228D01*
X139857266Y-102696228D02*
X139476314Y-102696228D01*
X140904885Y-102505752D02*
X140904885Y-103172419D01*
X140666790Y-102124800D02*
X140428695Y-102839085D01*
X140428695Y-102839085D02*
X141047742Y-102839085D01*
X141857266Y-102505752D02*
X141857266Y-103172419D01*
X141619171Y-102124800D02*
X141381076Y-102839085D01*
X141381076Y-102839085D02*
X142000123Y-102839085D01*
X108894542Y-108251180D02*
X108846923Y-108298800D01*
X108846923Y-108298800D02*
X108704066Y-108346419D01*
X108704066Y-108346419D02*
X108608828Y-108346419D01*
X108608828Y-108346419D02*
X108465971Y-108298800D01*
X108465971Y-108298800D02*
X108370733Y-108203561D01*
X108370733Y-108203561D02*
X108323114Y-108108323D01*
X108323114Y-108108323D02*
X108275495Y-107917847D01*
X108275495Y-107917847D02*
X108275495Y-107774990D01*
X108275495Y-107774990D02*
X108323114Y-107584514D01*
X108323114Y-107584514D02*
X108370733Y-107489276D01*
X108370733Y-107489276D02*
X108465971Y-107394038D01*
X108465971Y-107394038D02*
X108608828Y-107346419D01*
X108608828Y-107346419D02*
X108704066Y-107346419D01*
X108704066Y-107346419D02*
X108846923Y-107394038D01*
X108846923Y-107394038D02*
X108894542Y-107441657D01*
X109846923Y-108346419D02*
X109275495Y-108346419D01*
X109561209Y-108346419D02*
X109561209Y-107346419D01*
X109561209Y-107346419D02*
X109465971Y-107489276D01*
X109465971Y-107489276D02*
X109370733Y-107584514D01*
X109370733Y-107584514D02*
X109275495Y-107632133D01*
X110418352Y-107774990D02*
X110323114Y-107727371D01*
X110323114Y-107727371D02*
X110275495Y-107679752D01*
X110275495Y-107679752D02*
X110227876Y-107584514D01*
X110227876Y-107584514D02*
X110227876Y-107536895D01*
X110227876Y-107536895D02*
X110275495Y-107441657D01*
X110275495Y-107441657D02*
X110323114Y-107394038D01*
X110323114Y-107394038D02*
X110418352Y-107346419D01*
X110418352Y-107346419D02*
X110608828Y-107346419D01*
X110608828Y-107346419D02*
X110704066Y-107394038D01*
X110704066Y-107394038D02*
X110751685Y-107441657D01*
X110751685Y-107441657D02*
X110799304Y-107536895D01*
X110799304Y-107536895D02*
X110799304Y-107584514D01*
X110799304Y-107584514D02*
X110751685Y-107679752D01*
X110751685Y-107679752D02*
X110704066Y-107727371D01*
X110704066Y-107727371D02*
X110608828Y-107774990D01*
X110608828Y-107774990D02*
X110418352Y-107774990D01*
X110418352Y-107774990D02*
X110323114Y-107822609D01*
X110323114Y-107822609D02*
X110275495Y-107870228D01*
X110275495Y-107870228D02*
X110227876Y-107965466D01*
X110227876Y-107965466D02*
X110227876Y-108155942D01*
X110227876Y-108155942D02*
X110275495Y-108251180D01*
X110275495Y-108251180D02*
X110323114Y-108298800D01*
X110323114Y-108298800D02*
X110418352Y-108346419D01*
X110418352Y-108346419D02*
X110608828Y-108346419D01*
X110608828Y-108346419D02*
X110704066Y-108298800D01*
X110704066Y-108298800D02*
X110751685Y-108251180D01*
X110751685Y-108251180D02*
X110799304Y-108155942D01*
X110799304Y-108155942D02*
X110799304Y-107965466D01*
X110799304Y-107965466D02*
X110751685Y-107870228D01*
X110751685Y-107870228D02*
X110704066Y-107822609D01*
X110704066Y-107822609D02*
X110608828Y-107774990D01*
X92052876Y-104636219D02*
X92052876Y-105350504D01*
X92052876Y-105350504D02*
X92005257Y-105493361D01*
X92005257Y-105493361D02*
X91910019Y-105588600D01*
X91910019Y-105588600D02*
X91767162Y-105636219D01*
X91767162Y-105636219D02*
X91671924Y-105636219D01*
X93052876Y-105636219D02*
X92481448Y-105636219D01*
X92767162Y-105636219D02*
X92767162Y-104636219D01*
X92767162Y-104636219D02*
X92671924Y-104779076D01*
X92671924Y-104779076D02*
X92576686Y-104874314D01*
X92576686Y-104874314D02*
X92481448Y-104921933D01*
X93671924Y-104636219D02*
X93767162Y-104636219D01*
X93767162Y-104636219D02*
X93862400Y-104683838D01*
X93862400Y-104683838D02*
X93910019Y-104731457D01*
X93910019Y-104731457D02*
X93957638Y-104826695D01*
X93957638Y-104826695D02*
X94005257Y-105017171D01*
X94005257Y-105017171D02*
X94005257Y-105255266D01*
X94005257Y-105255266D02*
X93957638Y-105445742D01*
X93957638Y-105445742D02*
X93910019Y-105540980D01*
X93910019Y-105540980D02*
X93862400Y-105588600D01*
X93862400Y-105588600D02*
X93767162Y-105636219D01*
X93767162Y-105636219D02*
X93671924Y-105636219D01*
X93671924Y-105636219D02*
X93576686Y-105588600D01*
X93576686Y-105588600D02*
X93529067Y-105540980D01*
X93529067Y-105540980D02*
X93481448Y-105445742D01*
X93481448Y-105445742D02*
X93433829Y-105255266D01*
X93433829Y-105255266D02*
X93433829Y-105017171D01*
X93433829Y-105017171D02*
X93481448Y-104826695D01*
X93481448Y-104826695D02*
X93529067Y-104731457D01*
X93529067Y-104731457D02*
X93576686Y-104683838D01*
X93576686Y-104683838D02*
X93671924Y-104636219D01*
X128109742Y-124254419D02*
X127776409Y-123778228D01*
X127538314Y-124254419D02*
X127538314Y-123254419D01*
X127538314Y-123254419D02*
X127919266Y-123254419D01*
X127919266Y-123254419D02*
X128014504Y-123302038D01*
X128014504Y-123302038D02*
X128062123Y-123349657D01*
X128062123Y-123349657D02*
X128109742Y-123444895D01*
X128109742Y-123444895D02*
X128109742Y-123587752D01*
X128109742Y-123587752D02*
X128062123Y-123682990D01*
X128062123Y-123682990D02*
X128014504Y-123730609D01*
X128014504Y-123730609D02*
X127919266Y-123778228D01*
X127919266Y-123778228D02*
X127538314Y-123778228D01*
X128443076Y-123254419D02*
X129062123Y-123254419D01*
X129062123Y-123254419D02*
X128728790Y-123635371D01*
X128728790Y-123635371D02*
X128871647Y-123635371D01*
X128871647Y-123635371D02*
X128966885Y-123682990D01*
X128966885Y-123682990D02*
X129014504Y-123730609D01*
X129014504Y-123730609D02*
X129062123Y-123825847D01*
X129062123Y-123825847D02*
X129062123Y-124063942D01*
X129062123Y-124063942D02*
X129014504Y-124159180D01*
X129014504Y-124159180D02*
X128966885Y-124206800D01*
X128966885Y-124206800D02*
X128871647Y-124254419D01*
X128871647Y-124254419D02*
X128585933Y-124254419D01*
X128585933Y-124254419D02*
X128490695Y-124206800D01*
X128490695Y-124206800D02*
X128443076Y-124159180D01*
X129395457Y-123254419D02*
X130062123Y-123254419D01*
X130062123Y-123254419D02*
X129633552Y-124254419D01*
X157116542Y-102258019D02*
X156783209Y-101781828D01*
X156545114Y-102258019D02*
X156545114Y-101258019D01*
X156545114Y-101258019D02*
X156926066Y-101258019D01*
X156926066Y-101258019D02*
X157021304Y-101305638D01*
X157021304Y-101305638D02*
X157068923Y-101353257D01*
X157068923Y-101353257D02*
X157116542Y-101448495D01*
X157116542Y-101448495D02*
X157116542Y-101591352D01*
X157116542Y-101591352D02*
X157068923Y-101686590D01*
X157068923Y-101686590D02*
X157021304Y-101734209D01*
X157021304Y-101734209D02*
X156926066Y-101781828D01*
X156926066Y-101781828D02*
X156545114Y-101781828D01*
X157973685Y-101591352D02*
X157973685Y-102258019D01*
X157735590Y-101210400D02*
X157497495Y-101924685D01*
X157497495Y-101924685D02*
X158116542Y-101924685D01*
X159021304Y-102258019D02*
X158449876Y-102258019D01*
X158735590Y-102258019D02*
X158735590Y-101258019D01*
X158735590Y-101258019D02*
X158640352Y-101400876D01*
X158640352Y-101400876D02*
X158545114Y-101496114D01*
X158545114Y-101496114D02*
X158449876Y-101543733D01*
X107484942Y-128597819D02*
X107151609Y-128121628D01*
X106913514Y-128597819D02*
X106913514Y-127597819D01*
X106913514Y-127597819D02*
X107294466Y-127597819D01*
X107294466Y-127597819D02*
X107389704Y-127645438D01*
X107389704Y-127645438D02*
X107437323Y-127693057D01*
X107437323Y-127693057D02*
X107484942Y-127788295D01*
X107484942Y-127788295D02*
X107484942Y-127931152D01*
X107484942Y-127931152D02*
X107437323Y-128026390D01*
X107437323Y-128026390D02*
X107389704Y-128074009D01*
X107389704Y-128074009D02*
X107294466Y-128121628D01*
X107294466Y-128121628D02*
X106913514Y-128121628D01*
X107818276Y-127597819D02*
X108437323Y-127597819D01*
X108437323Y-127597819D02*
X108103990Y-127978771D01*
X108103990Y-127978771D02*
X108246847Y-127978771D01*
X108246847Y-127978771D02*
X108342085Y-128026390D01*
X108342085Y-128026390D02*
X108389704Y-128074009D01*
X108389704Y-128074009D02*
X108437323Y-128169247D01*
X108437323Y-128169247D02*
X108437323Y-128407342D01*
X108437323Y-128407342D02*
X108389704Y-128502580D01*
X108389704Y-128502580D02*
X108342085Y-128550200D01*
X108342085Y-128550200D02*
X108246847Y-128597819D01*
X108246847Y-128597819D02*
X107961133Y-128597819D01*
X107961133Y-128597819D02*
X107865895Y-128550200D01*
X107865895Y-128550200D02*
X107818276Y-128502580D01*
X108818276Y-127693057D02*
X108865895Y-127645438D01*
X108865895Y-127645438D02*
X108961133Y-127597819D01*
X108961133Y-127597819D02*
X109199228Y-127597819D01*
X109199228Y-127597819D02*
X109294466Y-127645438D01*
X109294466Y-127645438D02*
X109342085Y-127693057D01*
X109342085Y-127693057D02*
X109389704Y-127788295D01*
X109389704Y-127788295D02*
X109389704Y-127883533D01*
X109389704Y-127883533D02*
X109342085Y-128026390D01*
X109342085Y-128026390D02*
X108770657Y-128597819D01*
X108770657Y-128597819D02*
X109389704Y-128597819D01*
X91951276Y-129172619D02*
X91951276Y-129886904D01*
X91951276Y-129886904D02*
X91903657Y-130029761D01*
X91903657Y-130029761D02*
X91808419Y-130125000D01*
X91808419Y-130125000D02*
X91665562Y-130172619D01*
X91665562Y-130172619D02*
X91570324Y-130172619D01*
X92951276Y-130172619D02*
X92379848Y-130172619D01*
X92665562Y-130172619D02*
X92665562Y-129172619D01*
X92665562Y-129172619D02*
X92570324Y-129315476D01*
X92570324Y-129315476D02*
X92475086Y-129410714D01*
X92475086Y-129410714D02*
X92379848Y-129458333D01*
X93284610Y-129172619D02*
X93903657Y-129172619D01*
X93903657Y-129172619D02*
X93570324Y-129553571D01*
X93570324Y-129553571D02*
X93713181Y-129553571D01*
X93713181Y-129553571D02*
X93808419Y-129601190D01*
X93808419Y-129601190D02*
X93856038Y-129648809D01*
X93856038Y-129648809D02*
X93903657Y-129744047D01*
X93903657Y-129744047D02*
X93903657Y-129982142D01*
X93903657Y-129982142D02*
X93856038Y-130077380D01*
X93856038Y-130077380D02*
X93808419Y-130125000D01*
X93808419Y-130125000D02*
X93713181Y-130172619D01*
X93713181Y-130172619D02*
X93427467Y-130172619D01*
X93427467Y-130172619D02*
X93332229Y-130125000D01*
X93332229Y-130125000D02*
X93284610Y-130077380D01*
X91925876Y-116929819D02*
X91925876Y-117644104D01*
X91925876Y-117644104D02*
X91878257Y-117786961D01*
X91878257Y-117786961D02*
X91783019Y-117882200D01*
X91783019Y-117882200D02*
X91640162Y-117929819D01*
X91640162Y-117929819D02*
X91544924Y-117929819D01*
X92925876Y-117929819D02*
X92354448Y-117929819D01*
X92640162Y-117929819D02*
X92640162Y-116929819D01*
X92640162Y-116929819D02*
X92544924Y-117072676D01*
X92544924Y-117072676D02*
X92449686Y-117167914D01*
X92449686Y-117167914D02*
X92354448Y-117215533D01*
X93306829Y-117025057D02*
X93354448Y-116977438D01*
X93354448Y-116977438D02*
X93449686Y-116929819D01*
X93449686Y-116929819D02*
X93687781Y-116929819D01*
X93687781Y-116929819D02*
X93783019Y-116977438D01*
X93783019Y-116977438D02*
X93830638Y-117025057D01*
X93830638Y-117025057D02*
X93878257Y-117120295D01*
X93878257Y-117120295D02*
X93878257Y-117215533D01*
X93878257Y-117215533D02*
X93830638Y-117358390D01*
X93830638Y-117358390D02*
X93259210Y-117929819D01*
X93259210Y-117929819D02*
X93878257Y-117929819D01*
X130745995Y-91682219D02*
X130745995Y-92491742D01*
X130745995Y-92491742D02*
X130793614Y-92586980D01*
X130793614Y-92586980D02*
X130841233Y-92634600D01*
X130841233Y-92634600D02*
X130936471Y-92682219D01*
X130936471Y-92682219D02*
X131126947Y-92682219D01*
X131126947Y-92682219D02*
X131222185Y-92634600D01*
X131222185Y-92634600D02*
X131269804Y-92586980D01*
X131269804Y-92586980D02*
X131317423Y-92491742D01*
X131317423Y-92491742D02*
X131317423Y-91682219D01*
X131936471Y-92110790D02*
X131841233Y-92063171D01*
X131841233Y-92063171D02*
X131793614Y-92015552D01*
X131793614Y-92015552D02*
X131745995Y-91920314D01*
X131745995Y-91920314D02*
X131745995Y-91872695D01*
X131745995Y-91872695D02*
X131793614Y-91777457D01*
X131793614Y-91777457D02*
X131841233Y-91729838D01*
X131841233Y-91729838D02*
X131936471Y-91682219D01*
X131936471Y-91682219D02*
X132126947Y-91682219D01*
X132126947Y-91682219D02*
X132222185Y-91729838D01*
X132222185Y-91729838D02*
X132269804Y-91777457D01*
X132269804Y-91777457D02*
X132317423Y-91872695D01*
X132317423Y-91872695D02*
X132317423Y-91920314D01*
X132317423Y-91920314D02*
X132269804Y-92015552D01*
X132269804Y-92015552D02*
X132222185Y-92063171D01*
X132222185Y-92063171D02*
X132126947Y-92110790D01*
X132126947Y-92110790D02*
X131936471Y-92110790D01*
X131936471Y-92110790D02*
X131841233Y-92158409D01*
X131841233Y-92158409D02*
X131793614Y-92206028D01*
X131793614Y-92206028D02*
X131745995Y-92301266D01*
X131745995Y-92301266D02*
X131745995Y-92491742D01*
X131745995Y-92491742D02*
X131793614Y-92586980D01*
X131793614Y-92586980D02*
X131841233Y-92634600D01*
X131841233Y-92634600D02*
X131936471Y-92682219D01*
X131936471Y-92682219D02*
X132126947Y-92682219D01*
X132126947Y-92682219D02*
X132222185Y-92634600D01*
X132222185Y-92634600D02*
X132269804Y-92586980D01*
X132269804Y-92586980D02*
X132317423Y-92491742D01*
X132317423Y-92491742D02*
X132317423Y-92301266D01*
X132317423Y-92301266D02*
X132269804Y-92206028D01*
X132269804Y-92206028D02*
X132222185Y-92158409D01*
X132222185Y-92158409D02*
X132126947Y-92110790D01*
X126144495Y-128312019D02*
X126715923Y-128312019D01*
X126430209Y-129312019D02*
X126430209Y-128312019D01*
X127049257Y-129312019D02*
X127049257Y-128312019D01*
X127049257Y-128312019D02*
X127430209Y-128312019D01*
X127430209Y-128312019D02*
X127525447Y-128359638D01*
X127525447Y-128359638D02*
X127573066Y-128407257D01*
X127573066Y-128407257D02*
X127620685Y-128502495D01*
X127620685Y-128502495D02*
X127620685Y-128645352D01*
X127620685Y-128645352D02*
X127573066Y-128740590D01*
X127573066Y-128740590D02*
X127525447Y-128788209D01*
X127525447Y-128788209D02*
X127430209Y-128835828D01*
X127430209Y-128835828D02*
X127049257Y-128835828D01*
X128573066Y-129312019D02*
X128001638Y-129312019D01*
X128287352Y-129312019D02*
X128287352Y-128312019D01*
X128287352Y-128312019D02*
X128192114Y-128454876D01*
X128192114Y-128454876D02*
X128096876Y-128550114D01*
X128096876Y-128550114D02*
X128001638Y-128597733D01*
X103801942Y-128096180D02*
X103754323Y-128143800D01*
X103754323Y-128143800D02*
X103611466Y-128191419D01*
X103611466Y-128191419D02*
X103516228Y-128191419D01*
X103516228Y-128191419D02*
X103373371Y-128143800D01*
X103373371Y-128143800D02*
X103278133Y-128048561D01*
X103278133Y-128048561D02*
X103230514Y-127953323D01*
X103230514Y-127953323D02*
X103182895Y-127762847D01*
X103182895Y-127762847D02*
X103182895Y-127619990D01*
X103182895Y-127619990D02*
X103230514Y-127429514D01*
X103230514Y-127429514D02*
X103278133Y-127334276D01*
X103278133Y-127334276D02*
X103373371Y-127239038D01*
X103373371Y-127239038D02*
X103516228Y-127191419D01*
X103516228Y-127191419D02*
X103611466Y-127191419D01*
X103611466Y-127191419D02*
X103754323Y-127239038D01*
X103754323Y-127239038D02*
X103801942Y-127286657D01*
X104182895Y-127286657D02*
X104230514Y-127239038D01*
X104230514Y-127239038D02*
X104325752Y-127191419D01*
X104325752Y-127191419D02*
X104563847Y-127191419D01*
X104563847Y-127191419D02*
X104659085Y-127239038D01*
X104659085Y-127239038D02*
X104706704Y-127286657D01*
X104706704Y-127286657D02*
X104754323Y-127381895D01*
X104754323Y-127381895D02*
X104754323Y-127477133D01*
X104754323Y-127477133D02*
X104706704Y-127619990D01*
X104706704Y-127619990D02*
X104135276Y-128191419D01*
X104135276Y-128191419D02*
X104754323Y-128191419D01*
X105611466Y-127524752D02*
X105611466Y-128191419D01*
X105373371Y-127143800D02*
X105135276Y-127858085D01*
X105135276Y-127858085D02*
X105754323Y-127858085D01*
X170756342Y-86263619D02*
X170423009Y-85787428D01*
X170184914Y-86263619D02*
X170184914Y-85263619D01*
X170184914Y-85263619D02*
X170565866Y-85263619D01*
X170565866Y-85263619D02*
X170661104Y-85311238D01*
X170661104Y-85311238D02*
X170708723Y-85358857D01*
X170708723Y-85358857D02*
X170756342Y-85454095D01*
X170756342Y-85454095D02*
X170756342Y-85596952D01*
X170756342Y-85596952D02*
X170708723Y-85692190D01*
X170708723Y-85692190D02*
X170661104Y-85739809D01*
X170661104Y-85739809D02*
X170565866Y-85787428D01*
X170565866Y-85787428D02*
X170184914Y-85787428D01*
X171613485Y-85596952D02*
X171613485Y-86263619D01*
X171375390Y-85216000D02*
X171137295Y-85930285D01*
X171137295Y-85930285D02*
X171756342Y-85930285D01*
X172042057Y-85263619D02*
X172661104Y-85263619D01*
X172661104Y-85263619D02*
X172327771Y-85644571D01*
X172327771Y-85644571D02*
X172470628Y-85644571D01*
X172470628Y-85644571D02*
X172565866Y-85692190D01*
X172565866Y-85692190D02*
X172613485Y-85739809D01*
X172613485Y-85739809D02*
X172661104Y-85835047D01*
X172661104Y-85835047D02*
X172661104Y-86073142D01*
X172661104Y-86073142D02*
X172613485Y-86168380D01*
X172613485Y-86168380D02*
X172565866Y-86216000D01*
X172565866Y-86216000D02*
X172470628Y-86263619D01*
X172470628Y-86263619D02*
X172184914Y-86263619D01*
X172184914Y-86263619D02*
X172089676Y-86216000D01*
X172089676Y-86216000D02*
X172042057Y-86168380D01*
X163496666Y-91054819D02*
X163496666Y-91769104D01*
X163496666Y-91769104D02*
X163449047Y-91911961D01*
X163449047Y-91911961D02*
X163353809Y-92007200D01*
X163353809Y-92007200D02*
X163210952Y-92054819D01*
X163210952Y-92054819D02*
X163115714Y-92054819D01*
X164496666Y-92054819D02*
X163925238Y-92054819D01*
X164210952Y-92054819D02*
X164210952Y-91054819D01*
X164210952Y-91054819D02*
X164115714Y-91197676D01*
X164115714Y-91197676D02*
X164020476Y-91292914D01*
X164020476Y-91292914D02*
X163925238Y-91340533D01*
X147482242Y-102867619D02*
X147148909Y-102391428D01*
X146910814Y-102867619D02*
X146910814Y-101867619D01*
X146910814Y-101867619D02*
X147291766Y-101867619D01*
X147291766Y-101867619D02*
X147387004Y-101915238D01*
X147387004Y-101915238D02*
X147434623Y-101962857D01*
X147434623Y-101962857D02*
X147482242Y-102058095D01*
X147482242Y-102058095D02*
X147482242Y-102200952D01*
X147482242Y-102200952D02*
X147434623Y-102296190D01*
X147434623Y-102296190D02*
X147387004Y-102343809D01*
X147387004Y-102343809D02*
X147291766Y-102391428D01*
X147291766Y-102391428D02*
X146910814Y-102391428D01*
X148339385Y-102200952D02*
X148339385Y-102867619D01*
X148101290Y-101820000D02*
X147863195Y-102534285D01*
X147863195Y-102534285D02*
X148482242Y-102534285D01*
X148815576Y-101962857D02*
X148863195Y-101915238D01*
X148863195Y-101915238D02*
X148958433Y-101867619D01*
X148958433Y-101867619D02*
X149196528Y-101867619D01*
X149196528Y-101867619D02*
X149291766Y-101915238D01*
X149291766Y-101915238D02*
X149339385Y-101962857D01*
X149339385Y-101962857D02*
X149387004Y-102058095D01*
X149387004Y-102058095D02*
X149387004Y-102153333D01*
X149387004Y-102153333D02*
X149339385Y-102296190D01*
X149339385Y-102296190D02*
X148767957Y-102867619D01*
X148767957Y-102867619D02*
X149387004Y-102867619D01*
X140562105Y-116228019D02*
X140562105Y-115228019D01*
X140562105Y-115228019D02*
X140800200Y-115228019D01*
X140800200Y-115228019D02*
X140943057Y-115275638D01*
X140943057Y-115275638D02*
X141038295Y-115370876D01*
X141038295Y-115370876D02*
X141085914Y-115466114D01*
X141085914Y-115466114D02*
X141133533Y-115656590D01*
X141133533Y-115656590D02*
X141133533Y-115799447D01*
X141133533Y-115799447D02*
X141085914Y-115989923D01*
X141085914Y-115989923D02*
X141038295Y-116085161D01*
X141038295Y-116085161D02*
X140943057Y-116180400D01*
X140943057Y-116180400D02*
X140800200Y-116228019D01*
X140800200Y-116228019D02*
X140562105Y-116228019D01*
X141990676Y-115561352D02*
X141990676Y-116228019D01*
X141752581Y-115180400D02*
X141514486Y-115894685D01*
X141514486Y-115894685D02*
X142133533Y-115894685D01*
X101546819Y-96426257D02*
X101070628Y-96759590D01*
X101546819Y-96997685D02*
X100546819Y-96997685D01*
X100546819Y-96997685D02*
X100546819Y-96616733D01*
X100546819Y-96616733D02*
X100594438Y-96521495D01*
X100594438Y-96521495D02*
X100642057Y-96473876D01*
X100642057Y-96473876D02*
X100737295Y-96426257D01*
X100737295Y-96426257D02*
X100880152Y-96426257D01*
X100880152Y-96426257D02*
X100975390Y-96473876D01*
X100975390Y-96473876D02*
X101023009Y-96521495D01*
X101023009Y-96521495D02*
X101070628Y-96616733D01*
X101070628Y-96616733D02*
X101070628Y-96997685D01*
X100642057Y-96045304D02*
X100594438Y-95997685D01*
X100594438Y-95997685D02*
X100546819Y-95902447D01*
X100546819Y-95902447D02*
X100546819Y-95664352D01*
X100546819Y-95664352D02*
X100594438Y-95569114D01*
X100594438Y-95569114D02*
X100642057Y-95521495D01*
X100642057Y-95521495D02*
X100737295Y-95473876D01*
X100737295Y-95473876D02*
X100832533Y-95473876D01*
X100832533Y-95473876D02*
X100975390Y-95521495D01*
X100975390Y-95521495D02*
X101546819Y-96092923D01*
X101546819Y-96092923D02*
X101546819Y-95473876D01*
X100546819Y-94569114D02*
X100546819Y-95045304D01*
X100546819Y-95045304D02*
X101023009Y-95092923D01*
X101023009Y-95092923D02*
X100975390Y-95045304D01*
X100975390Y-95045304D02*
X100927771Y-94950066D01*
X100927771Y-94950066D02*
X100927771Y-94711971D01*
X100927771Y-94711971D02*
X100975390Y-94616733D01*
X100975390Y-94616733D02*
X101023009Y-94569114D01*
X101023009Y-94569114D02*
X101118247Y-94521495D01*
X101118247Y-94521495D02*
X101356342Y-94521495D01*
X101356342Y-94521495D02*
X101451580Y-94569114D01*
X101451580Y-94569114D02*
X101499200Y-94616733D01*
X101499200Y-94616733D02*
X101546819Y-94711971D01*
X101546819Y-94711971D02*
X101546819Y-94950066D01*
X101546819Y-94950066D02*
X101499200Y-95045304D01*
X101499200Y-95045304D02*
X101451580Y-95092923D01*
X150139495Y-108783219D02*
X150139495Y-109592742D01*
X150139495Y-109592742D02*
X150187114Y-109687980D01*
X150187114Y-109687980D02*
X150234733Y-109735600D01*
X150234733Y-109735600D02*
X150329971Y-109783219D01*
X150329971Y-109783219D02*
X150520447Y-109783219D01*
X150520447Y-109783219D02*
X150615685Y-109735600D01*
X150615685Y-109735600D02*
X150663304Y-109687980D01*
X150663304Y-109687980D02*
X150710923Y-109592742D01*
X150710923Y-109592742D02*
X150710923Y-108783219D01*
X151710923Y-109783219D02*
X151139495Y-109783219D01*
X151425209Y-109783219D02*
X151425209Y-108783219D01*
X151425209Y-108783219D02*
X151329971Y-108926076D01*
X151329971Y-108926076D02*
X151234733Y-109021314D01*
X151234733Y-109021314D02*
X151139495Y-109068933D01*
X126966742Y-111427419D02*
X126633409Y-110951228D01*
X126395314Y-111427419D02*
X126395314Y-110427419D01*
X126395314Y-110427419D02*
X126776266Y-110427419D01*
X126776266Y-110427419D02*
X126871504Y-110475038D01*
X126871504Y-110475038D02*
X126919123Y-110522657D01*
X126919123Y-110522657D02*
X126966742Y-110617895D01*
X126966742Y-110617895D02*
X126966742Y-110760752D01*
X126966742Y-110760752D02*
X126919123Y-110855990D01*
X126919123Y-110855990D02*
X126871504Y-110903609D01*
X126871504Y-110903609D02*
X126776266Y-110951228D01*
X126776266Y-110951228D02*
X126395314Y-110951228D01*
X127823885Y-110760752D02*
X127823885Y-111427419D01*
X127585790Y-110379800D02*
X127347695Y-111094085D01*
X127347695Y-111094085D02*
X127966742Y-111094085D01*
X128776266Y-110427419D02*
X128585790Y-110427419D01*
X128585790Y-110427419D02*
X128490552Y-110475038D01*
X128490552Y-110475038D02*
X128442933Y-110522657D01*
X128442933Y-110522657D02*
X128347695Y-110665514D01*
X128347695Y-110665514D02*
X128300076Y-110855990D01*
X128300076Y-110855990D02*
X128300076Y-111236942D01*
X128300076Y-111236942D02*
X128347695Y-111332180D01*
X128347695Y-111332180D02*
X128395314Y-111379800D01*
X128395314Y-111379800D02*
X128490552Y-111427419D01*
X128490552Y-111427419D02*
X128681028Y-111427419D01*
X128681028Y-111427419D02*
X128776266Y-111379800D01*
X128776266Y-111379800D02*
X128823885Y-111332180D01*
X128823885Y-111332180D02*
X128871504Y-111236942D01*
X128871504Y-111236942D02*
X128871504Y-110998847D01*
X128871504Y-110998847D02*
X128823885Y-110903609D01*
X128823885Y-110903609D02*
X128776266Y-110855990D01*
X128776266Y-110855990D02*
X128681028Y-110808371D01*
X128681028Y-110808371D02*
X128490552Y-110808371D01*
X128490552Y-110808371D02*
X128395314Y-110855990D01*
X128395314Y-110855990D02*
X128347695Y-110903609D01*
X128347695Y-110903609D02*
X128300076Y-110998847D01*
X108958142Y-137945019D02*
X108624809Y-137468828D01*
X108386714Y-137945019D02*
X108386714Y-136945019D01*
X108386714Y-136945019D02*
X108767666Y-136945019D01*
X108767666Y-136945019D02*
X108862904Y-136992638D01*
X108862904Y-136992638D02*
X108910523Y-137040257D01*
X108910523Y-137040257D02*
X108958142Y-137135495D01*
X108958142Y-137135495D02*
X108958142Y-137278352D01*
X108958142Y-137278352D02*
X108910523Y-137373590D01*
X108910523Y-137373590D02*
X108862904Y-137421209D01*
X108862904Y-137421209D02*
X108767666Y-137468828D01*
X108767666Y-137468828D02*
X108386714Y-137468828D01*
X109291476Y-136945019D02*
X109910523Y-136945019D01*
X109910523Y-136945019D02*
X109577190Y-137325971D01*
X109577190Y-137325971D02*
X109720047Y-137325971D01*
X109720047Y-137325971D02*
X109815285Y-137373590D01*
X109815285Y-137373590D02*
X109862904Y-137421209D01*
X109862904Y-137421209D02*
X109910523Y-137516447D01*
X109910523Y-137516447D02*
X109910523Y-137754542D01*
X109910523Y-137754542D02*
X109862904Y-137849780D01*
X109862904Y-137849780D02*
X109815285Y-137897400D01*
X109815285Y-137897400D02*
X109720047Y-137945019D01*
X109720047Y-137945019D02*
X109434333Y-137945019D01*
X109434333Y-137945019D02*
X109339095Y-137897400D01*
X109339095Y-137897400D02*
X109291476Y-137849780D01*
X110529571Y-136945019D02*
X110624809Y-136945019D01*
X110624809Y-136945019D02*
X110720047Y-136992638D01*
X110720047Y-136992638D02*
X110767666Y-137040257D01*
X110767666Y-137040257D02*
X110815285Y-137135495D01*
X110815285Y-137135495D02*
X110862904Y-137325971D01*
X110862904Y-137325971D02*
X110862904Y-137564066D01*
X110862904Y-137564066D02*
X110815285Y-137754542D01*
X110815285Y-137754542D02*
X110767666Y-137849780D01*
X110767666Y-137849780D02*
X110720047Y-137897400D01*
X110720047Y-137897400D02*
X110624809Y-137945019D01*
X110624809Y-137945019D02*
X110529571Y-137945019D01*
X110529571Y-137945019D02*
X110434333Y-137897400D01*
X110434333Y-137897400D02*
X110386714Y-137849780D01*
X110386714Y-137849780D02*
X110339095Y-137754542D01*
X110339095Y-137754542D02*
X110291476Y-137564066D01*
X110291476Y-137564066D02*
X110291476Y-137325971D01*
X110291476Y-137325971D02*
X110339095Y-137135495D01*
X110339095Y-137135495D02*
X110386714Y-137040257D01*
X110386714Y-137040257D02*
X110434333Y-136992638D01*
X110434333Y-136992638D02*
X110529571Y-136945019D01*
X122851942Y-111408380D02*
X122804323Y-111456000D01*
X122804323Y-111456000D02*
X122661466Y-111503619D01*
X122661466Y-111503619D02*
X122566228Y-111503619D01*
X122566228Y-111503619D02*
X122423371Y-111456000D01*
X122423371Y-111456000D02*
X122328133Y-111360761D01*
X122328133Y-111360761D02*
X122280514Y-111265523D01*
X122280514Y-111265523D02*
X122232895Y-111075047D01*
X122232895Y-111075047D02*
X122232895Y-110932190D01*
X122232895Y-110932190D02*
X122280514Y-110741714D01*
X122280514Y-110741714D02*
X122328133Y-110646476D01*
X122328133Y-110646476D02*
X122423371Y-110551238D01*
X122423371Y-110551238D02*
X122566228Y-110503619D01*
X122566228Y-110503619D02*
X122661466Y-110503619D01*
X122661466Y-110503619D02*
X122804323Y-110551238D01*
X122804323Y-110551238D02*
X122851942Y-110598857D01*
X123185276Y-110503619D02*
X123804323Y-110503619D01*
X123804323Y-110503619D02*
X123470990Y-110884571D01*
X123470990Y-110884571D02*
X123613847Y-110884571D01*
X123613847Y-110884571D02*
X123709085Y-110932190D01*
X123709085Y-110932190D02*
X123756704Y-110979809D01*
X123756704Y-110979809D02*
X123804323Y-111075047D01*
X123804323Y-111075047D02*
X123804323Y-111313142D01*
X123804323Y-111313142D02*
X123756704Y-111408380D01*
X123756704Y-111408380D02*
X123709085Y-111456000D01*
X123709085Y-111456000D02*
X123613847Y-111503619D01*
X123613847Y-111503619D02*
X123328133Y-111503619D01*
X123328133Y-111503619D02*
X123232895Y-111456000D01*
X123232895Y-111456000D02*
X123185276Y-111408380D01*
X124661466Y-110836952D02*
X124661466Y-111503619D01*
X124423371Y-110456000D02*
X124185276Y-111170285D01*
X124185276Y-111170285D02*
X124804323Y-111170285D01*
D14*
%TO.C,R39*%
X143211100Y-111438458D02*
X143211100Y-110963942D01*
X144256100Y-111438458D02*
X144256100Y-110963942D01*
%TO.C,U9*%
X129139100Y-105998800D02*
X128339100Y-105998800D01*
X129139100Y-105998800D02*
X129939100Y-105998800D01*
X129139100Y-109118800D02*
X128339100Y-109118800D01*
X129139100Y-109118800D02*
X129939100Y-109118800D01*
X127839100Y-106048800D02*
X127599100Y-105718800D01*
X128079100Y-105718800D01*
X127839100Y-106048800D01*
G36*
X127839100Y-106048800D02*
G01*
X127599100Y-105718800D01*
X128079100Y-105718800D01*
X127839100Y-106048800D01*
G37*
%TO.C,J11*%
X92276200Y-96682600D02*
X92276200Y-99582600D01*
X94181200Y-94777600D02*
X97081200Y-94777600D01*
X94181200Y-101487600D02*
X97081200Y-101487600D01*
X98986200Y-96682600D02*
X98986200Y-99582600D01*
%TO.C,D1*%
X100079200Y-111035600D02*
X100079200Y-114895600D01*
X102079200Y-111035600D02*
X100079200Y-111035600D01*
X102079200Y-111035600D02*
X102079200Y-114895600D01*
%TO.C,D2*%
X100041400Y-98843600D02*
X100041400Y-102703600D01*
X102041400Y-98843600D02*
X100041400Y-98843600D01*
X102041400Y-98843600D02*
X102041400Y-102703600D01*
%TO.C,C28*%
X156888800Y-110948380D02*
X156888800Y-110667220D01*
X157908800Y-110948380D02*
X157908800Y-110667220D01*
%TO.C,C29*%
X112725780Y-83614800D02*
X112444620Y-83614800D01*
X112725780Y-84634800D02*
X112444620Y-84634800D01*
%TO.C,C33*%
X123929600Y-102919620D02*
X123929600Y-103200780D01*
X124949600Y-102919620D02*
X124949600Y-103200780D01*
%TO.C,R49*%
X171212742Y-78797900D02*
X171687258Y-78797900D01*
X171212742Y-79842900D02*
X171687258Y-79842900D01*
%TO.C,C35*%
X132592320Y-106083600D02*
X132873480Y-106083600D01*
X132592320Y-107103600D02*
X132873480Y-107103600D01*
%TO.C,R28*%
X102048742Y-134239900D02*
X102523258Y-134239900D01*
X102048742Y-135284900D02*
X102523258Y-135284900D01*
%TO.C,R48*%
X172558942Y-114350900D02*
X173033458Y-114350900D01*
X172558942Y-115395900D02*
X173033458Y-115395900D01*
%TO.C,J9*%
X115460000Y-97680000D02*
X116840000Y-97680000D01*
X115460000Y-99060000D02*
X115460000Y-97680000D01*
X115460000Y-100330000D02*
X115460000Y-136000000D01*
X115460000Y-100330000D02*
X118110000Y-100330000D01*
X115460000Y-136000000D02*
X120760000Y-136000000D01*
X118110000Y-97680000D02*
X120760000Y-97680000D01*
X118110000Y-100330000D02*
X118110000Y-97680000D01*
X120760000Y-97680000D02*
X120760000Y-136000000D01*
%TO.C,R27*%
X109275542Y-98512100D02*
X109750058Y-98512100D01*
X109275542Y-99557100D02*
X109750058Y-99557100D01*
%TO.C,U7*%
X151719700Y-103357200D02*
X150919700Y-103357200D01*
X151719700Y-103357200D02*
X152519700Y-103357200D01*
X151719700Y-106477200D02*
X150919700Y-106477200D01*
X151719700Y-106477200D02*
X152519700Y-106477200D01*
X153259700Y-106757200D02*
X152779700Y-106757200D01*
X153019700Y-106427200D01*
X153259700Y-106757200D01*
G36*
X153259700Y-106757200D02*
G01*
X152779700Y-106757200D01*
X153019700Y-106427200D01*
X153259700Y-106757200D01*
G37*
%TO.C,C17*%
X102626600Y-108192180D02*
X102626600Y-107911020D01*
X103646600Y-108192180D02*
X103646600Y-107911020D01*
%TO.C,R3*%
X100092742Y-142987500D02*
X100567258Y-142987500D01*
X100092742Y-144032500D02*
X100567258Y-144032500D01*
%TO.C,R51*%
X132496442Y-108001500D02*
X132970958Y-108001500D01*
X132496442Y-109046500D02*
X132970958Y-109046500D01*
%TO.C,C25*%
X123289600Y-117843980D02*
X123289600Y-117562820D01*
X124309600Y-117843980D02*
X124309600Y-117562820D01*
%TO.C,J8*%
X115460000Y-74820000D02*
X116840000Y-74820000D01*
X115460000Y-76200000D02*
X115460000Y-74820000D01*
X115460000Y-77470000D02*
X115460000Y-95360000D01*
X115460000Y-77470000D02*
X118110000Y-77470000D01*
X115460000Y-95360000D02*
X120760000Y-95360000D01*
X118110000Y-74820000D02*
X120760000Y-74820000D01*
X118110000Y-77470000D02*
X118110000Y-74820000D01*
X120760000Y-74820000D02*
X120760000Y-95360000D01*
%TO.C,U5*%
X104889200Y-121975600D02*
X104089200Y-121975600D01*
X104889200Y-121975600D02*
X105689200Y-121975600D01*
X104889200Y-125095600D02*
X104089200Y-125095600D01*
X104889200Y-125095600D02*
X105689200Y-125095600D01*
X106429200Y-125375600D02*
X105949200Y-125375600D01*
X106189200Y-125045600D01*
X106429200Y-125375600D01*
G36*
X106429200Y-125375600D02*
G01*
X105949200Y-125375600D01*
X106189200Y-125045600D01*
X106429200Y-125375600D01*
G37*
%TO.C,U6*%
X126632200Y-117832400D02*
X125832200Y-117832400D01*
X126632200Y-117832400D02*
X127432200Y-117832400D01*
X126632200Y-120952400D02*
X125832200Y-120952400D01*
X126632200Y-120952400D02*
X127432200Y-120952400D01*
X125332200Y-117882400D02*
X125092200Y-117552400D01*
X125572200Y-117552400D01*
X125332200Y-117882400D01*
G36*
X125332200Y-117882400D02*
G01*
X125092200Y-117552400D01*
X125572200Y-117552400D01*
X125332200Y-117882400D01*
G37*
%TO.C,R45*%
X123917100Y-98166458D02*
X123917100Y-97691942D01*
X124962100Y-98166458D02*
X124962100Y-97691942D01*
%TO.C,C26*%
X127166780Y-116418600D02*
X126885620Y-116418600D01*
X127166780Y-117438600D02*
X126885620Y-117438600D01*
%TO.C,R26*%
X102576300Y-100579458D02*
X102576300Y-100104942D01*
X103621300Y-100579458D02*
X103621300Y-100104942D01*
%TO.C,R40*%
X156876300Y-115701542D02*
X156876300Y-116176058D01*
X157921300Y-115701542D02*
X157921300Y-116176058D01*
%TO.C,R5*%
X179307258Y-66787500D02*
X178832742Y-66787500D01*
X179307258Y-67832500D02*
X178832742Y-67832500D01*
%TO.C,R33*%
X101582658Y-122047900D02*
X101108142Y-122047900D01*
X101582658Y-123092900D02*
X101108142Y-123092900D01*
%TO.C,R29*%
X102576300Y-137247058D02*
X102576300Y-136772542D01*
X103621300Y-137247058D02*
X103621300Y-136772542D01*
%TO.C,C30*%
X112725780Y-81989200D02*
X112444620Y-81989200D01*
X112725780Y-83009200D02*
X112444620Y-83009200D01*
%TO.C,C27*%
X112725780Y-85215000D02*
X112444620Y-85215000D01*
X112725780Y-86235000D02*
X112444620Y-86235000D01*
%TO.C,TP2*%
X111643200Y-92202000D02*
G75*
G02*
X109743200Y-92202000I-950000J0D01*
G01*
X109743200Y-92202000D02*
G75*
G02*
X111643200Y-92202000I950000J0D01*
G01*
%TO.C,C31*%
X155502300Y-104232580D02*
X155502300Y-103951420D01*
X156522300Y-104232580D02*
X156522300Y-103951420D01*
%TO.C,R24*%
X109313342Y-110704100D02*
X109787858Y-110704100D01*
X109313342Y-111749100D02*
X109787858Y-111749100D01*
%TO.C,R38*%
X172906458Y-119365500D02*
X172431942Y-119365500D01*
X172906458Y-120410500D02*
X172431942Y-120410500D01*
%TO.C,C23*%
X107198600Y-121263180D02*
X107198600Y-120982020D01*
X108218600Y-121263180D02*
X108218600Y-120982020D01*
%TO.C,R22*%
X102086542Y-109764300D02*
X102561058Y-109764300D01*
X102086542Y-110809300D02*
X102561058Y-110809300D01*
%TO.C,R23*%
X102614100Y-112771458D02*
X102614100Y-112296942D01*
X103659100Y-112771458D02*
X103659100Y-112296942D01*
%TO.C,C22*%
X109359020Y-133287200D02*
X109640180Y-133287200D01*
X109359020Y-134307200D02*
X109640180Y-134307200D01*
%TO.C,R50*%
X172558942Y-96407700D02*
X173033458Y-96407700D01*
X172558942Y-97452700D02*
X173033458Y-97452700D01*
%TO.C,D3*%
X100041400Y-135511200D02*
X100041400Y-139371200D01*
X102041400Y-135511200D02*
X100041400Y-135511200D01*
X102041400Y-135511200D02*
X102041400Y-139371200D01*
%TO.C,R36*%
X129976342Y-119860500D02*
X130450858Y-119860500D01*
X129976342Y-120905500D02*
X130450858Y-120905500D01*
%TO.C,U3*%
X105943600Y-96509400D02*
X105143600Y-96509400D01*
X105943600Y-96509400D02*
X106743600Y-96509400D01*
X105943600Y-99629400D02*
X105143600Y-99629400D01*
X105943600Y-99629400D02*
X106743600Y-99629400D01*
X104643600Y-96559400D02*
X104403600Y-96229400D01*
X104883600Y-96229400D01*
X104643600Y-96559400D01*
G36*
X104643600Y-96559400D02*
G01*
X104403600Y-96229400D01*
X104883600Y-96229400D01*
X104643600Y-96559400D01*
G37*
%TO.C,TP3*%
X158226800Y-99263200D02*
G75*
G02*
X156326800Y-99263200I-950000J0D01*
G01*
X156326800Y-99263200D02*
G75*
G02*
X158226800Y-99263200I950000J0D01*
G01*
%TO.C,C21*%
X102588800Y-132667780D02*
X102588800Y-132386620D01*
X103608800Y-132667780D02*
X103608800Y-132386620D01*
%TO.C,TP4*%
X138008400Y-114858800D02*
G75*
G02*
X136108400Y-114858800I-950000J0D01*
G01*
X136108400Y-114858800D02*
G75*
G02*
X138008400Y-114858800I950000J0D01*
G01*
%TO.C,R47*%
X172558942Y-132344900D02*
X173033458Y-132344900D01*
X172558942Y-133389900D02*
X173033458Y-133389900D01*
%TO.C,C32*%
X148266480Y-105372400D02*
X147985320Y-105372400D01*
X148266480Y-106392400D02*
X147985320Y-106392400D01*
%TO.C,R4*%
X179307258Y-142987500D02*
X178832742Y-142987500D01*
X179307258Y-144032500D02*
X178832742Y-144032500D01*
%TO.C,R6*%
X100092742Y-66787500D02*
X100567258Y-66787500D01*
X100092742Y-67832500D02*
X100567258Y-67832500D01*
%TO.C,U2*%
X105981400Y-108701400D02*
X105181400Y-108701400D01*
X105981400Y-108701400D02*
X106781400Y-108701400D01*
X105981400Y-111821400D02*
X105181400Y-111821400D01*
X105981400Y-111821400D02*
X106781400Y-111821400D01*
X104681400Y-108751400D02*
X104441400Y-108421400D01*
X104921400Y-108421400D01*
X104681400Y-108751400D01*
G36*
X104681400Y-108751400D02*
G01*
X104441400Y-108421400D01*
X104921400Y-108421400D01*
X104681400Y-108751400D01*
G37*
%TO.C,D5*%
X137130200Y-100556400D02*
X137130200Y-96546400D01*
X137130200Y-100556400D02*
X139130200Y-100556400D01*
X139130200Y-100556400D02*
X139130200Y-96546400D01*
%TO.C,R31*%
X108720058Y-122987700D02*
X108245542Y-122987700D01*
X108720058Y-124032700D02*
X108245542Y-124032700D01*
%TO.C,R35*%
X123290300Y-121242658D02*
X123290300Y-120768142D01*
X124335300Y-121242658D02*
X124335300Y-120768142D01*
%TO.C,C20*%
X109359020Y-96619600D02*
X109640180Y-96619600D01*
X109359020Y-97639600D02*
X109640180Y-97639600D01*
%TO.C,U4*%
X105943600Y-133177000D02*
X105143600Y-133177000D01*
X105943600Y-133177000D02*
X106743600Y-133177000D01*
X105943600Y-136297000D02*
X105143600Y-136297000D01*
X105943600Y-136297000D02*
X106743600Y-136297000D01*
X104643600Y-133227000D02*
X104403600Y-132897000D01*
X104883600Y-132897000D01*
X104643600Y-133227000D01*
G36*
X104643600Y-133227000D02*
G01*
X104403600Y-132897000D01*
X104883600Y-132897000D01*
X104643600Y-133227000D01*
G37*
%TO.C,R34*%
X132116300Y-122571742D02*
X132116300Y-123046258D01*
X133161300Y-122571742D02*
X133161300Y-123046258D01*
%TO.C,C19*%
X102588800Y-96000180D02*
X102588800Y-95719020D01*
X103608800Y-96000180D02*
X103608800Y-95719020D01*
%TO.C,R44*%
X137582300Y-102429542D02*
X137582300Y-102904058D01*
X138627300Y-102429542D02*
X138627300Y-102904058D01*
%TO.C,C18*%
X109396820Y-108811600D02*
X109677980Y-108811600D01*
X109396820Y-109831600D02*
X109677980Y-109831600D01*
%TO.C,J10*%
X92314000Y-108874600D02*
X92314000Y-111774600D01*
X94219000Y-106969600D02*
X97119000Y-106969600D01*
X94219000Y-113679600D02*
X97119000Y-113679600D01*
X99024000Y-108874600D02*
X99024000Y-111774600D01*
%TO.C,R37*%
X130541500Y-122571742D02*
X130541500Y-123046258D01*
X131586500Y-122571742D02*
X131586500Y-123046258D01*
%TO.C,R41*%
X153991200Y-103854942D02*
X153991200Y-104329458D01*
X155036200Y-103854942D02*
X155036200Y-104329458D01*
%TO.C,R32*%
X107186100Y-126084258D02*
X107186100Y-125609742D01*
X108231100Y-126084258D02*
X108231100Y-125609742D01*
%TO.C,J13*%
X92276200Y-133350200D02*
X92276200Y-136250200D01*
X94181200Y-131445200D02*
X97081200Y-131445200D01*
X94181200Y-138155200D02*
X97081200Y-138155200D01*
X98986200Y-133350200D02*
X98986200Y-136250200D01*
%TO.C,J12*%
X92314000Y-121120400D02*
X92314000Y-124020400D01*
X94219000Y-119215400D02*
X97119000Y-119215400D01*
X94219000Y-125925400D02*
X97119000Y-125925400D01*
X99024000Y-121120400D02*
X99024000Y-124020400D01*
%TO.C,U8*%
X128287000Y-93259600D02*
X128287000Y-103539600D01*
X128287000Y-103539600D02*
X129937000Y-103539600D01*
X131937000Y-103539600D02*
X133587000Y-103539600D01*
X133587000Y-93259600D02*
X128287000Y-93259600D01*
X133587000Y-103539600D02*
X133587000Y-93259600D01*
X129937000Y-103539600D02*
G75*
G02*
X131937000Y-103539600I1000000J0D01*
G01*
%TO.C,TP1*%
X128356400Y-130505200D02*
G75*
G02*
X126456400Y-130505200I-950000J0D01*
G01*
X126456400Y-130505200D02*
G75*
G02*
X128356400Y-130505200I950000J0D01*
G01*
%TO.C,C24*%
X104380020Y-125489400D02*
X104661180Y-125489400D01*
X104380020Y-126509400D02*
X104661180Y-126509400D01*
%TO.C,R43*%
X171636458Y-83856300D02*
X171161942Y-83856300D01*
X171636458Y-84901300D02*
X171161942Y-84901300D01*
%TO.C,J1*%
X161180000Y-92600000D02*
X162560000Y-92600000D01*
X161180000Y-93980000D02*
X161180000Y-92600000D01*
X161180000Y-95250000D02*
X161180000Y-136000000D01*
X161180000Y-95250000D02*
X163830000Y-95250000D01*
X161180000Y-136000000D02*
X166480000Y-136000000D01*
X163830000Y-92600000D02*
X166480000Y-92600000D01*
X163830000Y-95250000D02*
X163830000Y-92600000D01*
X166480000Y-92600000D02*
X166480000Y-136000000D01*
%TO.C,R42*%
X148362358Y-103429500D02*
X147887842Y-103429500D01*
X148362358Y-104474500D02*
X147887842Y-104474500D01*
%TO.C,D4*%
X142708200Y-113311600D02*
X142708200Y-117321600D01*
X144708200Y-113311600D02*
X142708200Y-113311600D01*
X144708200Y-113311600D02*
X144708200Y-117321600D01*
%TO.C,R25*%
X102048742Y-97572300D02*
X102523258Y-97572300D01*
X102048742Y-98617300D02*
X102523258Y-98617300D01*
%TO.C,U1*%
X148251400Y-110328400D02*
X148251400Y-120608400D01*
X148251400Y-120608400D02*
X153551400Y-120608400D01*
X149901400Y-110328400D02*
X148251400Y-110328400D01*
X153551400Y-110328400D02*
X151901400Y-110328400D01*
X153551400Y-120608400D02*
X153551400Y-110328400D01*
X151901400Y-110328400D02*
G75*
G02*
X149901400Y-110328400I-1000000J0D01*
G01*
%TO.C,R46*%
X125822600Y-108621058D02*
X125822600Y-108146542D01*
X126867600Y-108621058D02*
X126867600Y-108146542D01*
%TO.C,R30*%
X109275542Y-135179700D02*
X109750058Y-135179700D01*
X109275542Y-136224700D02*
X109750058Y-136224700D01*
%TO.C,C34*%
X124336500Y-108243420D02*
X124336500Y-108524580D01*
X125356500Y-108243420D02*
X125356500Y-108524580D01*
%TD*%
M02*
