%TF.GenerationSoftware,KiCad,Pcbnew,9.0.2*%
%TF.CreationDate,2025-06-26T21:31:22-07:00*%
%TF.ProjectId,tdm_b1,74646d5f-6231-42e6-9b69-6361645f7063,rev?*%
%TF.SameCoordinates,Original*%
%TF.FileFunction,Soldermask,Bot*%
%TF.FilePolarity,Negative*%
%FSLAX46Y46*%
G04 Gerber Fmt 4.6, Leading zero omitted, Abs format (unit mm)*
G04 Created by KiCad (PCBNEW 9.0.2) date 2025-06-26 21:31:22*
%MOMM*%
%LPD*%
G01*
G04 APERTURE LIST*
G04 Aperture macros list*
%AMRoundRect*
0 Rectangle with rounded corners*
0 $1 Rounding radius*
0 $2 $3 $4 $5 $6 $7 $8 $9 X,Y pos of 4 corners*
0 Add a 4 corners polygon primitive as box body*
4,1,4,$2,$3,$4,$5,$6,$7,$8,$9,$2,$3,0*
0 Add four circle primitives for the rounded corners*
1,1,$1+$1,$2,$3*
1,1,$1+$1,$4,$5*
1,1,$1+$1,$6,$7*
1,1,$1+$1,$8,$9*
0 Add four rect primitives between the rounded corners*
20,1,$1+$1,$2,$3,$4,$5,0*
20,1,$1+$1,$4,$5,$6,$7,0*
20,1,$1+$1,$6,$7,$8,$9,0*
20,1,$1+$1,$8,$9,$2,$3,0*%
G04 Aperture macros list end*
%ADD10C,5.600000*%
%ADD11C,2.050000*%
%ADD12C,2.250000*%
%ADD13C,1.200000*%
%ADD14O,2.300000X1.500000*%
%ADD15O,1.500000X2.300000*%
%ADD16R,1.700000X1.700000*%
%ADD17C,1.700000*%
%ADD18C,1.500000*%
%ADD19RoundRect,0.250000X0.550000X0.550000X-0.550000X0.550000X-0.550000X-0.550000X0.550000X-0.550000X0*%
%ADD20C,1.600000*%
%ADD21RoundRect,0.250000X-0.550000X-0.550000X0.550000X-0.550000X0.550000X0.550000X-0.550000X0.550000X0*%
G04 APERTURE END LIST*
D10*
%TO.C,H2*%
X185420000Y-143510000D03*
%TD*%
D11*
%TO.C,J11*%
X95631200Y-98132600D03*
D12*
X93091200Y-95592600D03*
X93091200Y-100672600D03*
X98171200Y-95592600D03*
X98171200Y-100672600D03*
%TD*%
D10*
%TO.C,H3*%
X185420000Y-67310000D03*
%TD*%
%TO.C,H4*%
X93980000Y-67310000D03*
%TD*%
D13*
%TO.C,J4*%
X188471800Y-74320400D03*
X184971800Y-74320400D03*
X179971800Y-79320400D03*
X188471800Y-84320400D03*
X184971800Y-84320400D03*
D14*
X179971800Y-76820400D03*
X179971800Y-81820400D03*
X179971800Y-84320400D03*
D15*
X184971800Y-79320400D03*
D14*
X179971800Y-74320400D03*
%TD*%
D16*
%TO.C,J9*%
X116840000Y-99060000D03*
D17*
X119380000Y-99060000D03*
X116840000Y-101600000D03*
X119380000Y-101600000D03*
X116840000Y-104140000D03*
X119380000Y-104140000D03*
X116840000Y-106680000D03*
X119380000Y-106680000D03*
X116840000Y-109220000D03*
X119380000Y-109220000D03*
X116840000Y-111760000D03*
X119380000Y-111760000D03*
X116840000Y-114300000D03*
X119380000Y-114300000D03*
X116840000Y-116840000D03*
X119380000Y-116840000D03*
X116840000Y-119380000D03*
X119380000Y-119380000D03*
X116840000Y-121920000D03*
X119380000Y-121920000D03*
X116840000Y-124460000D03*
X119380000Y-124460000D03*
X116840000Y-127000000D03*
X119380000Y-127000000D03*
X116840000Y-129540000D03*
X119380000Y-129540000D03*
X116840000Y-132080000D03*
X119380000Y-132080000D03*
X116840000Y-134620000D03*
X119380000Y-134620000D03*
%TD*%
D16*
%TO.C,J8*%
X116840000Y-76200000D03*
D17*
X119380000Y-76200000D03*
X116840000Y-78740000D03*
X119380000Y-78740000D03*
X116840000Y-81280000D03*
X119380000Y-81280000D03*
X116840000Y-83820000D03*
X119380000Y-83820000D03*
X116840000Y-86360000D03*
X119380000Y-86360000D03*
X116840000Y-88900000D03*
X119380000Y-88900000D03*
X116840000Y-91440000D03*
X119380000Y-91440000D03*
X116840000Y-93980000D03*
X119380000Y-93980000D03*
%TD*%
D13*
%TO.C,J2*%
X188471800Y-109873400D03*
X184971800Y-109873400D03*
X179971800Y-114873400D03*
X188471800Y-119873400D03*
X184971800Y-119873400D03*
D14*
X179971800Y-112373400D03*
X179971800Y-117373400D03*
X179971800Y-119873400D03*
D15*
X184971800Y-114873400D03*
D14*
X179971800Y-109873400D03*
%TD*%
D18*
%TO.C,TP2*%
X110693200Y-92202000D03*
%TD*%
D13*
%TO.C,J3*%
X188471800Y-127842000D03*
X184971800Y-127842000D03*
X179971800Y-132842000D03*
X188471800Y-137842000D03*
X184971800Y-137842000D03*
D14*
X179971800Y-130342000D03*
X179971800Y-135342000D03*
X179971800Y-137842000D03*
D15*
X184971800Y-132842000D03*
D14*
X179971800Y-127842000D03*
%TD*%
D18*
%TO.C,TP3*%
X157276800Y-99263200D03*
%TD*%
%TO.C,TP4*%
X137058400Y-114858800D03*
%TD*%
D13*
%TO.C,J5*%
X188471800Y-91930200D03*
X184971800Y-91930200D03*
X179971800Y-96930200D03*
X188471800Y-101930200D03*
X184971800Y-101930200D03*
D14*
X179971800Y-94430200D03*
X179971800Y-99430200D03*
X179971800Y-101930200D03*
D15*
X184971800Y-96930200D03*
D14*
X179971800Y-91930200D03*
%TD*%
D11*
%TO.C,J10*%
X95669000Y-110324600D03*
D12*
X93129000Y-107784600D03*
X93129000Y-112864600D03*
X98209000Y-107784600D03*
X98209000Y-112864600D03*
%TD*%
D10*
%TO.C,H1*%
X93980000Y-143510000D03*
%TD*%
D11*
%TO.C,J13*%
X95631200Y-134800200D03*
D12*
X93091200Y-132260200D03*
X93091200Y-137340200D03*
X98171200Y-132260200D03*
X98171200Y-137340200D03*
%TD*%
D11*
%TO.C,J12*%
X95669000Y-122570400D03*
D12*
X93129000Y-120030400D03*
X93129000Y-125110400D03*
X98209000Y-120030400D03*
X98209000Y-125110400D03*
%TD*%
D19*
%TO.C,U8*%
X134747000Y-102209600D03*
D20*
X134747000Y-99669600D03*
X134747000Y-97129600D03*
X134747000Y-94589600D03*
X127127000Y-94589600D03*
X127127000Y-97129600D03*
X127127000Y-99669600D03*
X127127000Y-102209600D03*
%TD*%
D18*
%TO.C,TP1*%
X127406400Y-130505200D03*
%TD*%
D16*
%TO.C,J1*%
X162560000Y-93980000D03*
D17*
X165100000Y-93980000D03*
X162560000Y-96520000D03*
X165100000Y-96520000D03*
X162560000Y-99060000D03*
X165100000Y-99060000D03*
X162560000Y-101600000D03*
X165100000Y-101600000D03*
X162560000Y-104140000D03*
X165100000Y-104140000D03*
X162560000Y-106680000D03*
X165100000Y-106680000D03*
X162560000Y-109220000D03*
X165100000Y-109220000D03*
X162560000Y-111760000D03*
X165100000Y-111760000D03*
X162560000Y-114300000D03*
X165100000Y-114300000D03*
X162560000Y-116840000D03*
X165100000Y-116840000D03*
X162560000Y-119380000D03*
X165100000Y-119380000D03*
X162560000Y-121920000D03*
X165100000Y-121920000D03*
X162560000Y-124460000D03*
X165100000Y-124460000D03*
X162560000Y-127000000D03*
X165100000Y-127000000D03*
X162560000Y-129540000D03*
X165100000Y-129540000D03*
X162560000Y-132080000D03*
X165100000Y-132080000D03*
X162560000Y-134620000D03*
X165100000Y-134620000D03*
%TD*%
D21*
%TO.C,U1*%
X147091400Y-111658400D03*
D20*
X147091400Y-114198400D03*
X147091400Y-116738400D03*
X147091400Y-119278400D03*
X154711400Y-119278400D03*
X154711400Y-116738400D03*
X154711400Y-114198400D03*
X154711400Y-111658400D03*
%TD*%
M02*
