%TF.GenerationSoftware,KiCad,Pcbnew,9.0.1*%
%TF.CreationDate,2025-06-08T13:48:49-07:00*%
%TF.ProjectId,pcm3168a_euro1,70636d33-3136-4386-915f-6575726f312e,rev?*%
%TF.SameCoordinates,Original*%
%TF.FileFunction,Soldermask,Top*%
%TF.FilePolarity,Negative*%
%FSLAX46Y46*%
G04 Gerber Fmt 4.6, Leading zero omitted, Abs format (unit mm)*
G04 Created by KiCad (PCBNEW 9.0.1) date 2025-06-08 13:48:49*
%MOMM*%
%LPD*%
G01*
G04 APERTURE LIST*
G04 Aperture macros list*
%AMRoundRect*
0 Rectangle with rounded corners*
0 $1 Rounding radius*
0 $2 $3 $4 $5 $6 $7 $8 $9 X,Y pos of 4 corners*
0 Add a 4 corners polygon primitive as box body*
4,1,4,$2,$3,$4,$5,$6,$7,$8,$9,$2,$3,0*
0 Add four circle primitives for the rounded corners*
1,1,$1+$1,$2,$3*
1,1,$1+$1,$4,$5*
1,1,$1+$1,$6,$7*
1,1,$1+$1,$8,$9*
0 Add four rect primitives between the rounded corners*
20,1,$1+$1,$2,$3,$4,$5,0*
20,1,$1+$1,$4,$5,$6,$7,0*
20,1,$1+$1,$6,$7,$8,$9,0*
20,1,$1+$1,$8,$9,$2,$3,0*%
G04 Aperture macros list end*
%ADD10C,0.000000*%
%ADD11R,1.600000X1.600000*%
%ADD12C,1.600000*%
%ADD13RoundRect,0.200000X0.200000X0.275000X-0.200000X0.275000X-0.200000X-0.275000X0.200000X-0.275000X0*%
%ADD14RoundRect,0.200000X-0.200000X-0.275000X0.200000X-0.275000X0.200000X0.275000X-0.200000X0.275000X0*%
%ADD15RoundRect,0.150000X-0.150000X0.512500X-0.150000X-0.512500X0.150000X-0.512500X0.150000X0.512500X0*%
%ADD16RoundRect,0.200000X0.275000X-0.200000X0.275000X0.200000X-0.275000X0.200000X-0.275000X-0.200000X0*%
%ADD17RoundRect,0.250000X-0.650000X0.325000X-0.650000X-0.325000X0.650000X-0.325000X0.650000X0.325000X0*%
%ADD18RoundRect,0.225000X0.250000X-0.225000X0.250000X0.225000X-0.250000X0.225000X-0.250000X-0.225000X0*%
%ADD19RoundRect,0.225000X-0.225000X-0.250000X0.225000X-0.250000X0.225000X0.250000X-0.225000X0.250000X0*%
%ADD20C,3.500000*%
%ADD21C,2.700000*%
%ADD22RoundRect,0.225000X-0.250000X0.225000X-0.250000X-0.225000X0.250000X-0.225000X0.250000X0.225000X0*%
%ADD23RoundRect,0.250000X-0.475000X0.250000X-0.475000X-0.250000X0.475000X-0.250000X0.475000X0.250000X0*%
%ADD24RoundRect,0.200000X-0.275000X0.200000X-0.275000X-0.200000X0.275000X-0.200000X0.275000X0.200000X0*%
%ADD25C,2.050000*%
%ADD26C,2.250000*%
%ADD27C,5.600000*%
%ADD28RoundRect,0.225000X0.225000X0.250000X-0.225000X0.250000X-0.225000X-0.250000X0.225000X-0.250000X0*%
%ADD29RoundRect,0.100000X0.100000X-0.712500X0.100000X0.712500X-0.100000X0.712500X-0.100000X-0.712500X0*%
%ADD30RoundRect,0.250000X0.650000X-0.325000X0.650000X0.325000X-0.650000X0.325000X-0.650000X-0.325000X0*%
%ADD31R,1.700000X1.700000*%
%ADD32C,1.700000*%
%ADD33R,1.100000X0.900000*%
%ADD34C,1.500000*%
%ADD35RoundRect,0.218750X-0.218750X-0.256250X0.218750X-0.256250X0.218750X0.256250X-0.218750X0.256250X0*%
%ADD36RoundRect,0.250000X0.325000X0.650000X-0.325000X0.650000X-0.325000X-0.650000X0.325000X-0.650000X0*%
%ADD37R,0.299999X1.649999*%
%ADD38R,1.649999X0.299999*%
%ADD39C,3.352800*%
%ADD40RoundRect,0.375000X-0.625000X-0.375000X0.625000X-0.375000X0.625000X0.375000X-0.625000X0.375000X0*%
%ADD41RoundRect,0.500000X-0.500000X-1.400000X0.500000X-1.400000X0.500000X1.400000X-0.500000X1.400000X0*%
%ADD42RoundRect,0.250000X-0.325000X-0.650000X0.325000X-0.650000X0.325000X0.650000X-0.325000X0.650000X0*%
%ADD43RoundRect,0.150000X0.512500X0.150000X-0.512500X0.150000X-0.512500X-0.150000X0.512500X-0.150000X0*%
%ADD44RoundRect,0.150000X0.150000X-0.512500X0.150000X0.512500X-0.150000X0.512500X-0.150000X-0.512500X0*%
%ADD45RoundRect,0.250000X0.300000X0.300000X-0.300000X0.300000X-0.300000X-0.300000X0.300000X-0.300000X0*%
%ADD46R,1.800000X1.800000*%
%ADD47C,1.800000*%
G04 APERTURE END LIST*
D10*
%TO.C,U1*%
G36*
X170258030Y-132739871D02*
G01*
X170264596Y-132741863D01*
X170270646Y-132745096D01*
X170275950Y-132749450D01*
X170280303Y-132754753D01*
X170283537Y-132760804D01*
X170285528Y-132767370D01*
X170286201Y-132774200D01*
X170286201Y-139704198D01*
X170285528Y-139711028D01*
X170283537Y-139717594D01*
X170280303Y-139723645D01*
X170275950Y-139728948D01*
X170270646Y-139733302D01*
X170264596Y-139736535D01*
X170258030Y-139738527D01*
X170251200Y-139739200D01*
X163061202Y-139739200D01*
X163054372Y-139738527D01*
X163047806Y-139736535D01*
X163041756Y-139733302D01*
X163036452Y-139728948D01*
X163032099Y-139723645D01*
X163028865Y-139717594D01*
X163026874Y-139711028D01*
X163026201Y-139704198D01*
X163026201Y-132774200D01*
X163026874Y-132767370D01*
X163028865Y-132760804D01*
X163032099Y-132754753D01*
X163036452Y-132749450D01*
X163041756Y-132745096D01*
X163047806Y-132741863D01*
X163054372Y-132739871D01*
X163061202Y-132739198D01*
X170251200Y-132739198D01*
X170258030Y-132739871D01*
G37*
%TD*%
D11*
%TO.C,C80*%
X129792400Y-158939501D03*
D12*
X126292400Y-158939501D03*
%TD*%
D11*
%TO.C,C119*%
X215633300Y-166763700D03*
D12*
X219133300Y-166763700D03*
%TD*%
D13*
%TO.C,R6*%
X238899200Y-71729600D03*
X237249200Y-71729600D03*
%TD*%
%TO.C,R69*%
X139894600Y-148145999D03*
X138244600Y-148145999D03*
%TD*%
D14*
%TO.C,R81*%
X146651000Y-165975300D03*
X148301000Y-165975300D03*
%TD*%
D15*
%TO.C,U8*%
X168094700Y-172128600D03*
X167144700Y-172128600D03*
X166194700Y-172128600D03*
X166194700Y-174403600D03*
X168094700Y-174403600D03*
%TD*%
D16*
%TO.C,R106*%
X202514200Y-127317000D03*
X202514200Y-125667000D03*
%TD*%
D13*
%TO.C,R8*%
X238238800Y-194183000D03*
X236588800Y-194183000D03*
%TD*%
%TO.C,R51*%
X139950600Y-130251699D03*
X138300600Y-130251699D03*
%TD*%
D17*
%TO.C,C7*%
X172132600Y-146744198D03*
X172132600Y-149694198D03*
%TD*%
D14*
%TO.C,R23*%
X181694100Y-91099700D03*
X183344100Y-91099700D03*
%TD*%
D11*
%TO.C,C46*%
X134696700Y-93752900D03*
D12*
X134696700Y-97252900D03*
%TD*%
D18*
%TO.C,C92*%
X198931300Y-107479200D03*
X198931300Y-105929200D03*
%TD*%
D19*
%TO.C,C77*%
X138294800Y-149695399D03*
X139844800Y-149695399D03*
%TD*%
D20*
%TO.C,J21*%
X119855000Y-140907000D03*
D21*
X121565000Y-147977000D03*
D20*
X115745000Y-151957000D03*
X108805000Y-145017000D03*
D21*
X112685000Y-139197000D03*
%TD*%
D18*
%TO.C,C4*%
X167941600Y-145808598D03*
X167941600Y-144258598D03*
%TD*%
D11*
%TO.C,C102*%
X215582500Y-120383300D03*
D12*
X219082500Y-120383300D03*
%TD*%
D14*
%TO.C,R36*%
X143467100Y-95697100D03*
X145117100Y-95697100D03*
%TD*%
D22*
%TO.C,C82*%
X136630200Y-162711100D03*
X136630200Y-164261100D03*
%TD*%
D13*
%TO.C,R77*%
X139728000Y-165899100D03*
X138078000Y-165899100D03*
%TD*%
D23*
%TO.C,C93*%
X200685400Y-105741200D03*
X200685400Y-107641200D03*
%TD*%
D24*
%TO.C,R105*%
X202463400Y-122415800D03*
X202463400Y-124065800D03*
%TD*%
D13*
%TO.C,R100*%
X192046900Y-126998500D03*
X190396900Y-126998500D03*
%TD*%
D11*
%TO.C,C74*%
X129908200Y-150025599D03*
D12*
X126408200Y-150025599D03*
%TD*%
D25*
%TO.C,J9*%
X183801300Y-83555900D03*
D26*
X186341300Y-81015900D03*
X181261300Y-81015900D03*
X186341300Y-86095900D03*
X181261300Y-86095900D03*
%TD*%
D27*
%TO.C,H6*%
X243700300Y-194171100D03*
%TD*%
D13*
%TO.C,R38*%
X148316500Y-98694300D03*
X146666500Y-98694300D03*
%TD*%
%TO.C,R82*%
X187615100Y-105802200D03*
X185965100Y-105802200D03*
%TD*%
%TO.C,R66*%
X135335800Y-144971000D03*
X133685800Y-144971000D03*
%TD*%
D28*
%TO.C,C90*%
X192023100Y-102830400D03*
X190473100Y-102830400D03*
%TD*%
D29*
%TO.C,U20*%
X194465300Y-145443200D03*
X195115300Y-145443200D03*
X195765300Y-145443200D03*
X196415300Y-145443200D03*
X196415300Y-141218200D03*
X195765300Y-141218200D03*
X195115300Y-141218200D03*
X194465300Y-141218200D03*
%TD*%
D13*
%TO.C,R70*%
X139920000Y-144894800D03*
X138270000Y-144894800D03*
%TD*%
D28*
%TO.C,C23*%
X153402300Y-170390400D03*
X151852300Y-170390400D03*
%TD*%
D13*
%TO.C,R101*%
X192060100Y-124001300D03*
X190410100Y-124001300D03*
%TD*%
D29*
%TO.C,U17*%
X204611100Y-108767100D03*
X205261100Y-108767100D03*
X205911100Y-108767100D03*
X206561100Y-108767100D03*
X206561100Y-104542100D03*
X205911100Y-104542100D03*
X205261100Y-104542100D03*
X204611100Y-104542100D03*
%TD*%
D13*
%TO.C,R111*%
X187589700Y-142441700D03*
X185939700Y-142441700D03*
%TD*%
D24*
%TO.C,R33*%
X153985900Y-176030200D03*
X153985900Y-177680200D03*
%TD*%
D14*
%TO.C,R108*%
X209015100Y-127114300D03*
X210665100Y-127114300D03*
%TD*%
D11*
%TO.C,C73*%
X129959000Y-141186400D03*
D12*
X126459000Y-141186400D03*
%TD*%
D15*
%TO.C,U5*%
X155890900Y-172128600D03*
X154940900Y-172128600D03*
X153990900Y-172128600D03*
X153990900Y-174403600D03*
X155890900Y-174403600D03*
%TD*%
D13*
%TO.C,R124*%
X212457300Y-143979900D03*
X210807300Y-143979900D03*
%TD*%
D14*
%TO.C,R2*%
X138342000Y-107607600D03*
X139992000Y-107607600D03*
%TD*%
D16*
%TO.C,R90*%
X164376000Y-145884400D03*
X164376000Y-144234400D03*
%TD*%
D14*
%TO.C,R104*%
X198819000Y-127355600D03*
X200469000Y-127355600D03*
%TD*%
D13*
%TO.C,R128*%
X192046900Y-164184100D03*
X190396900Y-164184100D03*
%TD*%
D19*
%TO.C,C84*%
X138128200Y-167448500D03*
X139678200Y-167448500D03*
%TD*%
D13*
%TO.C,R48*%
X135391800Y-127076700D03*
X133741800Y-127076700D03*
%TD*%
D16*
%TO.C,R134*%
X202717400Y-164553400D03*
X202717400Y-162903400D03*
%TD*%
D11*
%TO.C,C42*%
X102577900Y-91123500D03*
D12*
X102577900Y-94623500D03*
%TD*%
D14*
%TO.C,R76*%
X138104400Y-161073101D03*
X139754400Y-161073101D03*
%TD*%
D20*
%TO.C,J26*%
X234957900Y-138619500D03*
D21*
X236667900Y-145689500D03*
D20*
X230847900Y-149669500D03*
X223907900Y-142729500D03*
D21*
X227787900Y-136909500D03*
%TD*%
D19*
%TO.C,C98*%
X190447700Y-128497100D03*
X191997700Y-128497100D03*
%TD*%
D14*
%TO.C,R118*%
X198793600Y-145796000D03*
X200443600Y-145796000D03*
%TD*%
D13*
%TO.C,R114*%
X192046900Y-145464300D03*
X190396900Y-145464300D03*
%TD*%
D27*
%TO.C,H1*%
X91300300Y-71667100D03*
%TD*%
D14*
%TO.C,R29*%
X169502100Y-91099700D03*
X171152100Y-91099700D03*
%TD*%
%TO.C,R59*%
X133743600Y-110858799D03*
X135393600Y-110858799D03*
%TD*%
D30*
%TO.C,C1*%
X161515400Y-128056998D03*
X161515400Y-125106998D03*
%TD*%
D24*
%TO.C,R30*%
X171761700Y-96764900D03*
X171761700Y-98414900D03*
%TD*%
D14*
%TO.C,R99*%
X190396900Y-122502700D03*
X192046900Y-122502700D03*
%TD*%
D28*
%TO.C,C19*%
X177798100Y-170390400D03*
X176248100Y-170390400D03*
%TD*%
%TO.C,C5*%
X172184000Y-128281998D03*
X170634000Y-128281998D03*
%TD*%
D22*
%TO.C,C44*%
X108038900Y-83351100D03*
X108038900Y-84901100D03*
%TD*%
D31*
%TO.C,J8*%
X169595800Y-157561200D03*
D32*
X169595800Y-155021200D03*
%TD*%
D24*
%TO.C,R24*%
X168389200Y-126721600D03*
X168389200Y-128371600D03*
%TD*%
D25*
%TO.C,J10*%
X179149100Y-182733500D03*
D26*
X176609100Y-185273500D03*
X181689100Y-185273500D03*
X176609100Y-180193500D03*
X181689100Y-180193500D03*
%TD*%
D29*
%TO.C,U22*%
X194465300Y-164163000D03*
X195115300Y-164163000D03*
X195765300Y-164163000D03*
X196415300Y-164163000D03*
X196415300Y-159938000D03*
X195765300Y-159938000D03*
X195115300Y-159938000D03*
X194465300Y-159938000D03*
%TD*%
D13*
%TO.C,R115*%
X192060100Y-142467100D03*
X190410100Y-142467100D03*
%TD*%
D16*
%TO.C,R35*%
X146742700Y-97220100D03*
X146742700Y-95570100D03*
%TD*%
D33*
%TO.C,Y1*%
X151693900Y-97373500D03*
X149993900Y-97373500D03*
X149993900Y-98673500D03*
X151693900Y-98673500D03*
%TD*%
D16*
%TO.C,R94*%
X202463400Y-109130600D03*
X202463400Y-107480600D03*
%TD*%
D25*
%TO.C,J11*%
X171609300Y-83555900D03*
D26*
X174149300Y-81015900D03*
X169069300Y-81015900D03*
X174149300Y-86095900D03*
X169069300Y-86095900D03*
%TD*%
D23*
%TO.C,C86*%
X148568200Y-162573900D03*
X148568200Y-164473900D03*
%TD*%
D34*
%TO.C,TP4*%
X162941000Y-99110800D03*
%TD*%
D13*
%TO.C,R109*%
X212456300Y-124015500D03*
X210806300Y-124015500D03*
%TD*%
D28*
%TO.C,C29*%
X165606100Y-170390400D03*
X164056100Y-170390400D03*
%TD*%
D19*
%TO.C,C17*%
X186543900Y-90159900D03*
X188093900Y-90159900D03*
%TD*%
D13*
%TO.C,R125*%
X187589700Y-161161500D03*
X185939700Y-161161500D03*
%TD*%
D19*
%TO.C,C114*%
X190447700Y-165682700D03*
X191997700Y-165682700D03*
%TD*%
D18*
%TO.C,C85*%
X146714000Y-164223300D03*
X146714000Y-162673300D03*
%TD*%
D13*
%TO.C,R137*%
X212456300Y-161201100D03*
X210806300Y-161201100D03*
%TD*%
D35*
%TO.C,L1*%
X100444100Y-84443300D03*
X102019100Y-84443300D03*
%TD*%
D14*
%TO.C,R3*%
X95974400Y-71653400D03*
X97624400Y-71653400D03*
%TD*%
D24*
%TO.C,R22*%
X184995100Y-88586100D03*
X184995100Y-90236100D03*
%TD*%
D19*
%TO.C,C39*%
X138350800Y-131801099D03*
X139900800Y-131801099D03*
%TD*%
D20*
%TO.C,J24*%
X234983300Y-101980000D03*
D21*
X236693300Y-109050000D03*
D20*
X230873300Y-113030000D03*
X223933300Y-106090000D03*
D21*
X227813300Y-100270000D03*
%TD*%
D20*
%TO.C,J22*%
X119688400Y-158660101D03*
D21*
X121398400Y-165730101D03*
D20*
X115578400Y-169710101D03*
X108638400Y-162770101D03*
D21*
X112518400Y-156950101D03*
%TD*%
D18*
%TO.C,C78*%
X146880600Y-146470199D03*
X146880600Y-144920199D03*
%TD*%
D27*
%TO.C,H5*%
X167500300Y-194171100D03*
%TD*%
D13*
%TO.C,R87*%
X192097700Y-107326200D03*
X190447700Y-107326200D03*
%TD*%
D14*
%TO.C,R65*%
X146888600Y-112509799D03*
X148538600Y-112509799D03*
%TD*%
D28*
%TO.C,C32*%
X139928800Y-106032800D03*
X138378800Y-106032800D03*
%TD*%
D34*
%TO.C,TP3*%
X193471800Y-99237800D03*
%TD*%
D11*
%TO.C,C87*%
X215607900Y-102209600D03*
D12*
X219107900Y-102209600D03*
%TD*%
D25*
%TO.C,J19*%
X114820700Y-81700100D03*
D26*
X112280700Y-79160100D03*
X112280700Y-84240100D03*
X117360700Y-79160100D03*
X117360700Y-84240100D03*
%TD*%
D14*
%TO.C,R92*%
X209040500Y-108940600D03*
X210690500Y-108940600D03*
%TD*%
D19*
%TO.C,C10*%
X157171400Y-131279198D03*
X158721400Y-131279198D03*
%TD*%
D13*
%TO.C,R52*%
X139976000Y-127000500D03*
X138326000Y-127000500D03*
%TD*%
D29*
%TO.C,U18*%
X194465300Y-126977400D03*
X195115300Y-126977400D03*
X195765300Y-126977400D03*
X196415300Y-126977400D03*
X196415300Y-122752400D03*
X195765300Y-122752400D03*
X195115300Y-122752400D03*
X194465300Y-122752400D03*
%TD*%
D19*
%TO.C,C24*%
X156220500Y-176080000D03*
X157770500Y-176080000D03*
%TD*%
D28*
%TO.C,C113*%
X191997700Y-158189700D03*
X190447700Y-158189700D03*
%TD*%
D14*
%TO.C,R73*%
X146817600Y-148222199D03*
X148467600Y-148222199D03*
%TD*%
D24*
%TO.C,R119*%
X202615800Y-140881600D03*
X202615800Y-142531600D03*
%TD*%
D13*
%TO.C,R116*%
X192072300Y-143965700D03*
X190422300Y-143965700D03*
%TD*%
D17*
%TO.C,C2*%
X168373400Y-147458998D03*
X168373400Y-150408998D03*
%TD*%
D36*
%TO.C,C15*%
X157481800Y-142011400D03*
X154531800Y-142011400D03*
%TD*%
D24*
%TO.C,R31*%
X154900300Y-168816600D03*
X154900300Y-170466600D03*
%TD*%
D13*
%TO.C,R95*%
X212481700Y-105841800D03*
X210831700Y-105841800D03*
%TD*%
D14*
%TO.C,R126*%
X185927500Y-162685500D03*
X187577500Y-162685500D03*
%TD*%
D16*
%TO.C,R44*%
X160184700Y-90259200D03*
X160184700Y-88609200D03*
%TD*%
D22*
%TO.C,C49*%
X102120700Y-85941300D03*
X102120700Y-87491300D03*
%TD*%
D24*
%TO.C,R133*%
X202692000Y-159601400D03*
X202692000Y-161251400D03*
%TD*%
D13*
%TO.C,R138*%
X212457300Y-162699700D03*
X210807300Y-162699700D03*
%TD*%
D18*
%TO.C,C22*%
X175190700Y-95291300D03*
X175190700Y-93741300D03*
%TD*%
%TO.C,C115*%
X198905900Y-162838500D03*
X198905900Y-161288500D03*
%TD*%
D13*
%TO.C,R61*%
X139965600Y-112433599D03*
X138315600Y-112433599D03*
%TD*%
D20*
%TO.C,J25*%
X234957900Y-120153700D03*
D21*
X236667900Y-127223700D03*
D20*
X230847900Y-131203700D03*
X223907900Y-124263700D03*
D21*
X227787900Y-118443700D03*
%TD*%
D18*
%TO.C,C40*%
X146936600Y-128575899D03*
X146936600Y-127025899D03*
%TD*%
%TO.C,C18*%
X185152200Y-95385800D03*
X185152200Y-93835800D03*
%TD*%
D22*
%TO.C,C47*%
X103771700Y-85915900D03*
X103771700Y-87465900D03*
%TD*%
D25*
%TO.C,J14*%
X166957100Y-182733500D03*
D26*
X164417100Y-185273500D03*
X169497100Y-185273500D03*
X164417100Y-180193500D03*
X169497100Y-180193500D03*
%TD*%
D28*
%TO.C,C38*%
X139913800Y-123850900D03*
X138363800Y-123850900D03*
%TD*%
D34*
%TO.C,TP2*%
X206349600Y-99009200D03*
%TD*%
D37*
%TO.C,U1*%
X162906201Y-142064199D03*
X163406202Y-142064199D03*
X163906201Y-142064199D03*
X164406200Y-142064199D03*
X164906202Y-142064199D03*
X165406201Y-142064199D03*
X165906200Y-142064199D03*
X166406201Y-142064199D03*
X166906201Y-142064199D03*
X167406202Y-142064199D03*
X167906201Y-142064199D03*
X168406200Y-142064199D03*
X168906202Y-142064199D03*
X169406201Y-142064199D03*
X169906202Y-142064199D03*
X170406201Y-142064199D03*
D38*
X172481201Y-139989199D03*
X172481201Y-139489198D03*
X172481201Y-138989199D03*
X172481201Y-138489200D03*
X172481201Y-137989198D03*
X172481201Y-137489199D03*
X172481201Y-136989200D03*
X172481201Y-136489199D03*
X172481201Y-135989199D03*
X172481201Y-135489198D03*
X172481201Y-134989199D03*
X172481201Y-134489200D03*
X172481201Y-133989198D03*
X172481201Y-133489199D03*
X172481201Y-132989198D03*
X172481201Y-132489199D03*
D37*
X170406201Y-130414199D03*
X169906202Y-130414199D03*
X169406201Y-130414199D03*
X168906202Y-130414199D03*
X168406200Y-130414199D03*
X167906201Y-130414199D03*
X167406202Y-130414199D03*
X166906201Y-130414199D03*
X166406201Y-130414199D03*
X165906200Y-130414199D03*
X165406201Y-130414199D03*
X164906202Y-130414199D03*
X164406200Y-130414199D03*
X163906201Y-130414199D03*
X163406202Y-130414199D03*
X162906201Y-130414199D03*
D38*
X160831201Y-132489199D03*
X160831201Y-132989198D03*
X160831201Y-133489199D03*
X160831201Y-133989198D03*
X160831201Y-134489200D03*
X160831201Y-134989199D03*
X160831201Y-135489198D03*
X160831201Y-135989199D03*
X160831201Y-136489199D03*
X160831201Y-136989200D03*
X160831201Y-137489199D03*
X160831201Y-137989198D03*
X160831201Y-138489200D03*
X160831201Y-138989199D03*
X160831201Y-139489198D03*
X160831201Y-139989199D03*
D39*
X164956201Y-134639199D03*
%TD*%
D16*
%TO.C,R37*%
X147707900Y-90082700D03*
X147707900Y-88432700D03*
%TD*%
D22*
%TO.C,C89*%
X189025300Y-105801600D03*
X189025300Y-107351600D03*
%TD*%
%TO.C,C48*%
X128778700Y-89643800D03*
X128778700Y-91193800D03*
%TD*%
D28*
%TO.C,C97*%
X191997700Y-121004100D03*
X190447700Y-121004100D03*
%TD*%
D24*
%TO.C,R19*%
X172237400Y-153988000D03*
X172237400Y-155638000D03*
%TD*%
D14*
%TO.C,R57*%
X108217700Y-81827100D03*
X109867700Y-81827100D03*
%TD*%
D13*
%TO.C,R72*%
X148442200Y-143269200D03*
X146792200Y-143269200D03*
%TD*%
D25*
%TO.C,J12*%
X154753300Y-182733500D03*
D26*
X152213300Y-185273500D03*
X157293300Y-185273500D03*
X152213300Y-180193500D03*
X157293300Y-180193500D03*
%TD*%
D14*
%TO.C,R136*%
X209015100Y-164299900D03*
X210665100Y-164299900D03*
%TD*%
D40*
%TO.C,U12*%
X130810100Y-84340900D03*
X130810100Y-86640900D03*
X130810100Y-88940900D03*
D41*
X137110100Y-86640900D03*
%TD*%
D24*
%TO.C,R43*%
X165868900Y-89334900D03*
X165868900Y-90984900D03*
%TD*%
D18*
%TO.C,C9*%
X162887000Y-145974598D03*
X162887000Y-144424598D03*
%TD*%
D11*
%TO.C,C31*%
X130030000Y-105474000D03*
D12*
X126530000Y-105474000D03*
%TD*%
D13*
%TO.C,R110*%
X212457300Y-125514100D03*
X210807300Y-125514100D03*
%TD*%
D28*
%TO.C,C26*%
X145066900Y-97221100D03*
X143516900Y-97221100D03*
%TD*%
%TO.C,C34*%
X160172400Y-91770200D03*
X158622400Y-91770200D03*
%TD*%
D18*
%TO.C,C95*%
X209091300Y-107378800D03*
X209091300Y-105828800D03*
%TD*%
D24*
%TO.C,R41*%
X166189700Y-176030200D03*
X166189700Y-177680200D03*
%TD*%
D14*
%TO.C,R84*%
X190422300Y-104329000D03*
X192072300Y-104329000D03*
%TD*%
D29*
%TO.C,U19*%
X204585700Y-126940800D03*
X205235700Y-126940800D03*
X205885700Y-126940800D03*
X206535700Y-126940800D03*
X206535700Y-122715800D03*
X205885700Y-122715800D03*
X205235700Y-122715800D03*
X204585700Y-122715800D03*
%TD*%
D19*
%TO.C,C33*%
X167291300Y-92572900D03*
X168841300Y-92572900D03*
%TD*%
D16*
%TO.C,R20*%
X166331800Y-145884400D03*
X166331800Y-144234400D03*
%TD*%
D14*
%TO.C,R83*%
X185952900Y-107326200D03*
X187602900Y-107326200D03*
%TD*%
D13*
%TO.C,R80*%
X148275600Y-161022301D03*
X146625600Y-161022301D03*
%TD*%
%TO.C,R96*%
X212482700Y-107340400D03*
X210832700Y-107340400D03*
%TD*%
%TO.C,R71*%
X139907800Y-146596599D03*
X138257800Y-146596599D03*
%TD*%
%TO.C,R64*%
X148513200Y-107556800D03*
X146863200Y-107556800D03*
%TD*%
%TO.C,R85*%
X192072300Y-108824800D03*
X190422300Y-108824800D03*
%TD*%
%TO.C,R58*%
X135406800Y-109258600D03*
X133756800Y-109258600D03*
%TD*%
D24*
%TO.C,R25*%
X179296100Y-168816600D03*
X179296100Y-170466600D03*
%TD*%
D13*
%TO.C,R121*%
X210640700Y-140931900D03*
X208990700Y-140931900D03*
%TD*%
%TO.C,R26*%
X182419300Y-170390400D03*
X180769300Y-170390400D03*
%TD*%
D42*
%TO.C,C8*%
X170782800Y-126326198D03*
X173732800Y-126326198D03*
%TD*%
D13*
%TO.C,R54*%
X148498200Y-125374900D03*
X146848200Y-125374900D03*
%TD*%
D18*
%TO.C,C94*%
X150050500Y-95327500D03*
X150050500Y-93777500D03*
%TD*%
D24*
%TO.C,R28*%
X172803100Y-88586100D03*
X172803100Y-90236100D03*
%TD*%
D13*
%TO.C,R40*%
X170227300Y-170390400D03*
X168577300Y-170390400D03*
%TD*%
D14*
%TO.C,R50*%
X138327000Y-125425700D03*
X139977000Y-125425700D03*
%TD*%
D11*
%TO.C,C88*%
X215658700Y-111404400D03*
D12*
X219158700Y-111404400D03*
%TD*%
D25*
%TO.C,J15*%
X159417300Y-83555900D03*
D26*
X161957300Y-81015900D03*
X156877300Y-81015900D03*
X161957300Y-86095900D03*
X156877300Y-86095900D03*
%TD*%
D18*
%TO.C,C107*%
X198905900Y-144118700D03*
X198905900Y-142568700D03*
%TD*%
D24*
%TO.C,R34*%
X151676100Y-93727700D03*
X151676100Y-95377700D03*
%TD*%
D28*
%TO.C,C105*%
X191997700Y-139469900D03*
X190447700Y-139469900D03*
%TD*%
D29*
%TO.C,U13*%
X142434800Y-112183899D03*
X143084800Y-112183899D03*
X143734800Y-112183899D03*
X144384800Y-112183899D03*
X144384800Y-107958899D03*
X143734800Y-107958899D03*
X143084800Y-107958899D03*
X142434800Y-107958899D03*
%TD*%
D13*
%TO.C,R88*%
X200469000Y-104190800D03*
X198819000Y-104190800D03*
%TD*%
D20*
%TO.C,J17*%
X119911000Y-123012700D03*
D21*
X121621000Y-130082700D03*
D20*
X115801000Y-134062700D03*
X108861000Y-127122700D03*
D21*
X112741000Y-121302700D03*
%TD*%
D29*
%TO.C,U23*%
X204585700Y-164126400D03*
X205235700Y-164126400D03*
X205885700Y-164126400D03*
X206535700Y-164126400D03*
X206535700Y-159901400D03*
X205885700Y-159901400D03*
X205235700Y-159901400D03*
X204585700Y-159901400D03*
%TD*%
D13*
%TO.C,R32*%
X158023500Y-170390400D03*
X156373500Y-170390400D03*
%TD*%
%TO.C,R131*%
X200443600Y-159562800D03*
X198793600Y-159562800D03*
%TD*%
D23*
%TO.C,C72*%
X148805800Y-109108399D03*
X148805800Y-111008399D03*
%TD*%
D13*
%TO.C,R63*%
X139978800Y-110884199D03*
X138328800Y-110884199D03*
%TD*%
D18*
%TO.C,C27*%
X144304300Y-91532100D03*
X144304300Y-89982100D03*
%TD*%
D22*
%TO.C,C96*%
X188999900Y-123975300D03*
X188999900Y-125525300D03*
%TD*%
D14*
%TO.C,R75*%
X133506000Y-164324300D03*
X135156000Y-164324300D03*
%TD*%
D19*
%TO.C,C21*%
X174351900Y-90159900D03*
X175901900Y-90159900D03*
%TD*%
%TO.C,C20*%
X180616300Y-176080000D03*
X182166300Y-176080000D03*
%TD*%
D14*
%TO.C,R98*%
X185927500Y-125499900D03*
X187577500Y-125499900D03*
%TD*%
D25*
%TO.C,J13*%
X147149100Y-83581300D03*
D26*
X149689100Y-86121300D03*
X149689100Y-81041300D03*
X144609100Y-86121300D03*
X144609100Y-81041300D03*
%TD*%
D22*
%TO.C,C50*%
X127178500Y-89669200D03*
X127178500Y-91219200D03*
%TD*%
D13*
%TO.C,R123*%
X212456300Y-142481300D03*
X210806300Y-142481300D03*
%TD*%
D19*
%TO.C,C30*%
X168424300Y-176080000D03*
X169974300Y-176080000D03*
%TD*%
D29*
%TO.C,U11*%
X142419800Y-130001999D03*
X143069800Y-130001999D03*
X143719800Y-130001999D03*
X144369800Y-130001999D03*
X144369800Y-125776999D03*
X143719800Y-125776999D03*
X143069800Y-125776999D03*
X142419800Y-125776999D03*
%TD*%
D15*
%TO.C,U3*%
X180286700Y-172128600D03*
X179336700Y-172128600D03*
X178386700Y-172128600D03*
X178386700Y-174403600D03*
X180286700Y-174403600D03*
%TD*%
D13*
%TO.C,R91*%
X210666100Y-104292400D03*
X209016100Y-104292400D03*
%TD*%
D23*
%TO.C,C100*%
X200710800Y-123941800D03*
X200710800Y-125841800D03*
%TD*%
D18*
%TO.C,C117*%
X209065900Y-162738100D03*
X209065900Y-161188100D03*
%TD*%
%TO.C,C109*%
X209065900Y-144018300D03*
X209065900Y-142468300D03*
%TD*%
D43*
%TO.C,U9*%
X164187000Y-92227500D03*
X164187000Y-91277500D03*
X164187000Y-90327500D03*
X161912000Y-90327500D03*
X161912000Y-92227500D03*
%TD*%
D17*
%TO.C,C14*%
X158569000Y-144282798D03*
X158569000Y-147232798D03*
%TD*%
D14*
%TO.C,R55*%
X146873600Y-130327899D03*
X148523600Y-130327899D03*
%TD*%
D18*
%TO.C,C99*%
X198905900Y-125652900D03*
X198905900Y-124102900D03*
%TD*%
D13*
%TO.C,R97*%
X187589700Y-123975900D03*
X185939700Y-123975900D03*
%TD*%
D18*
%TO.C,C65*%
X128727700Y-85207000D03*
X128727700Y-83657000D03*
%TD*%
D11*
%TO.C,C118*%
X215582500Y-157568900D03*
D12*
X219082500Y-157568900D03*
%TD*%
D14*
%TO.C,R56*%
X97358700Y-84468700D03*
X99008700Y-84468700D03*
%TD*%
D13*
%TO.C,R102*%
X192072300Y-125499900D03*
X190422300Y-125499900D03*
%TD*%
D22*
%TO.C,C75*%
X136796800Y-144957999D03*
X136796800Y-146507999D03*
%TD*%
D19*
%TO.C,C91*%
X190473100Y-110323400D03*
X192023100Y-110323400D03*
%TD*%
D36*
%TO.C,C16*%
X157456400Y-139573000D03*
X154506400Y-139573000D03*
%TD*%
D13*
%TO.C,R139*%
X201649600Y-88188800D03*
X199999600Y-88188800D03*
%TD*%
D29*
%TO.C,U14*%
X142363800Y-147896299D03*
X143013800Y-147896299D03*
X143663800Y-147896299D03*
X144313800Y-147896299D03*
X144313800Y-143671299D03*
X143663800Y-143671299D03*
X143013800Y-143671299D03*
X142363800Y-143671299D03*
%TD*%
D14*
%TO.C,R68*%
X138271000Y-143320000D03*
X139921000Y-143320000D03*
%TD*%
%TO.C,R127*%
X190396900Y-159688300D03*
X192046900Y-159688300D03*
%TD*%
D16*
%TO.C,R120*%
X202615800Y-145757400D03*
X202615800Y-144107400D03*
%TD*%
D18*
%TO.C,C62*%
X127178300Y-85231800D03*
X127178300Y-83681800D03*
%TD*%
D22*
%TO.C,C43*%
X99021900Y-86042900D03*
X99021900Y-87592900D03*
%TD*%
D11*
%TO.C,C35*%
X130015000Y-123292100D03*
D12*
X126515000Y-123292100D03*
%TD*%
D34*
%TO.C,TP1*%
X144907000Y-103403400D03*
%TD*%
D14*
%TO.C,R132*%
X198804300Y-164592000D03*
X200454300Y-164592000D03*
%TD*%
D36*
%TO.C,C11*%
X158598000Y-129323398D03*
X155648000Y-129323398D03*
%TD*%
D44*
%TO.C,U6*%
X145802900Y-93958900D03*
X146752900Y-93958900D03*
X147702900Y-93958900D03*
X147702900Y-91683900D03*
X145802900Y-91683900D03*
%TD*%
D13*
%TO.C,R107*%
X210640700Y-122466100D03*
X208990700Y-122466100D03*
%TD*%
D11*
%TO.C,C45*%
X111315500Y-91121849D03*
D12*
X111315500Y-94621849D03*
%TD*%
D34*
%TO.C,TP6*%
X158572200Y-163169600D03*
%TD*%
D11*
%TO.C,C111*%
X215633300Y-148043900D03*
D12*
X219133300Y-148043900D03*
%TD*%
D16*
%TO.C,R60*%
X165392000Y-148958800D03*
X165392000Y-147308800D03*
%TD*%
D29*
%TO.C,U21*%
X204585700Y-145406600D03*
X205235700Y-145406600D03*
X205885700Y-145406600D03*
X206535700Y-145406600D03*
X206535700Y-141181600D03*
X205885700Y-141181600D03*
X205235700Y-141181600D03*
X204585700Y-141181600D03*
%TD*%
D31*
%TO.C,J16*%
X155379500Y-94654100D03*
D32*
X157919500Y-94654100D03*
%TD*%
D15*
%TO.C,U2*%
X183577400Y-92907000D03*
X182627400Y-92907000D03*
X181677400Y-92907000D03*
X181677400Y-95182000D03*
X183577400Y-95182000D03*
%TD*%
D45*
%TO.C,D1*%
X183197700Y-89093100D03*
X180397700Y-89093100D03*
%TD*%
D14*
%TO.C,R122*%
X209015100Y-145580100D03*
X210665100Y-145580100D03*
%TD*%
D23*
%TO.C,C108*%
X200787000Y-142382200D03*
X200787000Y-144282200D03*
%TD*%
D29*
%TO.C,U16*%
X194490700Y-108803700D03*
X195140700Y-108803700D03*
X195790700Y-108803700D03*
X196440700Y-108803700D03*
X196440700Y-104578700D03*
X195790700Y-104578700D03*
X195140700Y-104578700D03*
X194490700Y-104578700D03*
%TD*%
D28*
%TO.C,C76*%
X139857800Y-141745200D03*
X138307800Y-141745200D03*
%TD*%
D18*
%TO.C,C6*%
X170176800Y-145909598D03*
X170176800Y-144359598D03*
%TD*%
D20*
%TO.C,J1*%
X119926000Y-105194600D03*
D21*
X121636000Y-112264600D03*
D20*
X115816000Y-116244600D03*
X108876000Y-109304600D03*
D21*
X112756000Y-103484600D03*
%TD*%
D29*
%TO.C,U15*%
X142197200Y-165649400D03*
X142847200Y-165649400D03*
X143497200Y-165649400D03*
X144147200Y-165649400D03*
X144147200Y-161424400D03*
X143497200Y-161424400D03*
X142847200Y-161424400D03*
X142197200Y-161424400D03*
%TD*%
D34*
%TO.C,TP5*%
X172186600Y-163093400D03*
%TD*%
D14*
%TO.C,R89*%
X198793600Y-109194600D03*
X200443600Y-109194600D03*
%TD*%
D17*
%TO.C,C12*%
X160982000Y-144335398D03*
X160982000Y-147285398D03*
%TD*%
D28*
%TO.C,C83*%
X139691200Y-159498301D03*
X138141200Y-159498301D03*
%TD*%
D14*
%TO.C,R112*%
X185927500Y-143965700D03*
X187577500Y-143965700D03*
%TD*%
%TO.C,R4*%
X95974400Y-194157600D03*
X97624400Y-194157600D03*
%TD*%
D27*
%TO.C,H4*%
X243700300Y-71667100D03*
%TD*%
D11*
%TO.C,C81*%
X129741600Y-167778700D03*
D12*
X126241600Y-167778700D03*
%TD*%
D19*
%TO.C,C106*%
X190447700Y-146962900D03*
X191997700Y-146962900D03*
%TD*%
D27*
%TO.C,H2*%
X91300300Y-194171100D03*
%TD*%
D18*
%TO.C,C71*%
X146951600Y-110757799D03*
X146951600Y-109207799D03*
%TD*%
D13*
%TO.C,R62*%
X139991000Y-109182400D03*
X138341000Y-109182400D03*
%TD*%
D15*
%TO.C,U4*%
X173615900Y-92812500D03*
X172665900Y-92812500D03*
X171715900Y-92812500D03*
X171715900Y-95087500D03*
X173615900Y-95087500D03*
%TD*%
D13*
%TO.C,R53*%
X139963800Y-128702299D03*
X138313800Y-128702299D03*
%TD*%
D16*
%TO.C,R42*%
X165843500Y-93982100D03*
X165843500Y-92332100D03*
%TD*%
D13*
%TO.C,R130*%
X192072300Y-162685500D03*
X190422300Y-162685500D03*
%TD*%
%TO.C,R129*%
X192060100Y-161186900D03*
X190410100Y-161186900D03*
%TD*%
D11*
%TO.C,C36*%
X129964200Y-132131299D03*
D12*
X126464200Y-132131299D03*
%TD*%
D13*
%TO.C,R74*%
X135169200Y-162724101D03*
X133519200Y-162724101D03*
%TD*%
D14*
%TO.C,R49*%
X133728600Y-128676899D03*
X135378600Y-128676899D03*
%TD*%
D23*
%TO.C,C116*%
X200787000Y-161127400D03*
X200787000Y-163027400D03*
%TD*%
D13*
%TO.C,R79*%
X139741200Y-164349700D03*
X138091200Y-164349700D03*
%TD*%
D14*
%TO.C,R113*%
X190396900Y-140968500D03*
X192046900Y-140968500D03*
%TD*%
D19*
%TO.C,C25*%
X153428100Y-98691700D03*
X154978100Y-98691700D03*
%TD*%
D27*
%TO.C,H3*%
X167500300Y-71667100D03*
%TD*%
D22*
%TO.C,C37*%
X136852800Y-127063699D03*
X136852800Y-128613699D03*
%TD*%
D11*
%TO.C,C110*%
X215582500Y-138849100D03*
D12*
X219082500Y-138849100D03*
%TD*%
D14*
%TO.C,R5*%
X172555400Y-71602600D03*
X174205400Y-71602600D03*
%TD*%
D24*
%TO.C,R93*%
X202463400Y-104229400D03*
X202463400Y-105879400D03*
%TD*%
D22*
%TO.C,C104*%
X188999900Y-142441100D03*
X188999900Y-143991100D03*
%TD*%
D35*
%TO.C,L2*%
X127152800Y-88102000D03*
X128727800Y-88102000D03*
%TD*%
D14*
%TO.C,R67*%
X133672600Y-146571199D03*
X135322600Y-146571199D03*
%TD*%
D11*
%TO.C,C59*%
X128702300Y-79757500D03*
D12*
X128702300Y-76257500D03*
%TD*%
D22*
%TO.C,C3*%
X163496600Y-126643398D03*
X163496600Y-128193398D03*
%TD*%
D23*
%TO.C,C79*%
X148734800Y-144820799D03*
X148734800Y-146720799D03*
%TD*%
D19*
%TO.C,C70*%
X138365800Y-113982999D03*
X139915800Y-113982999D03*
%TD*%
D13*
%TO.C,R103*%
X200494400Y-122351800D03*
X198844400Y-122351800D03*
%TD*%
%TO.C,R7*%
X162101800Y-194171100D03*
X160451800Y-194171100D03*
%TD*%
D24*
%TO.C,R27*%
X178381700Y-176030200D03*
X178381700Y-177680200D03*
%TD*%
%TO.C,R39*%
X167104100Y-168816600D03*
X167104100Y-170466600D03*
%TD*%
D13*
%TO.C,R78*%
X139753400Y-162647901D03*
X138103400Y-162647901D03*
%TD*%
D46*
%TO.C,D3*%
X197510400Y-88214200D03*
D47*
X194970400Y-88214200D03*
%TD*%
D22*
%TO.C,C112*%
X188999900Y-161160900D03*
X188999900Y-162710900D03*
%TD*%
D11*
%TO.C,C67*%
X129979200Y-114313199D03*
D12*
X126479200Y-114313199D03*
%TD*%
D42*
%TO.C,C13*%
X172664200Y-144690398D03*
X175614200Y-144690398D03*
%TD*%
D45*
%TO.C,D2*%
X171005700Y-89093100D03*
X168205700Y-89093100D03*
%TD*%
D20*
%TO.C,J27*%
X234957900Y-157339300D03*
D21*
X236667900Y-164409300D03*
D20*
X230847900Y-168389300D03*
X223907900Y-161449300D03*
D21*
X227787900Y-155629300D03*
%TD*%
D11*
%TO.C,C103*%
X215633300Y-129578100D03*
D12*
X219133300Y-129578100D03*
%TD*%
D22*
%TO.C,C68*%
X136867800Y-109245599D03*
X136867800Y-110795599D03*
%TD*%
D18*
%TO.C,C101*%
X209065900Y-125552500D03*
X209065900Y-124002500D03*
%TD*%
D13*
%TO.C,R117*%
X200494400Y-140868400D03*
X198844400Y-140868400D03*
%TD*%
%TO.C,R86*%
X192085500Y-105827600D03*
X190435500Y-105827600D03*
%TD*%
D23*
%TO.C,C41*%
X148790800Y-126926499D03*
X148790800Y-128826499D03*
%TD*%
D13*
%TO.C,R135*%
X210640700Y-159651700D03*
X208990700Y-159651700D03*
%TD*%
D31*
%TO.C,J18*%
X94551500Y-97194100D03*
D32*
X92011500Y-97194100D03*
X94551500Y-94654100D03*
X92011500Y-94654100D03*
X94551500Y-92114100D03*
X92011500Y-92114100D03*
X94551500Y-89574100D03*
X92011500Y-89574100D03*
X94551500Y-87034100D03*
X92011500Y-87034100D03*
X94551500Y-84494100D03*
X92011500Y-84494100D03*
X94551500Y-81954100D03*
X92011500Y-81954100D03*
X94551500Y-79414100D03*
X92011500Y-79414100D03*
%TD*%
M02*
