%TF.GenerationSoftware,KiCad,Pcbnew,9.0.1*%
%TF.CreationDate,2025-06-08T13:48:49-07:00*%
%TF.ProjectId,pcm3168a_euro1,70636d33-3136-4386-915f-6575726f312e,rev?*%
%TF.SameCoordinates,Original*%
%TF.FileFunction,Soldermask,Bot*%
%TF.FilePolarity,Negative*%
%FSLAX46Y46*%
G04 Gerber Fmt 4.6, Leading zero omitted, Abs format (unit mm)*
G04 Created by KiCad (PCBNEW 9.0.1) date 2025-06-08 13:48:49*
%MOMM*%
%LPD*%
G01*
G04 APERTURE LIST*
G04 Aperture macros list*
%AMRoundRect*
0 Rectangle with rounded corners*
0 $1 Rounding radius*
0 $2 $3 $4 $5 $6 $7 $8 $9 X,Y pos of 4 corners*
0 Add a 4 corners polygon primitive as box body*
4,1,4,$2,$3,$4,$5,$6,$7,$8,$9,$2,$3,0*
0 Add four circle primitives for the rounded corners*
1,1,$1+$1,$2,$3*
1,1,$1+$1,$4,$5*
1,1,$1+$1,$6,$7*
1,1,$1+$1,$8,$9*
0 Add four rect primitives between the rounded corners*
20,1,$1+$1,$2,$3,$4,$5,0*
20,1,$1+$1,$4,$5,$6,$7,0*
20,1,$1+$1,$6,$7,$8,$9,0*
20,1,$1+$1,$8,$9,$2,$3,0*%
G04 Aperture macros list end*
%ADD10R,1.600000X1.600000*%
%ADD11C,1.600000*%
%ADD12C,3.500000*%
%ADD13C,2.700000*%
%ADD14C,2.050000*%
%ADD15C,2.250000*%
%ADD16C,5.600000*%
%ADD17R,1.700000X1.700000*%
%ADD18C,1.700000*%
%ADD19C,1.500000*%
%ADD20C,3.352800*%
%ADD21R,1.800000X1.800000*%
%ADD22C,1.800000*%
%ADD23RoundRect,0.225000X0.225000X0.250000X-0.225000X0.250000X-0.225000X-0.250000X0.225000X-0.250000X0*%
%ADD24RoundRect,0.200000X0.275000X-0.200000X0.275000X0.200000X-0.275000X0.200000X-0.275000X-0.200000X0*%
%ADD25RoundRect,0.200000X-0.275000X0.200000X-0.275000X-0.200000X0.275000X-0.200000X0.275000X0.200000X0*%
G04 APERTURE END LIST*
D10*
%TO.C,C80*%
X129792400Y-158939501D03*
D11*
X126292400Y-158939501D03*
%TD*%
D10*
%TO.C,C119*%
X215633300Y-166763700D03*
D11*
X219133300Y-166763700D03*
%TD*%
D10*
%TO.C,C46*%
X134696700Y-93752900D03*
D11*
X134696700Y-97252900D03*
%TD*%
D12*
%TO.C,J21*%
X119855000Y-140907000D03*
D13*
X121565000Y-147977000D03*
D12*
X115745000Y-151957000D03*
X108805000Y-145017000D03*
D13*
X112685000Y-139197000D03*
%TD*%
D10*
%TO.C,C102*%
X215582500Y-120383300D03*
D11*
X219082500Y-120383300D03*
%TD*%
D10*
%TO.C,C74*%
X129908200Y-150025599D03*
D11*
X126408200Y-150025599D03*
%TD*%
D14*
%TO.C,J9*%
X183801300Y-83555900D03*
D15*
X186341300Y-81015900D03*
X181261300Y-81015900D03*
X186341300Y-86095900D03*
X181261300Y-86095900D03*
%TD*%
D16*
%TO.C,H6*%
X243700300Y-194171100D03*
%TD*%
D10*
%TO.C,C73*%
X129959000Y-141186400D03*
D11*
X126459000Y-141186400D03*
%TD*%
D10*
%TO.C,C42*%
X102577900Y-91123500D03*
D11*
X102577900Y-94623500D03*
%TD*%
D12*
%TO.C,J26*%
X234957900Y-138619500D03*
D13*
X236667900Y-145689500D03*
D12*
X230847900Y-149669500D03*
X223907900Y-142729500D03*
D13*
X227787900Y-136909500D03*
%TD*%
D16*
%TO.C,H1*%
X91300300Y-71667100D03*
%TD*%
D17*
%TO.C,J8*%
X169595800Y-157561200D03*
D18*
X169595800Y-155021200D03*
%TD*%
D14*
%TO.C,J10*%
X179149100Y-182733500D03*
D15*
X176609100Y-185273500D03*
X181689100Y-185273500D03*
X176609100Y-180193500D03*
X181689100Y-180193500D03*
%TD*%
D14*
%TO.C,J11*%
X171609300Y-83555900D03*
D15*
X174149300Y-81015900D03*
X169069300Y-81015900D03*
X174149300Y-86095900D03*
X169069300Y-86095900D03*
%TD*%
D19*
%TO.C,TP4*%
X162941000Y-99110800D03*
%TD*%
D12*
%TO.C,J24*%
X234983300Y-101980000D03*
D13*
X236693300Y-109050000D03*
D12*
X230873300Y-113030000D03*
X223933300Y-106090000D03*
D13*
X227813300Y-100270000D03*
%TD*%
D12*
%TO.C,J22*%
X119688400Y-158660101D03*
D13*
X121398400Y-165730101D03*
D12*
X115578400Y-169710101D03*
X108638400Y-162770101D03*
D13*
X112518400Y-156950101D03*
%TD*%
D16*
%TO.C,H5*%
X167500300Y-194171100D03*
%TD*%
D19*
%TO.C,TP3*%
X193471800Y-99237800D03*
%TD*%
D10*
%TO.C,C87*%
X215607900Y-102209600D03*
D11*
X219107900Y-102209600D03*
%TD*%
D14*
%TO.C,J19*%
X114820700Y-81700100D03*
D15*
X112280700Y-79160100D03*
X112280700Y-84240100D03*
X117360700Y-79160100D03*
X117360700Y-84240100D03*
%TD*%
D12*
%TO.C,J25*%
X234957900Y-120153700D03*
D13*
X236667900Y-127223700D03*
D12*
X230847900Y-131203700D03*
X223907900Y-124263700D03*
D13*
X227787900Y-118443700D03*
%TD*%
D14*
%TO.C,J14*%
X166957100Y-182733500D03*
D15*
X164417100Y-185273500D03*
X169497100Y-185273500D03*
X164417100Y-180193500D03*
X169497100Y-180193500D03*
%TD*%
D19*
%TO.C,TP2*%
X206349600Y-99009200D03*
%TD*%
D20*
%TO.C,U1*%
X164956201Y-134639199D03*
%TD*%
D14*
%TO.C,J12*%
X154753300Y-182733500D03*
D15*
X152213300Y-185273500D03*
X157293300Y-185273500D03*
X152213300Y-180193500D03*
X157293300Y-180193500D03*
%TD*%
D10*
%TO.C,C31*%
X130030000Y-105474000D03*
D11*
X126530000Y-105474000D03*
%TD*%
D10*
%TO.C,C88*%
X215658700Y-111404400D03*
D11*
X219158700Y-111404400D03*
%TD*%
D14*
%TO.C,J15*%
X159417300Y-83555900D03*
D15*
X161957300Y-81015900D03*
X156877300Y-81015900D03*
X161957300Y-86095900D03*
X156877300Y-86095900D03*
%TD*%
D12*
%TO.C,J17*%
X119911000Y-123012700D03*
D13*
X121621000Y-130082700D03*
D12*
X115801000Y-134062700D03*
X108861000Y-127122700D03*
D13*
X112741000Y-121302700D03*
%TD*%
D14*
%TO.C,J13*%
X147149100Y-83581300D03*
D15*
X149689100Y-86121300D03*
X149689100Y-81041300D03*
X144609100Y-86121300D03*
X144609100Y-81041300D03*
%TD*%
D10*
%TO.C,C118*%
X215582500Y-157568900D03*
D11*
X219082500Y-157568900D03*
%TD*%
D10*
%TO.C,C35*%
X130015000Y-123292100D03*
D11*
X126515000Y-123292100D03*
%TD*%
D19*
%TO.C,TP1*%
X144907000Y-103403400D03*
%TD*%
D10*
%TO.C,C45*%
X111315500Y-91121849D03*
D11*
X111315500Y-94621849D03*
%TD*%
D19*
%TO.C,TP6*%
X158572200Y-163169600D03*
%TD*%
D10*
%TO.C,C111*%
X215633300Y-148043900D03*
D11*
X219133300Y-148043900D03*
%TD*%
D17*
%TO.C,J16*%
X155379500Y-94654100D03*
D18*
X157919500Y-94654100D03*
%TD*%
D12*
%TO.C,J1*%
X119926000Y-105194600D03*
D13*
X121636000Y-112264600D03*
D12*
X115816000Y-116244600D03*
X108876000Y-109304600D03*
D13*
X112756000Y-103484600D03*
%TD*%
D19*
%TO.C,TP5*%
X172186600Y-163093400D03*
%TD*%
D16*
%TO.C,H4*%
X243700300Y-71667100D03*
%TD*%
D10*
%TO.C,C81*%
X129741600Y-167778700D03*
D11*
X126241600Y-167778700D03*
%TD*%
D16*
%TO.C,H2*%
X91300300Y-194171100D03*
%TD*%
D10*
%TO.C,C36*%
X129964200Y-132131299D03*
D11*
X126464200Y-132131299D03*
%TD*%
D16*
%TO.C,H3*%
X167500300Y-71667100D03*
%TD*%
D10*
%TO.C,C110*%
X215582500Y-138849100D03*
D11*
X219082500Y-138849100D03*
%TD*%
D10*
%TO.C,C59*%
X128702300Y-79757500D03*
D11*
X128702300Y-76257500D03*
%TD*%
D21*
%TO.C,D3*%
X197510400Y-88214200D03*
D22*
X194970400Y-88214200D03*
%TD*%
D10*
%TO.C,C67*%
X129979200Y-114313199D03*
D11*
X126479200Y-114313199D03*
%TD*%
D12*
%TO.C,J27*%
X234957900Y-157339300D03*
D13*
X236667900Y-164409300D03*
D12*
X230847900Y-168389300D03*
X223907900Y-161449300D03*
D13*
X227787900Y-155629300D03*
%TD*%
D10*
%TO.C,C103*%
X215633300Y-129578100D03*
D11*
X219133300Y-129578100D03*
%TD*%
D17*
%TO.C,J18*%
X94551500Y-97194100D03*
D18*
X92011500Y-97194100D03*
X94551500Y-94654100D03*
X92011500Y-94654100D03*
X94551500Y-92114100D03*
X92011500Y-92114100D03*
X94551500Y-89574100D03*
X92011500Y-89574100D03*
X94551500Y-87034100D03*
X92011500Y-87034100D03*
X94551500Y-84494100D03*
X92011500Y-84494100D03*
X94551500Y-81954100D03*
X92011500Y-81954100D03*
X94551500Y-79414100D03*
X92011500Y-79414100D03*
%TD*%
D23*
%TO.C,C121*%
X158763000Y-140284200D03*
X157213000Y-140284200D03*
%TD*%
D24*
%TO.C,R1*%
X157480000Y-120941600D03*
X157480000Y-119291600D03*
%TD*%
%TO.C,R14*%
X162204400Y-120992400D03*
X162204400Y-119342400D03*
%TD*%
D25*
%TO.C,R16*%
X163779200Y-119317000D03*
X163779200Y-120967000D03*
%TD*%
D24*
%TO.C,R11*%
X160655000Y-120992400D03*
X160655000Y-119342400D03*
%TD*%
D25*
%TO.C,R13*%
X159105600Y-119342400D03*
X159105600Y-120992400D03*
%TD*%
D23*
%TO.C,C120*%
X158725200Y-138709400D03*
X157175200Y-138709400D03*
%TD*%
M02*
