M48
; DRILL file {KiCad 9.0.1} date 2025-06-08T13:48:51-0700
; FORMAT={-:-/ absolute / metric / decimal}
; #@! TF.CreationDate,2025-06-08T13:48:51-07:00
; #@! TF.GenerationSoftware,Kicad,Pcbnew,9.0.1
; #@! TF.FileFunction,MixedPlating,1,4
FMAT,2
METRIC
; #@! TA.AperFunction,Plated,PTH,ViaDrill
T1C0.300
; #@! TA.AperFunction,Plated,PTH,ComponentDrill
T2C0.700
; #@! TA.AperFunction,Plated,PTH,ComponentDrill
T3C0.800
; #@! TA.AperFunction,Plated,PTH,ComponentDrill
T4C0.900
; #@! TA.AperFunction,Plated,PTH,ComponentDrill
T5C1.000
; #@! TA.AperFunction,Plated,PTH,ComponentDrill
T6C1.400
; #@! TA.AperFunction,Plated,PTH,ComponentDrill
T7C1.500
; #@! TA.AperFunction,Plated,PTH,ComponentDrill
T8C1.700
; #@! TA.AperFunction,Plated,PTH,ComponentDrill
T9C2.000
; #@! TA.AperFunction,Plated,PTH,ComponentDrill
T10C3.200
; #@! TA.AperFunction,Plated,PTH,ComponentDrill
T11C3.302
%
G90
G05
T1
X91.44Y-116.84
X91.44Y-123.19
X91.44Y-129.54
X91.44Y-135.89
X91.44Y-142.24
X91.44Y-148.59
X91.44Y-154.94
X97.79Y-116.84
X97.79Y-123.19
X97.79Y-129.54
X97.79Y-135.89
X97.79Y-142.24
X97.79Y-148.59
X97.79Y-154.94
X98.222Y-71.704
X98.273Y-194.158
X99.022Y-88.203
X102.121Y-88.126
X103.518Y-83.249
X103.772Y-88.101
X105.169Y-83.275
X105.41Y-179.07
X105.41Y-185.42
X105.41Y-191.77
X105.435Y-93.116
X105.524Y-84.773
X106.07Y-95.275
X107.137Y-96.901
X107.201Y-87.009
X107.201Y-88.837
X107.417Y-93.091
X108.052Y-95.25
X108.648Y-84.494
X109.118Y-96.876
X109.182Y-86.983
X109.182Y-88.837
X111.658Y-96.876
X111.722Y-86.983
X111.722Y-88.837
X111.76Y-179.07
X111.76Y-185.42
X111.76Y-191.77
X113.741Y-92.989
X113.792Y-94.844
X114.198Y-96.876
X114.236Y-90.666
X114.262Y-86.983
X114.262Y-88.837
X116.281Y-92.989
X116.332Y-94.844
X118.11Y-179.07
X118.11Y-185.42
X118.11Y-191.77
X124.46Y-179.07
X124.46Y-185.42
X124.46Y-191.77
X127.152Y-91.872
X127.178Y-83.033
X128.778Y-91.846
X129.311Y-83.16
X130.81Y-83.388
X130.81Y-179.07
X130.81Y-185.42
X130.81Y-191.77
X133.96Y-84.912
X133.96Y-88.189
X134.061Y-79.35
X134.061Y-81.661
X136.449Y-79.375
X136.449Y-81.686
X137.16Y-179.07
X137.16Y-185.42
X137.16Y-191.77
X138.582Y-90.627
X139.065Y-79.375
X139.065Y-81.686
X141.046Y-92.253
X141.072Y-84.506
X141.072Y-87.249
X141.072Y-89.865
X141.732Y-81.458
X142.646Y-158.725
X142.764Y-164.362
X142.824Y-168.148
X142.85Y-95.682
X142.875Y-97.231
X142.875Y-150.368
X142.931Y-146.609
X142.951Y-140.995
X142.987Y-128.714
X143.002Y-110.896
X143.002Y-114.63
X143.002Y-123.038
X143.027Y-132.436
X143.501Y-162.482
X143.51Y-179.07
X143.51Y-185.42
X143.51Y-191.77
X143.668Y-144.729
X143.724Y-126.835
X143.739Y-109.017
X143.907Y-163.93
X144.074Y-146.177
X144.13Y-128.283
X144.145Y-110.465
X144.297Y-89.306
X145.237Y-136.703
X145.288Y-154.762
X145.313Y-91.923
X147.244Y-162.128
X147.269Y-163.703
X147.422Y-144.399
X147.422Y-145.948
X147.498Y-110.211
X147.498Y-126.517
X147.498Y-128.067
X147.523Y-108.687
X147.676Y-94.844
X148.078Y-170.167
X148.245Y-152.414
X148.316Y-116.701
X148.316Y-121.527
X148.425Y-157.189
X148.468Y-134.177
X148.468Y-139.002
X149.987Y-96.723
X150.038Y-93.116
X151.181Y-170.409
X151.46Y-118.923
X151.689Y-93.142
X152.451Y-99.085
X153.478Y-172.118
X154.521Y-143.116
X155.105Y-138.569
X155.459Y-175.369
X155.626Y-128.219
X155.651Y-98.679
X156.221Y-176.715
X156.566Y-140.716
X156.642Y-138.176
X157.15Y-130.632
X157.455Y-118.72
X157.988Y-91.77
X158.405Y-176.08
X158.547Y-147.98
X158.558Y-170.39
X159.334Y-139.725
X159.385Y-129.337
X159.385Y-138.735
X159.512Y-132.867
X159.817Y-194.158
X160.071Y-131.928
X160.528Y-125.755
X160.63Y-141.58
X160.655Y-118.77
X160.96Y-92.634
X160.96Y-148.031
X160.985Y-145.11
X162.179Y-118.77
X162.382Y-129.54
X162.865Y-146.609
X162.89Y-127.762
X162.89Y-143.764
X163.22Y-129.134
X163.398Y-140.843
X163.398Y-170.383
X163.471Y-126.021
X163.474Y-137.617
X163.703Y-124.866
X163.754Y-122.199
X163.754Y-123.063
X163.754Y-123.952
X164.414Y-140.843
X164.465Y-119.329
X164.668Y-145.313
X165.024Y-90.246
X165.1Y-139.116
X165.379Y-148.387
X165.682Y-172.118
X165.862Y-88.748
X166.776Y-137.236
X167.208Y-133.121
X167.462Y-89.103
X167.663Y-175.369
X167.84Y-143.319
X168.338Y-148.197
X168.348Y-144.868
X168.415Y-146.368
X168.425Y-176.715
X168.91Y-91.135
X169.037Y-131.699
X169.24Y-129.108
X169.418Y-136.271
X169.44Y-150.431
X169.52Y-92.558
X169.52Y-128.346
X169.647Y-143.815
X169.824Y-139.573
X170.002Y-133.274
X170.028Y-126.543
X170.177Y-146.545
X170.609Y-176.08
X170.663Y-129.311
X170.762Y-170.39
X170.786Y-142.811
X171.221Y-128.727
X171.729Y-91.948
X172.11Y-150.47
X172.212Y-154.584
X172.793Y-128.282
X173.101Y-147.371
X173.279Y-141.961
X174.32Y-95.504
X174.523Y-126.314
X174.828Y-71.603
X175.184Y-93.091
X175.285Y-141.376
X175.362Y-138.608
X175.59Y-170.409
X176.378Y-144.678
X176.555Y-90.145
X177.874Y-172.118
X179.629Y-89.103
X179.855Y-175.369
X180.617Y-176.715
X181.077Y-91.11
X181.661Y-92.05
X182.801Y-176.08
X182.954Y-170.39
X184.302Y-151.892
X184.328Y-95.809
X184.975Y-113.247
X184.975Y-118.073
X185.166Y-93.167
X185.191Y-135.585
X187.922Y-149.671
X187.922Y-154.496
X188.011Y-115.646
X188.023Y-132.856
X188.023Y-137.682
X188.163Y-88.494
X188.874Y-90.145
X190.5Y-179.07
X190.5Y-185.42
X190.5Y-191.77
X194.742Y-166.472
X194.767Y-119.99
X194.767Y-125.438
X194.767Y-143.904
X194.767Y-147.777
X194.767Y-157.328
X194.767Y-162.623
X194.793Y-107.264
X194.818Y-129.515
X194.818Y-138.532
X194.894Y-111.328
X195.656Y-125.438
X195.656Y-143.904
X195.656Y-162.623
X195.682Y-107.264
X195.758Y-123.774
X195.758Y-160.96
X195.783Y-142.265
X195.809Y-105.588
X196.85Y-179.07
X196.85Y-185.42
X196.85Y-191.77
X198.222Y-125.92
X198.222Y-144.386
X198.222Y-163.106
X198.247Y-107.747
X198.272Y-124.142
X198.272Y-142.608
X198.272Y-161.328
X198.298Y-105.969
X200.012Y-132.221
X200.012Y-137.047
X200.114Y-149.797
X200.114Y-154.624
X200.165Y-131.421
X200.165Y-168.606
X200.19Y-113.247
X200.19Y-118.073
X202.641Y-88.189
X203.2Y-179.07
X203.2Y-185.42
X203.2Y-191.77
X204.876Y-138.633
X204.876Y-147.574
X204.902Y-120.218
X204.902Y-125.463
X204.902Y-129.388
X204.902Y-143.929
X204.902Y-162.649
X204.927Y-107.29
X204.927Y-111.303
X204.927Y-157.607
X204.953Y-166.192
X205.791Y-125.362
X205.791Y-143.827
X205.791Y-162.547
X205.816Y-107.188
X205.867Y-142.189
X205.867Y-160.934
X205.892Y-123.749
X205.918Y-105.562
X208.407Y-123.99
X208.407Y-125.768
X208.407Y-142.456
X208.407Y-144.234
X208.407Y-161.176
X208.407Y-162.954
X208.432Y-105.816
X208.432Y-107.594
X209.55Y-76.2
X209.55Y-82.55
X209.55Y-88.9
X209.55Y-179.07
X209.55Y-185.42
X209.55Y-191.77
X215.9Y-76.2
X215.9Y-82.55
X215.9Y-88.9
X215.9Y-179.07
X215.9Y-185.42
X215.9Y-191.77
X222.25Y-76.2
X222.25Y-82.55
X222.25Y-88.9
X222.25Y-179.07
X222.25Y-185.42
X222.25Y-191.77
X228.6Y-76.2
X228.6Y-82.55
X228.6Y-88.9
X228.6Y-179.07
X228.6Y-185.42
X228.6Y-191.77
X235.966Y-194.183
X236.677Y-71.73
T2
X144.907Y-103.403
X158.572Y-163.17
X162.941Y-99.111
X172.187Y-163.093
X193.472Y-99.238
X206.35Y-99.009
T3
X102.578Y-91.123
X102.578Y-94.623
X111.316Y-91.122
X111.316Y-94.622
X126.242Y-167.779
X126.292Y-158.94
X126.408Y-150.026
X126.459Y-141.186
X126.464Y-132.131
X126.479Y-114.313
X126.515Y-123.292
X126.53Y-105.474
X128.702Y-76.257
X128.702Y-79.757
X129.742Y-167.779
X129.792Y-158.94
X129.908Y-150.026
X129.959Y-141.186
X129.964Y-132.131
X129.979Y-114.313
X130.015Y-123.292
X130.03Y-105.474
X134.697Y-93.753
X134.697Y-97.253
X215.582Y-120.383
X215.582Y-138.849
X215.582Y-157.569
X215.608Y-102.21
X215.633Y-129.578
X215.633Y-148.044
X215.633Y-166.764
X215.659Y-111.404
X219.082Y-120.383
X219.082Y-138.849
X219.082Y-157.569
X219.108Y-102.21
X219.133Y-129.578
X219.133Y-148.044
X219.133Y-166.764
X219.159Y-111.404
T4
X194.97Y-88.214
X197.51Y-88.214
T5
X92.011Y-79.414
X92.011Y-81.954
X92.011Y-84.494
X92.011Y-87.034
X92.011Y-89.574
X92.011Y-92.114
X92.011Y-94.654
X92.011Y-97.194
X94.551Y-79.414
X94.551Y-81.954
X94.551Y-84.494
X94.551Y-87.034
X94.551Y-89.574
X94.551Y-92.114
X94.551Y-94.654
X94.551Y-97.194
X155.379Y-94.654
X157.919Y-94.654
X169.596Y-155.021
X169.596Y-157.561
T6
X112.518Y-156.95
X112.685Y-139.197
X112.741Y-121.303
X112.756Y-103.485
X121.398Y-165.73
X121.565Y-147.977
X121.621Y-130.083
X121.636Y-112.265
X227.788Y-118.444
X227.788Y-136.909
X227.788Y-155.629
X227.813Y-100.27
X236.668Y-127.224
X236.668Y-145.689
X236.668Y-164.409
X236.693Y-109.05
T7
X114.821Y-81.7
X147.149Y-83.581
X154.753Y-182.733
X159.417Y-83.556
X166.957Y-182.733
X171.609Y-83.556
X179.149Y-182.733
X183.801Y-83.556
T8
X112.281Y-79.16
X112.281Y-84.24
X117.361Y-79.16
X117.361Y-84.24
X144.609Y-81.041
X144.609Y-86.121
X149.689Y-81.041
X149.689Y-86.121
X152.213Y-180.194
X152.213Y-185.273
X156.877Y-81.016
X156.877Y-86.096
X157.293Y-180.194
X157.293Y-185.273
X161.957Y-81.016
X161.957Y-86.096
X164.417Y-180.194
X164.417Y-185.273
X169.069Y-81.016
X169.069Y-86.096
X169.497Y-180.194
X169.497Y-185.273
X174.149Y-81.016
X174.149Y-86.096
X176.609Y-180.194
X176.609Y-185.273
X181.261Y-81.016
X181.261Y-86.096
X181.689Y-180.194
X181.689Y-185.273
X186.341Y-81.016
X186.341Y-86.096
T9
X108.638Y-162.77
X108.805Y-145.017
X108.861Y-127.123
X108.876Y-109.305
X115.578Y-169.71
X115.745Y-151.957
X115.801Y-134.063
X115.816Y-116.245
X119.688Y-158.66
X119.855Y-140.907
X119.911Y-123.013
X119.926Y-105.195
X223.908Y-124.264
X223.908Y-142.73
X223.908Y-161.449
X223.933Y-106.09
X230.848Y-131.204
X230.848Y-149.669
X230.848Y-168.389
X230.873Y-113.03
X234.958Y-120.154
X234.958Y-138.619
X234.958Y-157.339
X234.983Y-101.98
T10
X91.3Y-71.667
X91.3Y-194.171
X167.5Y-71.667
X167.5Y-194.171
X243.7Y-71.667
X243.7Y-194.171
T11
X164.956Y-134.639
M30
